<svg width="304" height="97" viewBox="0 0 304 97" fill="none" xmlns="http://www.w3.org/2000/svg">
<path d="M176.03 24.02V33.97L175.88 34.12L175.87 34.1C175.87 34.04 175.85 33.98 175.84 33.92C175.84 33.91 175.84 33.9 175.83 33.89C175.8 33.73 175.77 33.57 175.74 33.41C175.74 33.37 175.72 33.32 175.71 33.28C175.65 33.02 175.58 32.77 175.51 32.53C175.48 32.45 175.46 32.37 175.43 32.29C175.4 32.17 175.36 32.06 175.32 31.96C175.16 31.53 174.98 31.11 174.78 30.7C174.67 30.47 174.55 30.24 174.42 30.02C173.36 28.19 171.85 26.68 170.03 25.63C169.81 25.5 169.58 25.38 169.35 25.27C169.19 25.19 169.03 25.11 168.87 25.05C168.82 25.02 168.78 25 168.73 24.99C168.58 24.92 168.43 24.86 168.28 24.81C168.11 24.75 167.95 24.69 167.78 24.63C167.61 24.57 167.44 24.52 167.27 24.47C167.1 24.42 166.92 24.38 166.75 24.34C166.61 24.3 166.47 24.27 166.33 24.25C166.15 24.21 165.97 24.18 165.79 24.16C165.75 24.16 165.72 24.14 165.68 24.14C165.64 24.13 165.59 24.12 165.55 24.12H165.5C165.28 24.08 165.06 24.06 164.83 24.05C164.7 24.04 164.57 24.03 164.43 24.03C164.29 24.02 164.15 24.02 164.02 24.02C161.83 24.01 159.78 23.43 158.02 22.41C157.73 22.24 157.45 22.06 157.18 21.87C155.99 21.05 154.97 20.03 154.15 18.85C153.96 18.58 153.78 18.3 153.61 18.01C152.6 16.25 152.01 14.2 152.01 12.01C152.01 10.51 152.29 9.07 152.8 7.75C153.02 7.14 153.3 6.56 153.62 6C154.61 7.74 156.03 9.19 157.74 10.23C159.56 11.35 161.71 12 164.02 12C167.34 12.01 170.34 13.36 172.51 15.52C173.25 16.26 173.9 17.1 174.42 18.01C175.44 19.77 176.02 21.82 176.02 24.01L176.03 24.02Z" fill="#011959"/>
<path d="M176.03 24.02V33.97L175.88 34.12L175.87 34.1C175.87 34.04 175.85 33.98 175.84 33.92C175.84 33.91 175.84 33.9 175.83 33.89C175.8 33.73 175.77 33.57 175.74 33.41C175.74 33.37 175.72 33.32 175.71 33.28C175.65 33.02 175.58 32.77 175.51 32.53C175.48 32.45 175.46 32.37 175.43 32.29C175.4 32.17 175.36 32.06 175.32 31.96C175.16 31.53 174.98 31.11 174.78 30.7C174.67 30.47 174.55 30.24 174.42 30.02C173.36 28.19 171.85 26.68 170.03 25.63C169.81 25.5 169.58 25.38 169.35 25.27C169.19 25.19 169.03 25.11 168.87 25.05C168.82 25.02 168.78 25 168.73 24.99C168.58 24.92 168.43 24.86 168.28 24.81C168.11 24.75 167.95 24.69 167.78 24.63C167.61 24.57 167.44 24.52 167.27 24.47C167.1 24.42 166.92 24.38 166.75 24.34C166.61 24.3 166.47 24.27 166.33 24.25C166.15 24.21 165.97 24.18 165.79 24.16C165.75 24.16 165.72 24.14 165.68 24.14C165.64 24.13 165.59 24.12 165.55 24.12H165.5C165.28 24.08 165.06 24.06 164.83 24.05C164.7 24.04 164.57 24.03 164.43 24.03C164.29 24.02 164.15 24.02 164.02 24.02C161.83 24.01 159.78 23.43 158.02 22.41C157.73 22.24 157.45 22.06 157.18 21.87C155.99 21.05 154.97 20.03 154.15 18.85C153.96 18.58 153.78 18.3 153.61 18.01C152.6 16.25 152.01 14.2 152.01 12.01C152.01 10.51 152.29 9.07 152.8 7.75C153.02 7.14 153.3 6.56 153.62 6C154.61 7.74 156.03 9.19 157.74 10.23C159.56 11.35 161.71 12 164.02 12C167.34 12.01 170.34 13.36 172.51 15.52C173.25 16.26 173.9 17.1 174.42 18.01C175.44 19.77 176.02 21.82 176.02 24.01L176.03 24.02Z" fill="url(#paint0_linear_148_433)"/>
<path d="M152.01 36.03C152.01 36.3 152 36.58 151.98 36.84C151.95 37.38 151.88 37.91 151.77 38.43C151.72 38.69 151.66 38.94 151.59 39.19C151.52 39.44 151.45 39.69 151.36 39.93C151.32 40.05 151.28 40.18 151.23 40.3C151.22 40.34 151.2 40.37 151.19 40.4C151.12 40.59 151.04 40.78 150.94 40.97C150.89 41.1 150.83 41.23 150.76 41.36C150.65 41.59 150.53 41.82 150.4 42.04C150.03 41.39 149.6 40.78 149.11 40.22C148.95 40.03 148.78 39.84 148.61 39.67C148.48 39.53 148.34 39.39 148.2 39.27C147.8 38.89 147.37 38.54 146.91 38.22C146.75 38.1 146.58 37.99 146.4 37.88C146.37 37.86 146.33 37.83 146.29 37.81H146.28C146.08 37.68 145.88 37.56 145.67 37.46C145.16 37.18 144.63 36.94 144.08 36.74C143.89 36.67 143.7 36.61 143.5 36.56C142.39 36.21 141.22 36.03 140 36.03C139.68 36.02 139.37 36.01 139.06 35.98C138.88 35.98 138.69 35.95 138.5 35.92C138.39 35.91 138.28 35.9 138.17 35.88C137.77 35.82 137.38 35.74 137 35.64C136.99 35.64 136.98 35.64 136.97 35.63C136.83 35.6 136.7 35.56 136.56 35.52C135.62 35.24 134.72 34.85 133.89 34.36C133.68 34.23 133.48 34.1 133.28 33.98C133.06 33.82 132.84 33.66 132.63 33.5C132.45 33.36 132.26 33.21 132.09 33.05C131.89 32.87 131.7 32.69 131.51 32.51C130.77 31.76 130.13 30.93 129.6 30.02C128.63 28.34 128.05 26.39 128 24.32V14.07L128.16 13.91C128.16 14 128.18 14.08 128.2 14.16C128.44 15.54 128.92 16.84 129.6 18.01C130.66 19.83 132.18 21.35 134 22.41C134.32 22.59 134.64 22.76 134.98 22.91C135.23 23.03 135.49 23.14 135.75 23.23C135.91 23.3 136.07 23.36 136.23 23.4C136.74 23.57 137.27 23.71 137.81 23.81C138 23.85 138.19 23.88 138.39 23.9C138.65 23.94 138.92 23.97 139.19 23.98C139.45 24 139.73 24.01 140 24.01C142.19 24.02 144.24 24.61 146.01 25.63C146.29 25.79 146.57 25.97 146.84 26.16C148.02 26.98 149.05 28.01 149.87 29.19C150.06 29.46 150.24 29.74 150.4 30.02C151.43 31.79 152.01 33.84 152.01 36.03Z" fill="#011959"/>
<path d="M152.01 36.03C152.01 36.3 152 36.58 151.98 36.84C151.95 37.38 151.88 37.91 151.77 38.43C151.72 38.69 151.66 38.94 151.59 39.19C151.52 39.44 151.45 39.69 151.36 39.93C151.32 40.05 151.28 40.18 151.23 40.3C151.22 40.34 151.2 40.37 151.19 40.4C151.12 40.59 151.04 40.78 150.94 40.97C150.89 41.1 150.83 41.23 150.76 41.36C150.65 41.59 150.53 41.82 150.4 42.04C150.03 41.39 149.6 40.78 149.11 40.22C148.95 40.03 148.78 39.84 148.61 39.67C148.48 39.53 148.34 39.39 148.2 39.27C147.8 38.89 147.37 38.54 146.91 38.22C146.75 38.1 146.58 37.99 146.4 37.88C146.37 37.86 146.33 37.83 146.29 37.81H146.28C146.08 37.68 145.88 37.56 145.67 37.46C145.16 37.18 144.63 36.94 144.08 36.74C143.89 36.67 143.7 36.61 143.5 36.56C142.39 36.21 141.22 36.03 140 36.03C139.68 36.02 139.37 36.01 139.06 35.98C138.88 35.98 138.69 35.95 138.5 35.92C138.39 35.91 138.28 35.9 138.17 35.88C137.77 35.82 137.38 35.74 137 35.64C136.99 35.64 136.98 35.64 136.97 35.63C136.83 35.6 136.7 35.56 136.56 35.52C135.62 35.24 134.72 34.85 133.89 34.36C133.68 34.23 133.48 34.1 133.28 33.98C133.06 33.82 132.84 33.66 132.63 33.5C132.45 33.36 132.26 33.21 132.09 33.05C131.89 32.87 131.7 32.69 131.51 32.51C130.77 31.76 130.13 30.93 129.6 30.02C128.63 28.34 128.05 26.39 128 24.32V14.07L128.16 13.91C128.16 14 128.18 14.08 128.2 14.16C128.44 15.54 128.92 16.84 129.6 18.01C130.66 19.83 132.18 21.35 134 22.41C134.32 22.59 134.64 22.76 134.98 22.91C135.23 23.03 135.49 23.14 135.75 23.23C135.91 23.3 136.07 23.36 136.23 23.4C136.74 23.57 137.27 23.71 137.81 23.81C138 23.85 138.19 23.88 138.39 23.9C138.65 23.94 138.92 23.97 139.19 23.98C139.45 24 139.73 24.01 140 24.01C142.19 24.02 144.24 24.61 146.01 25.63C146.29 25.79 146.57 25.97 146.84 26.16C148.02 26.98 149.05 28.01 149.87 29.19C150.06 29.46 150.24 29.74 150.4 30.02C151.43 31.79 152.01 33.84 152.01 36.03Z" fill="url(#paint1_linear_148_433)"/>
<path d="M150.4 42.04C149.35 43.86 147.83 45.38 146.01 46.43C144.83 47.11 143.53 47.6 142.14 47.84C142.06 47.86 141.98 47.88 141.9 47.88L135.02 41C133.48 39.46 132.45 37.6 131.92 35.62C131.65 34.6 131.51 33.55 131.51 32.51C131.7 32.69 131.89 32.87 132.09 33.05C132.26 33.21 132.45 33.36 132.63 33.5C132.84 33.66 133.06 33.82 133.28 33.98C133.48 34.1 133.68 34.23 133.89 34.36C134.72 34.85 135.62 35.24 136.56 35.52C136.7 35.56 136.83 35.6 136.97 35.63C136.98 35.64 136.99 35.64 137 35.64C137.38 35.74 137.77 35.82 138.17 35.88C138.28 35.9 138.39 35.91 138.5 35.92C138.69 35.95 138.88 35.97 139.06 35.98C139.37 36.01 139.68 36.02 140 36.02C141.22 36.03 142.39 36.21 143.5 36.56C143.7 36.61 143.89 36.67 144.08 36.74C144.63 36.94 145.16 37.18 145.67 37.46C145.88 37.57 146.08 37.69 146.28 37.81H146.29C146.29 37.81 146.37 37.86 146.4 37.88C146.58 37.99 146.75 38.1 146.91 38.22C147.37 38.54 147.8 38.89 148.2 39.27C148.34 39.39 148.48 39.53 148.61 39.67C148.78 39.84 148.95 40.03 149.11 40.22C149.6 40.78 150.03 41.39 150.4 42.04Z" fill="#011959"/>
<path d="M170.03 25.63C169.38 26 168.77 26.43 168.21 26.92C168.02 27.08 167.83 27.25 167.66 27.42C167.52 27.55 167.38 27.69 167.26 27.83C166.88 28.23 166.53 28.66 166.21 29.12C166.09 29.28 165.98 29.45 165.87 29.63C165.85 29.66 165.82 29.7 165.8 29.74C165.68 29.95 165.56 30.15 165.45 30.36C165.17 30.86 164.93 31.4 164.73 31.95C164.68 32.1 164.63 32.25 164.58 32.41C164.21 33.55 164.02 34.76 164.02 36.02C164.02 36.35 164.01 36.66 163.98 36.98C163.97 37.15 163.95 37.33 163.93 37.5C163.93 37.6 163.9 37.71 163.89 37.81C163.84 38.11 163.79 38.4 163.71 38.69C163.68 38.86 163.64 39.02 163.59 39.19C163.59 39.23 163.58 39.27 163.56 39.31C163.52 39.48 163.46 39.65 163.4 39.81C163.21 40.41 162.97 40.99 162.67 41.55C162.58 41.73 162.48 41.92 162.37 42.1C162.37 42.11 162.37 42.12 162.37 42.13C162.24 42.34 162.11 42.54 161.98 42.74C161.97 42.76 161.96 42.77 161.95 42.78C161.81 42.99 161.66 43.2 161.5 43.4C161.34 43.6 161.18 43.8 161.01 43.99C160.85 44.17 160.68 44.35 160.52 44.52C159.77 45.26 158.93 45.9 158.02 46.43C156.25 47.45 154.2 48.04 152.02 48.04H142.07L141.91 47.88C141.99 47.88 142.07 47.86 142.15 47.84C143.54 47.6 144.84 47.11 146.02 46.43C147.84 45.38 149.36 43.86 150.41 42.04C150.54 41.82 150.66 41.59 150.77 41.36C150.84 41.23 150.9 41.1 150.95 40.97C151.05 40.78 151.13 40.59 151.2 40.4C151.21 40.37 151.23 40.34 151.24 40.3C151.29 40.18 151.33 40.05 151.37 39.93C151.46 39.69 151.53 39.44 151.6 39.19C151.67 38.94 151.73 38.69 151.78 38.43C151.89 37.91 151.96 37.38 151.99 36.84C152.01 36.58 152.02 36.3 152.02 36.03C152.02 33.84 152.61 31.79 153.63 30.02C153.79 29.74 153.97 29.47 154.16 29.2C154.97 28.01 156 26.98 157.19 26.16C157.46 25.97 157.74 25.79 158.02 25.63C159.79 24.61 161.84 24.02 164.03 24.02C164.16 24.02 164.3 24.02 164.44 24.03C164.58 24.03 164.71 24.03 164.84 24.05C165.07 24.06 165.29 24.08 165.51 24.12H165.56C165.56 24.12 165.65 24.13 165.69 24.14C165.73 24.14 165.76 24.15 165.8 24.16C165.98 24.18 166.16 24.21 166.34 24.25C166.48 24.27 166.62 24.3 166.76 24.34C166.93 24.38 167.11 24.42 167.28 24.47C167.45 24.52 167.62 24.57 167.79 24.63C167.96 24.69 168.12 24.75 168.29 24.81C168.44 24.86 168.59 24.92 168.74 24.99C168.79 25 168.83 25.02 168.88 25.05C169.04 25.11 169.2 25.19 169.36 25.27C169.59 25.38 169.82 25.5 170.04 25.63H170.03Z" fill="#011959"/>
<path d="M170.03 25.63C169.38 26 168.77 26.43 168.21 26.92C168.02 27.08 167.83 27.25 167.66 27.42C167.52 27.55 167.38 27.69 167.26 27.83C166.88 28.23 166.53 28.66 166.21 29.12C166.09 29.28 165.98 29.45 165.87 29.63C165.85 29.66 165.82 29.7 165.8 29.74C165.68 29.95 165.56 30.15 165.45 30.36C165.17 30.86 164.93 31.4 164.73 31.95C164.68 32.1 164.63 32.25 164.58 32.41C164.21 33.55 164.02 34.76 164.02 36.02C164.02 36.35 164.01 36.66 163.98 36.98C163.97 37.15 163.95 37.33 163.93 37.5C163.93 37.6 163.9 37.71 163.89 37.81C163.84 38.11 163.79 38.4 163.71 38.69C163.68 38.86 163.64 39.02 163.59 39.19C163.59 39.23 163.58 39.27 163.56 39.31C163.52 39.48 163.46 39.65 163.4 39.81C163.21 40.41 162.97 40.99 162.67 41.55C162.58 41.73 162.48 41.92 162.37 42.1C162.37 42.11 162.37 42.12 162.37 42.13C162.24 42.34 162.11 42.54 161.98 42.74C161.97 42.76 161.96 42.77 161.95 42.78C161.81 42.99 161.66 43.2 161.5 43.4C161.34 43.6 161.18 43.8 161.01 43.99C160.85 44.17 160.68 44.35 160.52 44.52C159.77 45.26 158.93 45.9 158.02 46.43C156.25 47.45 154.2 48.04 152.02 48.04H142.07L141.91 47.88C141.99 47.88 142.07 47.86 142.15 47.84C143.54 47.6 144.84 47.11 146.02 46.43C147.84 45.38 149.36 43.86 150.41 42.04C150.54 41.82 150.66 41.59 150.77 41.36C150.84 41.23 150.9 41.1 150.95 40.97C151.05 40.78 151.13 40.59 151.2 40.4C151.21 40.37 151.23 40.34 151.24 40.3C151.29 40.18 151.33 40.05 151.37 39.93C151.46 39.69 151.53 39.44 151.6 39.19C151.67 38.94 151.73 38.69 151.78 38.43C151.89 37.91 151.96 37.38 151.99 36.84C152.01 36.58 152.02 36.3 152.02 36.03C152.02 33.84 152.61 31.79 153.63 30.02C153.79 29.74 153.97 29.47 154.16 29.2C154.97 28.01 156 26.98 157.19 26.16C157.46 25.97 157.74 25.79 158.02 25.63C159.79 24.61 161.84 24.02 164.03 24.02C164.16 24.02 164.3 24.02 164.44 24.03C164.58 24.03 164.71 24.03 164.84 24.05C165.07 24.06 165.29 24.08 165.51 24.12H165.56C165.56 24.12 165.65 24.13 165.69 24.14C165.73 24.14 165.76 24.15 165.8 24.16C165.98 24.18 166.16 24.21 166.34 24.25C166.48 24.27 166.62 24.3 166.76 24.34C166.93 24.38 167.11 24.42 167.28 24.47C167.45 24.52 167.62 24.57 167.79 24.63C167.96 24.69 168.12 24.75 168.29 24.81C168.44 24.86 168.59 24.92 168.74 24.99C168.79 25 168.83 25.02 168.88 25.05C169.04 25.11 169.2 25.19 169.36 25.27C169.59 25.38 169.82 25.5 170.04 25.63H170.03Z" fill="url(#paint2_linear_148_433)"/>
<path d="M175.88 34.12H175.87L168.99 41C167.44 42.55 165.58 43.59 163.62 44.12C162.61 44.39 161.57 44.52 160.52 44.52C160.68 44.35 160.85 44.17 161.01 43.99C161.18 43.8 161.34 43.6 161.5 43.4C161.66 43.2 161.81 42.99 161.95 42.78C161.96 42.77 161.97 42.76 161.98 42.74C162.11 42.54 162.24 42.34 162.37 42.13C162.37 42.12 162.37 42.11 162.37 42.1C162.48 41.92 162.58 41.73 162.67 41.55C162.97 40.99 163.21 40.41 163.4 39.81C163.46 39.65 163.52 39.48 163.56 39.31C163.58 39.27 163.59 39.23 163.59 39.19C163.64 39.02 163.68 38.86 163.71 38.69C163.79 38.4 163.84 38.11 163.89 37.81C163.9 37.71 163.92 37.6 163.93 37.5C163.95 37.33 163.97 37.15 163.98 36.98C164.01 36.66 164.02 36.35 164.02 36.03C164.02 34.76 164.21 33.55 164.58 32.41C164.63 32.25 164.68 32.1 164.73 31.95C164.93 31.4 165.17 30.86 165.45 30.36C165.56 30.15 165.68 29.95 165.8 29.75C165.8 29.75 165.85 29.66 165.87 29.63C165.98 29.45 166.09 29.28 166.21 29.12C166.53 28.66 166.88 28.23 167.26 27.83C167.38 27.69 167.52 27.55 167.66 27.42C167.83 27.25 168.02 27.08 168.21 26.92C168.77 26.43 169.38 26 170.03 25.63C171.85 26.68 173.36 28.19 174.42 30.01C174.55 30.24 174.67 30.47 174.78 30.7C174.98 31.11 175.16 31.53 175.32 31.96C175.36 32.06 175.4 32.17 175.43 32.29C175.46 32.37 175.48 32.45 175.51 32.53C175.58 32.77 175.65 33.02 175.71 33.28C175.72 33.32 175.73 33.37 175.74 33.41C175.77 33.57 175.8 33.73 175.83 33.89C175.84 33.9 175.84 33.91 175.84 33.92C175.85 33.98 175.86 34.04 175.87 34.1C175.87 34.1 175.88 34.11 175.88 34.12Z" fill="#011959"/>
<path d="M164.02 12.01C161.71 12 159.56 11.35 157.74 10.23C156.03 9.18997 154.61 7.73997 153.62 5.99997C154.67 4.17997 156.19 2.65997 158.01 1.60997C159.19 0.929973 160.49 0.439973 161.88 0.199973C161.96 0.179973 162.04 0.159973 162.12 0.159973L168.99 7.02997C170.54 8.57997 171.57 10.44 172.1 12.42C172.37 13.43 172.51 14.48 172.51 15.52C170.34 13.36 167.34 12.01 164.02 12.01Z" fill="#011959"/>
<path d="M162.12 0.16C162.04 0.16 161.96 0.18 161.88 0.2C160.49 0.44 159.19 0.93 158.01 1.61C156.19 2.66 154.67 4.18 153.62 6C153.3 6.56 153.02 7.14 152.8 7.75C152.29 9.07 152.01 10.51 152.01 12.01C152.01 14.2 151.43 16.25 150.41 18.01C150.24 18.3 150.06 18.58 149.87 18.85C149.05 20.03 148.02 21.06 146.83 21.87C146.56 22.07 146.29 22.24 146 22.41C144.24 23.43 142.19 24.01 140 24.01C139.73 24.01 139.45 24 139.19 23.98C138.92 23.98 138.65 23.94 138.39 23.9C138.19 23.88 138 23.85 137.81 23.81C137.27 23.71 136.74 23.57 136.23 23.4C136.07 23.35 135.91 23.29 135.75 23.23C135.49 23.14 135.23 23.03 134.98 22.91C134.64 22.76 134.32 22.59 134 22.41C135.51 21.54 136.81 20.34 137.81 18.92C137.93 18.76 138.04 18.59 138.15 18.41C138.17 18.38 138.2 18.34 138.22 18.3C138.31 18.16 138.39 18.03 138.45 17.89C138.54 17.76 138.61 17.62 138.68 17.48C139.53 15.84 140 13.98 140 12.01C140 11.68 140.01 11.37 140.04 11.06C140.04 10.88 140.07 10.69 140.1 10.5C140.14 10.15 140.2 9.81 140.27 9.47C140.32 9.24 140.37 9.02 140.44 8.8C140.5 8.58 140.56 8.36 140.64 8.15C140.82 7.61 141.03 7.1 141.29 6.6C141.4 6.37 141.53 6.14 141.66 5.92C141.8 5.68 141.94 5.45 142.09 5.23C142.23 5.03 142.38 4.83 142.53 4.64C142.66 4.46 142.8 4.29 142.95 4.13C143.13 3.92 143.32 3.72 143.51 3.52C144.26 2.78 145.1 2.14 146.01 1.61C147.78 0.59 149.83 0 152.01 0H161.96L162.12 0.16Z" fill="#011959"/>
<path d="M162.12 0.16C162.04 0.16 161.96 0.18 161.88 0.2C160.49 0.44 159.19 0.93 158.01 1.61C156.19 2.66 154.67 4.18 153.62 6C153.3 6.56 153.02 7.14 152.8 7.75C152.29 9.07 152.01 10.51 152.01 12.01C152.01 14.2 151.43 16.25 150.41 18.01C150.24 18.3 150.06 18.58 149.87 18.85C149.05 20.03 148.02 21.06 146.83 21.87C146.56 22.07 146.29 22.24 146 22.41C144.24 23.43 142.19 24.01 140 24.01C139.73 24.01 139.45 24 139.19 23.98C138.92 23.98 138.65 23.94 138.39 23.9C138.19 23.88 138 23.85 137.81 23.81C137.27 23.71 136.74 23.57 136.23 23.4C136.07 23.35 135.91 23.29 135.75 23.23C135.49 23.14 135.23 23.03 134.98 22.91C134.64 22.76 134.32 22.59 134 22.41C135.51 21.54 136.81 20.34 137.81 18.92C137.93 18.76 138.04 18.59 138.15 18.41C138.17 18.38 138.2 18.34 138.22 18.3C138.31 18.16 138.39 18.03 138.45 17.89C138.54 17.76 138.61 17.62 138.68 17.48C139.53 15.84 140 13.98 140 12.01C140 11.68 140.01 11.37 140.04 11.06C140.04 10.88 140.07 10.69 140.1 10.5C140.14 10.15 140.2 9.81 140.27 9.47C140.32 9.24 140.37 9.02 140.44 8.8C140.5 8.58 140.56 8.36 140.64 8.15C140.82 7.61 141.03 7.1 141.29 6.6C141.4 6.37 141.53 6.14 141.66 5.92C141.8 5.68 141.94 5.45 142.09 5.23C142.23 5.03 142.38 4.83 142.53 4.64C142.66 4.46 142.8 4.29 142.95 4.13C143.13 3.92 143.32 3.72 143.51 3.52C144.26 2.78 145.1 2.14 146.01 1.61C147.78 0.59 149.83 0 152.01 0H161.96L162.12 0.16Z" fill="url(#paint3_linear_148_433)"/>
<path d="M143.51 3.52002C143.32 3.72002 143.13 3.92002 142.95 4.13002C142.8 4.29002 142.66 4.46002 142.53 4.64002C142.38 4.83002 142.23 5.03002 142.09 5.23002C141.94 5.45002 141.8 5.68002 141.66 5.92002C141.53 6.14002 141.4 6.37002 141.29 6.60002C141.03 7.10002 140.82 7.61002 140.64 8.15002C140.56 8.36002 140.5 8.58002 140.44 8.80002C140.37 9.02002 140.32 9.24002 140.27 9.47002C140.2 9.81002 140.14 10.15 140.1 10.5C140.07 10.69 140.05 10.88 140.04 11.06C140.01 11.37 140 11.68 140 12C140 13.98 139.53 15.84 138.68 17.48C138.61 17.62 138.54 17.76 138.45 17.89C138.39 18.03 138.31 18.16 138.22 18.29C138.2 18.34 138.17 18.38 138.15 18.41C138.04 18.59 137.93 18.76 137.81 18.92C136.81 20.34 135.51 21.54 134 22.41C132.18 21.35 130.66 19.83 129.6 18.01C128.92 16.84 128.44 15.54 128.2 14.16C128.18 14.08 128.16 14 128.16 13.91L135.24 6.83002C136.74 5.40002 138.53 4.43002 140.41 3.93002C141.42 3.66002 142.47 3.52002 143.51 3.52002Z" fill="#011959"/>
<path d="M184.83 72.01V78.13H166.32C166.26 78.13 166.2 78.13 166.14 78.15C165.72 78.15 165.31 78.19 164.91 78.27C163.39 78.56 162.03 79.3 160.99 80.35C159.67 81.67 158.83 83.47 158.79 85.48V78.13H158.78V72.01H184.84H184.83Z" fill="url(#paint4_linear_148_433)"/>
<path d="M234.41 78.26V96.03H228.29V85.67C228.29 83.59 229.13 81.71 230.5 80.34C231.54 79.29 232.9 78.55 234.41 78.26Z" fill="url(#paint5_linear_148_433)"/>
<path d="M125.25 96.03V72.01H119.13V96.03H125.25Z" fill="url(#paint6_linear_148_433)"/>
<path d="M67.0901 80.96C65.0101 80.96 63.1301 81.8 61.7601 83.17C60.3901 84.54 59.5601 86.41 59.5601 88.49V72.01H65.6801V80.96H67.0901Z" fill="url(#paint7_linear_148_433)"/>
<path d="M85.6101 72.01V79.55C85.6101 81.63 84.7601 83.51 83.4001 84.88C82.0801 86.21 80.2701 87.04 78.2601 87.08H65.6801V96.03H59.5601V88.49C59.5601 86.41 60.4001 84.53 61.7601 83.17C63.1201 81.81 65.0101 80.96 67.0901 80.96H79.4801V72.01H85.6101Z" fill="url(#paint8_linear_148_433)"/>
<path d="M85.61 79.55V96.03H79.48V87.08H78.26C80.27 87.04 82.08 86.21 83.4 84.88C84.76 83.51 85.61 81.63 85.61 79.55Z" fill="url(#paint9_linear_148_433)"/>
<path d="M26.06 88.5V88.52C26.06 89 26.01 89.45 25.91 89.91C25.26 93.39 22.21 96.03 18.53 96.03H7.53C3.85 96.03 0.800002 93.39 0.150002 89.91C0.0500015 89.45 0 89 0 88.52H6.12C6.14 89.29 6.77 89.91 7.53 89.91H18.54C20.61 89.9 22.49 89.07 23.85 87.7C24.5 87.05 25.03 86.29 25.4 85.44C25.64 85.96 25.81 86.51 25.91 87.09C26.01 87.54 26.06 88.02 26.06 88.5Z" fill="url(#paint10_linear_148_433)"/>
<path d="M25.3999 85.44C25.0299 86.29 24.4999 87.05 23.8499 87.7C22.4899 89.07 20.6099 89.9 18.5399 89.91C19.3099 89.9 19.9299 89.29 19.9399 88.52V88.5C19.9399 87.71 19.3099 87.09 18.5299 87.09H7.52991C5.05991 87.09 2.84991 85.88 1.48991 84.03C1.15991 83.59 0.879912 83.11 0.659912 82.6C1.02991 81.75 1.55991 80.99 2.20991 80.35C3.56991 78.98 5.44991 78.15 7.51991 78.14C6.74991 78.15 6.11991 78.77 6.11991 79.55C6.11991 80.33 6.75991 80.96 7.52991 80.96H18.5299C21.0199 80.96 23.2299 82.17 24.5799 84.03C24.9099 84.46 25.1899 84.93 25.3999 85.44Z" fill="url(#paint11_linear_148_433)"/>
<path opacity="0.5" d="M158.78 85.48V85.86C158.77 85.8 158.77 85.73 158.77 85.67C158.77 85.61 158.77 85.54 158.78 85.48Z" fill="#F02021"/>
<path d="M178.71 80.96V87.08H164.9V96.03H158.78V85.48C158.82 83.47 159.66 81.67 160.98 80.35C162.02 79.3 163.38 78.56 164.9 78.27C165.3 78.19 165.71 78.15 166.13 78.15C165.43 78.23 164.9 78.83 164.9 79.55C164.9 80.33 165.52 80.96 166.31 80.96H178.7H178.71Z" fill="url(#paint12_linear_148_433)"/>
<path d="M26.06 79.55H19.94C19.94 78.77 19.31 78.14 18.53 78.14H7.52C5.45 78.15 3.57 78.98 2.21 80.35C1.56 80.99 1.03 81.75 0.660004 82.6C0.430004 82.08 0.260002 81.53 0.150002 80.96C0.0500015 80.51 0 80.03 0 79.55C0 79.07 0.0500015 78.6 0.150002 78.14C0.800002 74.66 3.87 72.02 7.53 72.02H18.53C22.2 72.02 25.26 74.66 25.91 78.14C26.01 78.6 26.06 79.07 26.06 79.55Z" fill="url(#paint13_linear_148_433)"/>
<path d="M244.38 72.01V78.14H234.41V78.26C232.9 78.55 231.54 79.29 230.5 80.34C229.13 81.71 228.29 83.59 228.29 85.67V78.14H218.31V72.01H244.38Z" fill="url(#paint14_linear_148_433)"/>
<path opacity="0.5" d="M78.2599 87.08C78.1999 87.09 78.1299 87.09 78.0699 87.09C78.0099 87.09 77.9399 87.09 77.8799 87.08H78.2599Z" fill="#F02021"/>
<path d="M290.26 77.9C290.19 77.98 290.14 78.06 290.08 78.14H290.44C290.38 78.06 290.31 77.98 290.26 77.9Z" fill="black"/>
<path d="M303.85 79.55V88.49C303.85 88.97 303.8 89.45 303.7 89.91C303.05 93.39 300 96.03 296.32 96.03H285.32C281.63 96.03 278.58 93.39 277.93 89.91C277.83 89.45 277.78 88.97 277.78 88.49H283.9C283.9 89.28 284.54 89.91 285.32 89.91H296.32C296.39 89.91 296.45 89.91 296.51 89.89C296.54 89.9 296.57 89.9 296.59 89.89C296.6 89.89 296.6 89.88 296.6 89.88C297.24 89.75 297.73 89.18 297.73 88.49C297.73 87.73 297.12 87.11 296.38 87.09C298.43 87.07 300.3 86.23 301.64 84.88C302.69 83.83 303.43 82.48 303.72 80.97C303.8 80.5 303.85 80.03 303.85 79.55Z" fill="url(#paint15_linear_148_433)"/>
<path opacity="0.5" d="M296.38 87.09H296.31C296.25 87.09 296.18 87.09 296.12 87.08H296.32C296.32 87.08 296.36 87.08 296.38 87.09Z" fill="#F02021"/>
<path opacity="0.5" d="M290.44 78.14H290.08C290.14 78.06 290.19 77.98 290.26 77.9C290.31 77.98 290.38 78.06 290.44 78.14Z" fill="#F02021"/>
<path opacity="0.5" d="M296.38 87.09H296.31C296.25 87.09 296.18 87.09 296.12 87.08H296.32C296.32 87.08 296.36 87.08 296.38 87.09Z" fill="#F02021"/>
<path d="M303.85 79.55C303.85 80.03 303.8 80.5 303.72 80.96C303.43 82.48 302.69 83.83 301.64 84.88C300.3 86.23 298.43 87.07 296.38 87.09C296.36 87.08 296.34 87.08 296.32 87.08H285.32C282.83 87.08 280.63 85.88 279.26 84.03C278.94 83.59 278.66 83.11 278.43 82.61C278.81 81.76 279.34 81 279.99 80.35C281.35 78.98 283.24 78.14 285.32 78.14C284.54 78.14 283.9 78.76 283.9 79.55C283.9 80.34 284.54 80.96 285.32 80.96H296.33C298.4 80.95 300.28 80.12 301.64 78.75C301.91 78.49 302.15 78.2 302.37 77.9C302.7 77.47 302.97 77.01 303.19 76.51C303.25 76.63 303.3 76.75 303.35 76.87C303.43 77.1 303.51 77.34 303.57 77.58C303.62 77.75 303.66 77.94 303.7 78.12V78.14C303.75 78.37 303.79 78.6 303.81 78.83C303.84 79.07 303.85 79.31 303.85 79.55Z" fill="url(#paint16_linear_148_433)"/>
<path opacity="0.5" d="M290.44 78.14H290.08C290.14 78.06 290.19 77.98 290.26 77.9C290.31 77.98 290.38 78.06 290.44 78.14Z" fill="#F02021"/>
<path opacity="0.5" d="M297 72.05C296.78 72.03 296.55 72.02 296.32 72.02H296.12C296.18 72.01 296.25 72.01 296.31 72.01C296.54 72.01 296.77 72.02 297 72.05Z" fill="#F02021"/>
<path opacity="0.5" d="M301.61 74.2C301.31 73.9 300.98 73.63 300.63 73.38C300.98 73.61 301.31 73.89 301.61 74.2Z" fill="#F02021"/>
<path opacity="0.5" d="M302 74.61C301.87 74.47 301.74 74.33 301.61 74.2C301.62 74.2 301.63 74.21 301.64 74.22C301.77 74.35 301.89 74.48 302 74.61Z" fill="#F02021"/>
<path opacity="0.5" d="M303.35 76.87C303.3 76.75 303.25 76.63 303.19 76.51C303.16 76.43 303.13 76.35 303.09 76.28C303.14 76.34 303.17 76.42 303.2 76.49C303.26 76.61 303.31 76.74 303.35 76.87Z" fill="#F02021"/>
<path d="M303.19 76.51C302.97 77.01 302.7 77.47 302.37 77.9C302.15 78.2 301.91 78.49 301.64 78.75C300.28 80.12 298.4 80.95 296.33 80.96C297.1 80.95 297.73 80.32 297.73 79.55C297.73 78.78 297.09 78.14 296.32 78.14H290.44C290.38 78.06 290.31 77.98 290.26 77.9C290.19 77.98 290.14 78.06 290.08 78.14H285.32C283.24 78.14 281.35 78.98 279.99 80.35C279.34 81 278.81 81.76 278.43 82.61C278.2 82.09 278.03 81.54 277.93 80.96C277.83 80.51 277.78 80.03 277.78 79.55C277.78 79.07 277.83 78.59 277.93 78.14C278.58 74.65 281.64 72.02 285.32 72.02H296.32C296.55 72.02 296.78 72.03 297 72.05C297.22 72.07 297.44 72.1 297.66 72.14C297.88 72.18 298.1 72.23 298.31 72.29C298.52 72.34 298.73 72.41 298.93 72.49C299.13 72.56 299.33 72.65 299.53 72.74C299.72 72.83 299.9 72.93 300.09 73.04H300.12C300.29 73.15 300.47 73.26 300.63 73.38C300.98 73.63 301.31 73.9 301.61 74.2C301.74 74.33 301.87 74.47 302 74.61C302.03 74.63 302.05 74.66 302.06 74.68C302.15 74.79 302.23 74.9 302.32 75.01C302.38 75.08 302.44 75.15 302.48 75.23C302.57 75.36 302.65 75.49 302.73 75.62C302.77 75.66 302.8 75.7 302.81 75.75C302.91 75.92 303 76.1 303.09 76.28C303.13 76.35 303.16 76.43 303.19 76.51Z" fill="url(#paint17_linear_148_433)"/>
<path opacity="0.5" d="M297 72.05C296.78 72.03 296.55 72.02 296.32 72.02H296.12C296.18 72.01 296.25 72.01 296.31 72.01C296.54 72.01 296.77 72.02 297 72.05Z" fill="#F02021"/>
<path opacity="0.5" d="M301.61 74.2C301.31 73.9 300.98 73.63 300.63 73.38C300.98 73.61 301.31 73.89 301.61 74.2Z" fill="#F02021"/>
<path opacity="0.5" d="M302 74.61C301.87 74.47 301.74 74.33 301.61 74.2C301.62 74.2 301.63 74.21 301.64 74.22C301.77 74.35 301.89 74.48 302 74.61Z" fill="#F02021"/>
<path opacity="0.5" d="M303.2 76.49C303.2 76.49 303.2 76.5 303.19 76.51C303.16 76.43 303.13 76.35 303.09 76.28C303.14 76.34 303.17 76.42 303.2 76.49Z" fill="#F02021"/>
<defs>
<linearGradient id="paint0_linear_148_433" x1="152.01" y1="20.06" x2="176.03" y2="20.06" gradientUnits="userSpaceOnUse">
<stop stop-color="#3E43DB"/>
<stop offset="0.5" stop-color="#6F6AD6"/>
<stop offset="1" stop-color="#41DDFF"/>
</linearGradient>
<linearGradient id="paint1_linear_148_433" x1="152.01" y1="27.975" x2="128" y2="27.975" gradientUnits="userSpaceOnUse">
<stop stop-color="#3E43DB"/>
<stop offset="0.5" stop-color="#6F6AD6"/>
<stop offset="1" stop-color="#41DDFF"/>
</linearGradient>
<linearGradient id="paint2_linear_148_433" x1="155.975" y1="24.02" x2="155.975" y2="48.04" gradientUnits="userSpaceOnUse">
<stop stop-color="#3E43DB"/>
<stop offset="0.5" stop-color="#6F6AD6"/>
<stop offset="1" stop-color="#41DDFF"/>
</linearGradient>
<linearGradient id="paint3_linear_148_433" x1="148.06" y1="24.01" x2="148.06" y2="0" gradientUnits="userSpaceOnUse">
<stop stop-color="#3E43DB"/>
<stop offset="0.5" stop-color="#6F6AD6"/>
<stop offset="1" stop-color="#41DDFF"/>
</linearGradient>
<linearGradient id="paint4_linear_148_433" x1="158.77" y1="78.74" x2="184.83" y2="78.74" gradientUnits="userSpaceOnUse">
<stop stop-color="#1F1F1F"/>
<stop offset="1" stop-color="#78797D"/>
</linearGradient>
<linearGradient id="paint5_linear_148_433" x1="231.35" y1="96.03" x2="231.35" y2="78.26" gradientUnits="userSpaceOnUse">
<stop stop-color="#78797D"/>
<stop offset="1" stop-color="#1F1F1F"/>
</linearGradient>
<linearGradient id="paint6_linear_148_433" x1="122.18" y1="72.01" x2="122.18" y2="96.03" gradientUnits="userSpaceOnUse">
<stop stop-color="#1F1F1F"/>
<stop offset="1" stop-color="#78797D"/>
</linearGradient>
<linearGradient id="paint7_linear_148_433" x1="63.3301" y1="88.49" x2="63.3301" y2="72.01" gradientUnits="userSpaceOnUse">
<stop stop-color="#78797D"/>
<stop offset="1" stop-color="#1F1F1F"/>
</linearGradient>
<linearGradient id="paint8_linear_148_433" x1="59.5601" y1="84.02" x2="85.6101" y2="84.02" gradientUnits="userSpaceOnUse">
<stop stop-color="#1F1F1F"/>
<stop offset="1" stop-color="#78797D"/>
</linearGradient>
<linearGradient id="paint9_linear_148_433" x1="81.94" y1="60" x2="81.94" y2="79.55" gradientUnits="userSpaceOnUse">
<stop stop-color="#78797D"/>
<stop offset="1" stop-color="#1F1F1F"/>
</linearGradient>
<linearGradient id="paint10_linear_148_433" x1="0" y1="90.73" x2="26.06" y2="90.73" gradientUnits="userSpaceOnUse">
<stop stop-color="#78797D"/>
<stop offset="1" stop-color="#1F1F1F"/>
</linearGradient>
<linearGradient id="paint11_linear_148_433" x1="0.659912" y1="84.02" x2="25.3999" y2="84.02" gradientUnits="userSpaceOnUse">
<stop stop-color="#1F1F1F"/>
<stop offset="1" stop-color="#78797D"/>
</linearGradient>
<linearGradient id="paint12_linear_148_433" x1="158.78" y1="87.09" x2="178.71" y2="87.09" gradientUnits="userSpaceOnUse">
<stop stop-color="#78797D"/>
<stop offset="1" stop-color="#1F1F1F"/>
</linearGradient>
<linearGradient id="paint13_linear_148_433" x1="0" y1="77.31" x2="26.06" y2="77.31" gradientUnits="userSpaceOnUse">
<stop stop-color="#78797D"/>
<stop offset="1" stop-color="#1F1F1F"/>
</linearGradient>
<linearGradient id="paint14_linear_148_433" x1="218.31" y1="78.84" x2="244.38" y2="78.84" gradientUnits="userSpaceOnUse">
<stop stop-color="#1F1F1F"/>
<stop offset="1" stop-color="#78797D"/>
</linearGradient>
<linearGradient id="paint15_linear_148_433" x1="277.78" y1="87.79" x2="303.85" y2="87.79" gradientUnits="userSpaceOnUse">
<stop stop-color="#78797D"/>
<stop offset="1" stop-color="#1F1F1F"/>
</linearGradient>
<linearGradient id="paint16_linear_148_433" x1="278.43" y1="81.8" x2="303.85" y2="81.8" gradientUnits="userSpaceOnUse">
<stop stop-color="#1F1F1F"/>
<stop offset="1" stop-color="#78797D"/>
</linearGradient>
<linearGradient id="paint17_linear_148_433" x1="277.78" y1="77.31" x2="303.19" y2="77.31" gradientUnits="userSpaceOnUse">
<stop stop-color="#78797D"/>
<stop offset="1" stop-color="#1F1F1F"/>
</linearGradient>
</defs>
</svg>
