<svg width="387" height="48" viewBox="0 0 387 48" fill="none" xmlns="http://www.w3.org/2000/svg">
<g clip-path="url(#clip0_148_1022)">
<path d="M47.966 23.9828C47.966 21.7748 47.3885 19.7365 46.3694 17.9701C46.0297 17.3586 45.622 16.7811 45.1465 16.2376C44.9426 15.9658 44.7048 15.728 44.4331 15.4563C42.259 13.2822 39.2696 11.9573 35.9405 11.9573C33.6305 11.9573 31.4904 11.3119 29.656 10.1909C29.2823 9.9531 28.9087 9.71531 28.569 9.44354C28.4671 9.3756 28.3651 9.27369 28.2293 9.17178C28.0934 9.06987 27.9915 8.96796 27.8556 8.86605C27.6857 8.73017 27.5499 8.59429 27.38 8.42444C27.1762 8.22061 27.0063 8.01679 26.8025 7.779C26.6327 7.57518 26.4968 7.40533 26.3269 7.20151C26.191 7.03165 26.0552 6.82783 25.9193 6.65798C25.7834 6.45416 25.6136 6.21637 25.5116 5.97858C25.3758 6.21637 25.2399 6.45416 25.138 6.69195C25.138 6.72592 25.104 6.79386 25.07 6.82783C25.0021 6.96371 24.9341 7.13357 24.8662 7.26945C24.7983 7.40533 24.7303 7.57518 24.6964 7.71106C24.1868 9.0359 23.915 10.4627 23.915 11.9573C23.915 12.9425 24.0509 13.9276 24.2887 14.8788C24.5605 15.9658 24.9681 17.0189 25.5116 17.9701C25.6815 18.2758 25.8513 18.5476 26.0552 18.8193C26.8705 20.0083 27.8896 21.0274 29.0785 21.8427C29.3503 22.0465 29.622 22.2164 29.9278 22.3862C30.8789 22.9297 31.932 23.3714 33.0191 23.6091C33.9702 23.3714 34.9214 23.2694 35.9065 23.2694C36.0424 23.2694 36.2123 23.2694 36.3482 23.2694C36.4501 23.2694 36.586 23.2694 36.7218 23.2694C36.9596 23.2694 37.1974 23.2694 37.4352 23.3374C37.5032 23.3374 37.5711 23.3374 37.639 23.3374H37.8429C37.8429 23.3374 38.1826 23.4053 38.3864 23.4733C38.5223 23.4733 38.6921 23.5072 38.862 23.5752C39.0658 23.6092 39.2356 23.6771 39.3715 23.7111C39.5753 23.779 39.7452 23.8469 39.915 23.8809L40.4246 24.0508C40.4246 24.0508 40.7303 24.1527 40.9002 24.2206C40.9681 24.2206 41.0361 24.2546 41.104 24.2886C41.2739 24.3565 41.4437 24.4244 41.5796 24.5263C41.7155 24.5603 41.8174 24.6283 41.9533 24.6962L42.293 24.9C42.293 24.9 42.3949 24.968 42.4288 25.0019C42.7346 25.1718 43.0063 25.3756 43.2781 25.5794C43.6178 25.8172 43.9575 26.089 44.2972 26.3607C45.3503 27.2779 46.2335 28.331 46.9129 29.5539L47.0148 29.7238C47.0148 29.7238 47.1507 29.9616 47.2186 30.0975C47.2186 30.1654 47.2866 30.2334 47.3206 30.3013C47.5244 30.7089 47.6942 31.1845 47.8641 31.6261C47.8641 31.6601 47.8641 31.728 47.8981 31.762V23.9489L47.966 23.9828Z" fill="#1F1F1F"/>
<path d="M4.6201 33.4607C4.82392 33.6305 5.06171 33.7664 5.26553 33.9362C5.46935 34.0721 5.67317 34.174 5.877 34.3099C6.69228 34.7855 7.60948 35.1931 8.56065 35.4649C8.69653 35.4989 8.83241 35.5328 8.96829 35.5668C9.34196 35.6687 9.74961 35.7367 10.1233 35.8046C10.2252 35.8046 10.3271 35.8046 10.463 35.8386C10.6668 35.8386 10.8367 35.8725 11.0065 35.9065C11.3122 35.9065 11.618 35.9405 11.9577 35.9405C13.1806 35.9405 14.3356 36.1443 15.4566 36.484C15.6604 36.518 15.8303 36.5859 16.0341 36.6539C16.5776 36.8577 17.1212 37.0955 17.6307 37.3672C17.8345 37.4691 18.0384 37.5711 18.2422 37.7069C18.2422 37.7069 18.3101 37.7409 18.3441 37.7749C18.5139 37.8768 18.6838 37.9787 18.8536 38.1146C19.3292 38.4203 19.7369 38.794 20.1445 39.1677C20.2804 39.3035 20.4163 39.4394 20.5522 39.5753C20.722 39.7452 20.8919 39.949 21.0617 40.1188C21.3674 40.4925 21.6732 40.8322 21.911 41.2398C22.0468 41.4437 22.2167 41.6815 22.3526 41.9193C22.4885 41.7154 22.5904 41.4776 22.7263 41.2398C22.7263 41.2398 22.7263 41.2059 22.7263 41.1719C22.7942 41.07 22.8282 40.9681 22.8621 40.8322C22.964 40.6284 23.032 40.4585 23.0999 40.2547C23.0999 40.2547 23.0999 40.1868 23.1339 40.1528C23.1679 40.0169 23.2358 39.915 23.2698 39.7791C23.3717 39.5413 23.4396 39.3035 23.5076 39.0318C23.5755 38.76 23.6434 38.5222 23.6774 38.2844C23.7793 37.7749 23.8473 37.2314 23.8812 36.6878C23.8812 36.4161 23.8812 36.1443 23.8812 35.8725C23.8812 34.8874 23.7454 33.9023 23.5076 32.9511C23.2358 31.8301 22.8282 30.811 22.2507 29.8598C22.0808 29.588 21.911 29.3163 21.7071 29.0445C20.8919 27.8556 19.8727 26.8364 18.6838 26.0212C18.412 25.8173 18.1403 25.6475 17.8685 25.4776C16.9173 24.9341 15.8643 24.4925 14.7772 24.2207C13.826 24.4246 12.8749 24.5604 11.8897 24.5604C11.7539 24.5604 11.584 24.5604 11.4481 24.5604C11.3122 24.5604 11.1424 24.5604 11.0065 24.5604C10.7347 24.5604 10.429 24.5265 10.1573 24.4925C9.95343 24.4925 9.74961 24.4246 9.54579 24.3906C9.00226 24.2887 8.45874 24.1528 7.88124 23.949C7.84727 23.949 7.8133 23.949 7.74536 23.915C7.64345 23.915 7.57551 23.8471 7.4736 23.8131C7.43963 23.8131 7.40566 23.8131 7.37169 23.7791C7.23581 23.7452 7.09993 23.6772 6.96404 23.6093C6.82816 23.5413 6.69228 23.4734 6.5564 23.4054C6.35258 23.3035 6.11479 23.2016 5.877 23.0657C5.74112 22.9978 5.6392 22.9299 5.53729 22.8619C5.53729 22.8619 5.46935 22.828 5.43538 22.794C5.12965 22.6241 4.82392 22.4203 4.51819 22.2165C3.02349 21.1634 1.76659 19.8046 0.849396 18.208C0.747485 18.0381 0.645574 17.8683 0.577634 17.6984C0.305871 17.1549 0.0680795 16.6114 -0.135742 16.0679V24.1868C-0.101772 26.259 0.509693 28.1953 1.46086 29.8938C1.80056 30.5052 2.20821 31.0488 2.64982 31.5923C2.85364 31.864 3.1254 32.1358 3.3632 32.3736C3.56702 32.5435 3.73687 32.7473 3.94069 32.9171C4.11054 33.087 4.31436 33.2229 4.48422 33.3587L4.6201 33.4607Z" fill="#1F1F1F"/>
<path d="M21.9449 42.6666L21.7411 42.3269L21.5372 41.9532C21.4014 41.7494 21.2994 41.5796 21.1636 41.4097C21.0617 41.2738 20.9937 41.1719 20.8918 41.036C20.7559 40.8662 20.654 40.7303 20.5181 40.5944C20.3823 40.4246 20.2124 40.2207 20.0425 40.0849C19.9067 39.949 19.8048 39.8131 19.6689 39.7112C19.2612 39.3375 18.8536 38.9978 18.4459 38.7261C18.2761 38.5902 18.1402 38.5222 17.9704 38.4203L17.8345 38.3524C17.6307 38.2165 17.4608 38.1146 17.257 38.0127C17.0192 37.8768 16.7814 37.7409 16.5096 37.639C16.2718 37.5371 16.0001 37.4352 15.7283 37.3333C15.5585 37.2653 15.3886 37.2314 15.2188 37.1634C14.1317 36.8237 13.0447 36.6539 11.8897 36.6539H11.1763C11.1763 36.6539 10.9725 36.6199 10.8706 36.6199C10.7007 36.6199 10.4969 36.6199 10.2591 36.552C10.1572 36.552 10.0213 36.552 9.91941 36.518C9.54573 36.484 9.17206 36.3821 8.79839 36.2802H8.59456L8.52662 36.2123C8.52662 36.2123 8.39074 36.1783 8.35677 36.1783C7.26972 35.8725 6.31856 35.4309 5.4693 34.9214L4.85783 34.5477C4.65401 34.4118 4.45019 34.242 4.28034 34.1401C4.24637 34.1061 4.17843 34.0721 4.14446 34.0382C3.94064 33.8683 3.73682 33.7324 3.53299 33.5286C3.53299 33.5286 3.53299 33.5286 3.49902 33.4946C3.53299 34.208 3.66887 34.8874 3.8727 35.6008C4.41622 37.5711 5.43533 39.4394 6.96399 40.9681L13.1126 47.1167L13.826 47.8301C13.826 47.8301 13.9958 47.8301 14.0638 47.7961C15.4566 47.5583 16.7474 47.0827 17.9364 46.4033C19.533 45.4861 20.8918 44.2292 21.8769 42.7006L21.9449 42.6666Z" fill="#1F1F1F"/>
<path d="M33.9364 42.7004C34.0723 42.4966 34.2082 42.2928 34.3101 42.089C34.412 41.9191 34.5139 41.7153 34.6158 41.5454C34.9216 41.0019 35.1594 40.3905 35.3292 39.813C35.3972 39.6431 35.4651 39.4733 35.4991 39.3034C35.4991 39.2694 35.4991 39.2355 35.4991 39.1675C35.533 38.9977 35.601 38.8278 35.635 38.658C35.7029 38.3522 35.7708 38.0805 35.8048 37.7747C35.8048 37.6728 35.8048 37.5709 35.8388 37.469C35.8388 37.2992 35.8728 37.1293 35.8728 36.9595C35.8728 36.6537 35.9067 36.314 35.9067 36.0083C35.9067 34.7514 36.1105 33.5285 36.4502 32.4074C36.4842 32.2376 36.5522 32.1017 36.5861 31.9319C36.79 31.3883 37.0277 30.8448 37.2995 30.3353C37.4014 30.1314 37.5373 29.9276 37.6392 29.7238C37.6392 29.7238 37.6732 29.6219 37.7071 29.5879C37.8091 29.4181 37.911 29.2482 38.0468 29.0784C38.3526 28.6028 38.7263 28.1951 39.0999 27.7875C39.2358 27.6516 39.3717 27.5157 39.5076 27.3798C39.6774 27.21 39.8812 27.0401 40.0511 26.8703C40.4248 26.5646 40.7645 26.2588 41.1721 26.021C41.3759 25.8851 41.6137 25.7153 41.8515 25.5794C41.6477 25.4435 41.4099 25.3416 41.1721 25.2057C41.1721 25.2057 41.1381 25.2057 41.1042 25.2057C40.9683 25.1378 40.8324 25.0699 40.6965 25.0019C40.6626 25.0019 40.5946 24.968 40.5606 24.934C40.4248 24.866 40.2549 24.7981 40.119 24.7641C39.9492 24.6962 39.7793 24.6282 39.6095 24.5943C39.4396 24.5263 39.2698 24.4924 39.0999 24.4244C38.9301 24.3905 38.7602 24.3225 38.5904 24.2885C38.4545 24.2546 38.3186 24.2206 38.1827 24.1866C38.0129 24.1527 37.8091 24.1187 37.6392 24.0847C37.6052 24.0847 37.5713 24.0847 37.5373 24.0847C37.5033 24.0847 37.4354 24.0847 37.4014 24.0847H37.3674C37.1636 24.0508 36.9258 24.0168 36.688 24.0168C36.5522 24.0168 36.4163 24.0168 36.2804 24.0168C36.1445 24.0168 36.0086 24.0168 35.8728 24.0168C34.8876 24.0168 33.9025 24.1527 32.9853 24.3905C31.8643 24.6622 30.8452 25.1038 29.894 25.6474C29.6222 25.8172 29.3505 25.9871 29.0787 26.1909C27.8897 27.0062 26.8706 28.0253 26.0553 29.2142C25.8515 29.486 25.6817 29.7578 25.5118 30.0295C24.9683 30.9807 24.5267 32.0338 24.2549 33.1208C24.4927 34.072 24.5946 35.0232 24.5946 36.0083C24.5946 36.314 24.5946 36.5858 24.5946 36.8915C24.5946 37.435 24.4927 38.0125 24.3908 38.5561C24.3568 38.8278 24.2549 39.0996 24.187 39.3713C24.119 39.6431 24.0511 39.9149 23.9492 40.1866C23.9152 40.3225 23.8812 40.4244 23.8133 40.5263L23.7454 40.6622C23.6774 40.866 23.5755 41.0699 23.4736 41.3077C23.4736 41.4096 23.3717 41.5454 23.3038 41.7153C23.2698 41.8172 23.2018 41.9531 23.1339 42.055C23.066 42.1569 22.998 42.2928 22.9301 42.4287C22.7942 42.6665 22.6243 42.9043 22.4885 43.142C22.4205 43.244 22.3526 43.3459 22.2846 43.4478C22.2167 43.5837 22.1148 43.6856 22.0129 43.8215C20.9938 45.1463 19.7369 46.2673 18.2761 47.0826C18.1063 47.1845 17.9364 47.2864 17.7666 47.3883C17.2231 47.6601 16.6795 47.8979 16.1021 48.1017H23.9492C26.1233 48.1017 28.1615 47.5242 29.928 46.5051C30.5394 46.1654 31.1169 45.7578 31.6604 45.2822C31.9322 45.0784 32.204 44.8406 32.4418 44.5688C32.6116 44.399 32.7815 44.2291 32.9173 44.0253C33.0872 43.8215 33.257 43.6516 33.3929 43.4478C33.5628 43.244 33.6987 43.0401 33.8345 42.8363C33.8345 42.8363 33.8345 42.8363 33.8345 42.8023L33.9364 42.7004Z" fill="#1F1F1F"/>
<path d="M47.796 33.9022C47.796 33.7324 47.7281 33.5965 47.6941 33.4267C47.6941 33.3927 47.6941 33.3248 47.6941 33.2908C47.6262 33.019 47.5583 32.7812 47.4903 32.5434C47.4903 32.4755 47.4563 32.3736 47.4224 32.3056C47.4224 32.1698 47.3544 32.0679 47.3205 31.9659C47.1506 31.5243 46.9808 31.1167 46.7769 30.709C46.675 30.4713 46.5391 30.2335 46.4033 30.0296C46.2674 29.8258 46.1655 29.622 46.0296 29.4182C45.9956 29.3502 45.9617 29.2823 45.8937 29.2144C45.7578 29.0445 45.6559 28.8746 45.52 28.7048C45.4181 28.5689 45.2822 28.3991 45.1464 28.2632C45.1464 28.2632 44.9425 28.0254 44.8406 27.8895C44.7047 27.7536 44.5689 27.6177 44.433 27.4819C44.2971 27.346 44.1273 27.1761 43.9914 27.0742C43.8895 26.9723 43.7876 26.8704 43.6517 26.7685C43.5498 26.6666 43.4478 26.5647 43.312 26.4967C43.1081 26.3269 42.9043 26.191 42.7005 26.0551L42.3948 26.2589L42.0211 26.4628C41.8512 26.5986 41.6814 26.7006 41.5115 26.8364C41.4096 26.9044 41.3417 26.9723 41.2398 27.0403C41.036 27.1761 40.8661 27.346 40.6963 27.4819C40.5264 27.6177 40.3226 27.7876 40.1867 27.9574C40.0508 28.0933 39.9149 28.1952 39.813 28.3311C39.4394 28.7388 39.0997 29.1464 38.8279 29.5541C38.692 29.7239 38.6241 29.8598 38.5222 30.0296L38.4542 30.1655C38.3523 30.3693 38.2504 30.5392 38.1145 30.743C37.8428 31.2186 37.6389 31.7281 37.4351 32.2377L37.2992 32.6793C36.9595 33.7664 36.7557 34.8874 36.7557 36.0763C36.7557 36.416 36.7557 36.7558 36.7217 37.0955C36.7217 37.2653 36.7217 37.4352 36.6878 37.639V37.9447C36.5859 38.3184 36.5179 38.6241 36.45 38.9298C36.45 39.0657 36.382 39.2016 36.3481 39.3715C36.3481 39.4394 36.3481 39.5073 36.2801 39.5753C36.2462 39.7451 36.1782 39.915 36.1103 40.0848C35.9064 40.7303 35.6347 41.3417 35.329 41.9192C35.261 42.0551 35.1931 42.191 35.0912 42.3608L34.9893 42.5647C34.8534 42.7685 34.7175 42.9723 34.5816 43.1761L34.5137 43.2441C34.5137 43.2441 34.3098 43.5838 34.174 43.7197C34.14 43.7536 34.106 43.8216 34.0721 43.8555C33.9022 44.0594 33.7324 44.2632 33.5625 44.467C34.2759 44.433 34.9893 44.2972 35.6687 44.1273C37.6389 43.5838 39.4733 42.5647 41.036 41.002L47.1846 34.8534L47.898 34.14C47.898 34.0721 47.898 34.0042 47.898 33.9702L47.796 33.9022Z" fill="#1F1F1F"/>
<path d="M28.637 2.51364C28.4332 2.6835 28.1954 2.85335 27.9915 3.05717C27.6518 3.3629 27.3461 3.66863 27.0404 4.00834C26.8366 4.21216 26.6667 4.41598 26.4969 4.65377C26.327 4.89156 26.1572 5.12936 25.9873 5.36715L26.1572 5.67288C26.1572 5.67288 26.293 5.91067 26.361 6.04655C26.361 6.04655 26.3949 6.11449 26.4289 6.14846C26.4969 6.28434 26.5648 6.38626 26.6667 6.48817C26.8026 6.69199 26.9724 6.89581 27.1423 7.09963C27.2782 7.26948 27.4141 7.43933 27.5499 7.60919C27.6518 7.7111 27.7538 7.81301 27.8557 7.91492L28.1954 8.25462C28.1954 8.25462 28.3652 8.42447 28.4671 8.49241C28.603 8.62829 28.7389 8.7302 28.8748 8.83212C29.0446 8.968 29.2485 9.13785 29.4183 9.23976C29.6221 9.37564 29.792 9.51152 29.9958 9.61343C31.7623 10.7005 33.8005 11.278 35.9066 11.278H36.62C36.9257 11.3119 37.1975 11.3459 37.4693 11.3799C37.5032 11.3799 37.5712 11.3799 37.6051 11.3799C37.9109 11.4139 38.1826 11.4818 38.4544 11.5158C38.7601 11.5837 39.0319 11.6516 39.3376 11.7196C39.3376 11.7196 39.4056 11.7196 39.4395 11.7196C39.7113 11.7875 39.9831 11.8894 40.2548 11.9914C40.5266 12.0933 40.7983 12.1952 41.0701 12.2971H41.138C41.4098 12.4669 41.6816 12.6028 41.9533 12.7387C42.2251 12.8746 42.4629 13.0444 42.7346 13.1803C43.0064 13.3502 43.2782 13.554 43.5499 13.7238C43.8217 13.9277 44.0935 14.1315 44.3313 14.3693C44.2633 13.6559 44.1614 12.9765 43.9576 12.2971C43.4141 10.3268 42.3949 8.45844 40.8663 6.89581L34.7177 0.747189L34.0043 0.0338135C34.0043 0.0338135 33.8344 0.0338135 33.7665 0.0677838C32.3737 0.305576 31.0828 0.78116 29.8939 1.46057C29.4183 1.73233 28.9767 2.03806 28.569 2.34379L28.637 2.51364Z" fill="#1F1F1F"/>
<path d="M13.6563 5.91075C13.5204 6.11457 13.3845 6.35236 13.2826 6.59015C13.0109 7.09971 12.807 7.60926 12.6372 8.15279C12.5692 8.35661 12.5013 8.5944 12.4334 8.79822C12.3654 9.00204 12.2975 9.23984 12.2635 9.47763C12.1956 9.81733 12.1276 10.157 12.0937 10.4967C12.0937 10.7006 12.0597 10.8704 12.0257 11.0403C12.0257 11.346 11.9917 11.6517 11.9917 11.9914C11.9917 13.9617 11.5162 15.8301 10.6669 17.4606C10.599 17.5965 10.531 17.7324 10.4291 17.8683C10.3612 18.0042 10.2932 18.1401 10.1913 18.2759C10.1913 18.2759 10.1573 18.3778 10.1234 18.4118C10.0215 18.5817 9.91956 18.7515 9.78368 18.9214C9.41 19.4649 9.00236 19.9405 8.52677 20.4161C8.32295 20.6199 8.11913 20.7897 7.91531 20.9936C7.50767 21.3672 7.10002 21.673 6.65841 21.9787C6.45459 22.1146 6.2168 22.2844 5.979 22.4203C6.2168 22.5562 6.45459 22.6921 6.69238 22.794C6.76032 22.8279 6.86223 22.8619 6.96414 22.9299C7.20193 23.0657 7.4737 23.1677 7.74546 23.2356C7.91531 23.3035 8.05119 23.3715 8.22104 23.4054C8.7306 23.5753 9.27412 23.7112 9.78368 23.8131C9.9875 23.8471 10.1573 23.881 10.3612 23.915C10.6329 23.949 10.9047 23.9829 11.1765 23.9829C11.4482 23.9829 11.72 23.9829 11.9917 23.9829C12.9769 23.9829 13.962 23.8471 14.9132 23.6093C16.0002 23.3375 17.0533 22.9299 18.0045 22.3863C18.3102 22.2165 18.548 22.0466 18.8198 21.8428C20.0087 21.0275 21.0278 20.0084 21.8431 18.8195C22.0469 18.5477 22.2168 18.2759 22.3866 17.9702C22.9302 17.019 23.3718 15.9999 23.6096 14.8789C23.3718 13.9277 23.2699 12.9426 23.2699 11.9575C23.2699 10.3948 23.5416 8.90013 24.0852 7.43941C24.255 6.96383 24.4928 6.45427 24.7646 5.94472C24.7646 5.94472 24.7646 5.87678 24.7985 5.84281C24.7985 5.84281 24.8325 5.77487 24.8325 5.7409C24.8325 5.67296 24.9004 5.60502 24.9344 5.57105C25.1382 5.23134 25.3421 4.89164 25.5799 4.55194C26.6329 3.05725 27.9917 1.83432 29.5544 0.917119C29.7242 0.815208 29.8941 0.713297 30.0639 0.611386C30.6075 0.339624 31.151 0.101832 31.6945 -0.10199H23.8813C21.7072 -0.10199 19.669 0.475505 17.9026 1.49461C17.2911 1.83432 16.7136 2.24196 16.2041 2.68357C15.9323 2.88739 15.6605 3.15916 15.4227 3.39695C15.2189 3.60077 15.0491 3.80459 14.8792 4.00841C14.7433 4.17826 14.5735 4.34812 14.4716 4.51797C14.3357 4.72179 14.1658 4.89164 14.03 5.09546C13.8941 5.29928 13.7242 5.53708 13.5883 5.77487L13.6563 5.91075Z" fill="#1F1F1F"/>
<path d="M1.59667 18.0042C2.07226 18.8195 2.64975 19.5668 3.29519 20.2462C3.43107 20.3821 3.56695 20.552 3.70283 20.6539C3.83871 20.7898 3.94062 20.8917 4.0765 20.9936C4.28033 21.1634 4.48415 21.3333 4.68797 21.5031C4.89179 21.673 5.09561 21.8089 5.29943 21.9448L5.63914 21.7409C5.63914 21.7409 5.87693 21.605 5.97884 21.5371C5.97884 21.5371 6.08075 21.4692 6.11472 21.4352C6.28457 21.3333 6.45442 21.2314 6.62427 21.0955C6.76016 20.9936 6.93001 20.8917 7.06589 20.7558C7.23574 20.6199 7.40559 20.484 7.57544 20.3142C7.71132 20.1783 7.88117 20.0424 8.01706 19.8726C8.085 19.8046 8.18691 19.7027 8.25485 19.6348C8.35676 19.5329 8.4247 19.4649 8.49264 19.363C8.73043 19.0912 8.96822 18.7855 9.20602 18.4798C9.30793 18.3439 9.40984 18.208 9.47778 18.0721L9.61366 17.8683C9.6816 17.7664 9.74954 17.6985 9.78351 17.5966L9.85145 17.4607C9.85145 17.4607 9.98733 17.2569 10.0213 17.1549C10.8366 15.5583 11.2782 13.8259 11.2782 11.9915C11.2782 11.6518 11.2782 11.3121 11.3122 10.9724C11.3122 10.8025 11.3122 10.5987 11.3801 10.3609C11.3801 10.0212 11.482 9.64751 11.55 9.30781C11.6179 9.03605 11.6519 8.79826 11.7538 8.56046C11.8217 8.35664 11.8897 8.08488 11.9576 7.88106C12.1614 7.30356 12.3653 6.76004 12.637 6.25049C12.7389 6.01269 12.8748 5.7749 13.0107 5.53711C13.1466 5.26535 13.3164 5.02756 13.4863 4.78976C13.6222 4.61991 13.7241 4.48403 13.826 4.31418C13.8599 4.28021 13.8939 4.21227 13.9619 4.1783C14.0977 4.00845 14.2676 3.80463 14.4374 3.63477C14.4374 3.63477 14.4714 3.6008 14.5054 3.56683C13.792 3.63477 13.1126 3.73668 12.4332 3.94051C10.5648 4.45006 8.7644 5.40123 7.26971 6.82798L0.883298 13.1804L0.169922 13.8938C0.169922 13.8938 0.169922 14.0636 0.203892 14.1316C0.441684 15.5244 0.917268 16.8152 1.59667 17.9702V18.0042Z" fill="#1F1F1F"/>
<path d="M207.694 36.0087V12.0256H201.58V36.0087H207.694Z" fill="#1F1F1F"/>
<path d="M247.303 19.533C247.303 19.2613 247.371 19.0235 247.507 18.8196H247.405C247.168 18.8196 246.964 18.8196 246.726 18.8196C246.522 18.8196 246.284 18.8876 246.08 18.9216C245.911 18.9216 245.741 18.9895 245.571 19.0574C245.435 19.0914 245.265 19.1593 245.129 19.1933C244.993 19.2273 244.858 19.2952 244.722 19.3632C244.552 19.4311 244.416 19.499 244.246 19.567C244.212 19.567 244.178 19.601 244.11 19.6349C244.008 19.6689 243.906 19.7368 243.804 19.8048C243.669 19.8727 243.567 19.9407 243.431 20.0426C243.261 20.1445 243.125 20.2804 242.955 20.4162C242.819 20.5521 242.649 20.688 242.514 20.8239C242.378 20.9598 242.208 21.1296 242.106 21.2995C242.004 21.4014 241.936 21.5033 241.868 21.6392C241.834 21.6731 241.8 21.7411 241.732 21.809L241.155 22.6923V25.4778C241.155 25.4778 241.155 25.6137 241.155 25.6816C241.155 25.7496 241.155 25.8175 241.155 25.8855V36.0426H247.269V27.1084H261.061V20.9937H248.696C247.915 20.9937 247.303 20.3483 247.303 19.601V19.533Z" fill="#1F1F1F"/>
<path d="M241.189 11.9916V18.1062V21.3674C241.461 20.9937 241.732 20.62 242.072 20.3143C243.431 18.9555 245.333 18.1062 247.406 18.1062C247.711 18.1062 248.051 18.1062 248.357 18.1742C248.425 18.1742 248.493 18.1402 248.561 18.1402C248.561 18.1402 248.662 18.1402 248.73 18.1402H267.21V12.0255H241.189V11.9916Z" fill="#1F1F1F"/>
<path d="M108.161 25.9534C108.093 25.7496 108.025 25.5798 107.957 25.4099C107.584 26.2592 107.074 27.0065 106.395 27.652C105.036 29.0108 103.168 29.86 101.095 29.86H90.089C89.3416 29.86 88.6962 29.2486 88.6962 28.4672H82.5815C82.5815 28.9428 82.6155 29.3844 82.7174 29.86C83.3629 33.325 86.4202 35.9747 90.089 35.9747H101.061C104.73 35.9747 107.787 33.325 108.433 29.86C108.535 29.3844 108.569 28.9428 108.569 28.4672C108.569 27.9577 108.535 27.4821 108.433 27.0405C108.365 26.6668 108.263 26.2931 108.127 25.9195L108.161 25.9534Z" fill="#1F1F1F"/>
<path d="M107.719 24.9004C107.549 24.5947 107.346 24.2889 107.142 24.0172C105.783 22.1488 103.575 20.9598 101.095 20.9598H90.1227C89.3414 20.9598 88.7299 20.3144 88.7299 19.5671C88.7299 19.2274 88.8658 18.9216 89.0356 18.6838C88.8318 18.6838 88.6619 18.7178 88.4921 18.7857C88.1864 18.8537 87.8467 18.9556 87.5749 19.0915C87.439 19.1255 87.3371 19.1934 87.2012 19.2274C87.0314 19.2953 86.8615 19.3972 86.6917 19.4991C86.5218 19.601 86.352 19.7029 86.2161 19.8049C86.0123 19.9407 85.8424 20.0766 85.6726 20.2125C85.5027 20.3484 85.3329 20.5182 85.163 20.6881C84.8573 20.9938 84.6195 21.2656 84.3817 21.6053C84.2458 21.7751 84.1439 21.945 84.042 22.1148C83.9401 22.2847 83.8382 22.4545 83.7702 22.6584C83.7702 22.6923 83.7023 22.7603 83.7023 22.8282L83.5664 23.1679C83.7363 23.5076 83.9401 23.8134 84.1439 24.0851C85.5027 25.9195 87.7108 27.1424 90.1906 27.1424H101.163C101.944 27.1424 102.556 27.7539 102.556 28.5352C102.556 28.9089 102.42 29.1807 102.216 29.4184C102.42 29.4184 102.59 29.3505 102.794 29.3165C102.895 29.3165 102.963 29.2826 103.065 29.2486C103.303 29.1807 103.541 29.1127 103.745 29.0108C103.847 28.9768 103.949 28.9429 104.084 28.8749C104.254 28.807 104.458 28.7051 104.628 28.6032C104.798 28.5012 104.968 28.3993 105.104 28.2974C105.307 28.1615 105.477 28.0257 105.647 27.8898C105.817 27.7539 105.987 27.584 106.157 27.4142C106.428 27.1424 106.666 26.8367 106.904 26.531C107.108 26.2592 107.278 25.9874 107.414 25.7157C107.448 25.6138 107.515 25.5458 107.549 25.4439C107.549 25.4439 107.617 25.308 107.617 25.2741L107.753 24.9344L107.719 24.9004Z" fill="#1F1F1F"/>
<path d="M83.0234 22.0469C83.0913 22.2507 83.1592 22.4205 83.2272 22.5904C83.6009 21.7411 84.1104 20.9938 84.7898 20.3484C86.1486 18.9895 88.017 18.1403 90.0892 18.1403H101.096C101.877 18.1403 102.488 18.7857 102.488 19.5331H108.603C108.603 19.0575 108.569 18.5819 108.467 18.1403C107.822 14.6753 104.764 12.0256 101.096 12.0256H90.1232C86.4544 12.0256 83.397 14.6753 82.7516 18.1403C82.6497 18.6159 82.6157 19.0575 82.6157 19.5331C82.6157 20.0087 82.6497 20.4842 82.7516 20.9258C82.8195 21.2995 82.9215 21.6732 83.0573 22.0129L83.0234 22.0469Z" fill="#1F1F1F"/>
<path d="M315.38 18.9555C315.006 19.0235 314.633 19.1254 314.293 19.2613C314.157 19.2952 314.055 19.3632 313.953 19.3971C313.817 19.4651 313.682 19.533 313.546 19.601C313.342 19.7029 313.172 19.8048 313.002 19.9407C312.832 20.0765 312.629 20.2124 312.459 20.3483C312.289 20.4842 312.119 20.654 311.949 20.7899C311.847 20.8918 311.745 20.9937 311.643 21.1296C311.541 21.2315 311.44 21.3334 311.372 21.4693C311.372 21.4693 311.27 21.6052 311.236 21.6392L310.658 22.4884V35.9746H316.773V18.8196C316.535 18.8196 316.297 18.8196 316.059 18.8196C315.856 18.8196 315.618 18.8876 315.414 18.9216L315.38 18.9555Z" fill="#1F1F1F"/>
<path d="M300.671 11.9916V18.1062H310.624V21.2655C310.862 20.9258 311.134 20.62 311.405 20.3143C312.764 18.9555 314.666 18.1062 316.739 18.1062H317.452H326.692V11.9916H300.637H300.671Z" fill="#1F1F1F"/>
<path d="M142.845 24.2548C142.845 24.2548 143.014 23.9491 143.116 23.8472C143.354 23.5075 143.66 23.1678 143.966 22.8621C144.135 22.6922 144.339 22.5224 144.509 22.3865C144.509 22.3525 144.577 22.3185 144.611 22.2846C144.747 22.1827 144.883 22.0807 145.019 21.9788C145.256 21.809 145.494 21.6731 145.732 21.5372C145.834 21.4693 145.936 21.4013 146.072 21.3674C146.14 21.3334 146.242 21.2994 146.31 21.2315C146.445 21.1636 146.581 21.1296 146.683 21.0616C146.921 20.9597 147.193 20.8918 147.431 20.8238C147.668 20.7559 147.906 20.688 148.144 20.654V11.9916H142.029V25.9194C142.165 25.5117 142.335 25.1041 142.505 24.7644C142.607 24.5945 142.675 24.4247 142.811 24.2548H142.845Z" fill="#1F1F1F"/>
<path d="M161.97 11.9916V20.9258H149.605C147.533 20.9258 145.664 21.775 144.272 23.1338C142.879 24.4926 142.063 26.361 142.063 28.4332V35.9746H148.178V27.0404H160.373C160.373 27.0404 160.509 27.0404 160.577 27.0404C160.645 27.0404 160.713 27.0404 160.747 27.0404H160.781C161.019 27.0404 161.257 27.0404 161.494 27.0064C161.562 27.0064 161.664 27.0064 161.732 26.9725C161.766 26.9725 161.834 26.9725 161.868 26.9725C162.004 26.9725 162.106 26.9385 162.242 26.9045C162.548 26.8366 162.819 26.7686 163.091 26.6667C163.227 26.6328 163.363 26.5648 163.499 26.4969C163.533 26.4969 163.601 26.4969 163.635 26.4629C163.838 26.361 164.042 26.2591 164.212 26.1572C164.45 26.0213 164.688 25.8854 164.892 25.7156C165.027 25.6476 165.129 25.5457 165.265 25.4438C165.299 25.4438 165.367 25.3759 165.401 25.3419C165.571 25.206 165.707 25.0701 165.877 24.9003C167.235 23.5415 168.085 21.6391 168.085 19.5669V12.0255H161.97V11.9916Z" fill="#1F1F1F"/>
<path d="M167.575 23.2697C167.473 23.4735 167.371 23.6433 167.235 23.8472C167.235 23.8811 167.167 23.9491 167.133 23.983C166.998 24.1869 166.862 24.3567 166.692 24.5605C166.522 24.7644 166.352 24.9682 166.148 25.138C165.945 25.3419 165.741 25.5457 165.503 25.7155C165.333 25.8514 165.197 25.9873 165.027 26.0892C164.79 26.2591 164.518 26.4289 164.246 26.5648C164.076 26.6667 163.94 26.7346 163.77 26.8026C163.499 26.9385 163.193 27.0404 162.887 27.1423C162.717 27.1763 162.581 27.2442 162.412 27.2782C162.242 27.3121 162.072 27.3461 161.936 27.3801V36.0085H168.051V22.1147C167.915 22.5223 167.745 22.93 167.541 23.3036L167.575 23.2697Z" fill="#1F1F1F"/>
<path d="M385.121 24.0172C385.121 24.0172 385.019 24.1531 384.985 24.2211C384.747 24.5268 384.476 24.8325 384.204 25.1043C384.136 25.1722 384.068 25.2402 384.034 25.2741C383.932 25.41 383.796 25.478 383.694 25.5799C383.66 25.5799 383.626 25.6478 383.592 25.6818C383.423 25.8177 383.253 25.9535 383.049 26.0554C383.049 26.0554 383.049 26.0554 383.015 26.0554C382.811 26.1913 382.607 26.3272 382.369 26.4291C382.369 26.4291 382.335 26.4291 382.302 26.4631C382.098 26.565 381.894 26.6669 381.69 26.7688C381.452 26.8707 381.214 26.9387 380.977 27.0066C380.977 27.0066 380.977 27.0066 380.943 27.0066C380.739 27.0746 380.535 27.1425 380.297 27.1765C380.263 27.1765 380.229 27.1765 380.161 27.1765C380.161 27.1765 380.093 27.1765 380.059 27.1765C379.89 27.1765 379.72 27.2104 379.55 27.2444L379.618 27.3123C379.856 27.5501 379.992 27.8898 379.992 28.2975C379.992 28.9769 379.516 29.5544 378.871 29.6903C378.871 29.6903 378.837 29.6903 378.803 29.6903C378.735 29.6903 378.667 29.6903 378.599 29.6903H367.626C366.845 29.6903 366.2 29.0448 366.2 28.2635H360.085C360.085 28.7391 360.119 29.2147 360.221 29.6903C360.866 33.1552 363.924 35.8049 367.592 35.8049H378.565C382.234 35.8049 385.291 33.1552 385.936 29.6903C386.038 29.2147 386.072 28.7391 386.072 28.2635V21.9111C385.936 22.2508 385.8 22.5905 385.631 22.9302C385.461 23.2359 385.291 23.5416 385.087 23.8474L385.121 24.0172Z" fill="#1F1F1F"/>
<path d="M360.527 22.0469C360.595 22.2507 360.663 22.4206 360.731 22.5904C361.104 21.7412 361.648 20.9938 362.293 20.3484C363.652 18.9896 365.554 18.1403 367.627 18.1403H378.599C379.38 18.1403 379.992 18.7518 379.992 19.5331C379.992 19.635 379.992 19.7369 379.992 19.8049C379.992 19.9068 379.958 20.0087 379.89 20.1106C379.89 20.1785 379.822 20.2465 379.788 20.3144C379.788 20.3484 379.72 20.4163 379.686 20.4503C379.89 20.4503 380.06 20.3823 380.264 20.3484C380.671 20.2465 381.045 20.1446 381.418 19.9747C381.554 19.9407 381.69 19.8728 381.792 19.8049C381.894 19.7709 381.996 19.7029 382.064 19.669C382.234 19.5671 382.404 19.4652 382.573 19.3632C382.743 19.2274 382.913 19.1254 383.083 18.9896C383.253 18.8537 383.423 18.6838 383.593 18.514C383.83 18.3102 384.034 18.0384 384.272 17.6987C384.374 17.5628 384.476 17.4269 384.544 17.2911C384.578 17.2231 384.646 17.1552 384.68 17.0533C384.748 16.9174 384.816 16.8155 384.883 16.6796L384.917 16.6116C384.917 16.6116 384.917 16.5777 384.951 16.5437C384.951 16.5097 384.985 16.4418 385.019 16.4078L385.155 16.0681C385.155 16.0681 385.053 15.8983 385.019 15.7964C385.019 15.7624 384.985 15.6945 384.951 15.6605C384.883 15.5246 384.782 15.3887 384.714 15.2868C384.68 15.2189 384.612 15.1509 384.544 15.083C384.442 14.9811 384.374 14.8792 384.272 14.7433C384.272 14.7433 384.272 14.7093 384.238 14.6753C384.238 14.6753 384 14.4036 383.864 14.2677C383.864 14.2677 383.559 13.962 383.423 13.8261C383.253 13.6902 383.083 13.5543 382.879 13.4184C382.879 13.4184 382.54 13.1807 382.37 13.0787C382.166 12.9429 381.996 12.8749 381.826 12.773C381.622 12.6711 381.419 12.6032 381.215 12.5352C381.011 12.4673 380.807 12.3993 380.603 12.3314C380.399 12.2635 380.162 12.2295 379.958 12.1955C379.754 12.1615 379.516 12.1276 379.312 12.0936C379.075 12.0936 378.837 12.0596 378.633 12.0596C378.565 12.0596 378.497 12.0596 378.429 12.0596H367.627C363.958 12.0596 360.9 14.6753 360.255 18.1743C360.153 18.6159 360.119 19.0915 360.119 19.5671C360.119 20.0426 360.153 20.5182 360.255 20.9598C360.323 21.3335 360.425 21.7072 360.561 22.0809L360.527 22.0469Z" fill="#1F1F1F"/>
<path d="M385.189 17.0192C385.019 17.3249 384.849 17.5967 384.646 17.9024C384.442 18.2081 384.17 18.4799 383.932 18.7517C382.573 20.1105 380.705 20.9597 378.633 20.9597H367.626C366.845 20.9597 366.2 20.3143 366.2 19.567C366.2 19.2272 366.336 18.9215 366.505 18.6837C366.302 18.6837 366.132 18.7517 365.928 18.7856C365.928 18.7856 365.758 18.7856 365.656 18.8536C365.554 18.8536 365.486 18.8875 365.384 18.9555C365.215 18.9895 365.011 19.0574 364.841 19.1593C364.671 19.2272 364.467 19.2952 364.297 19.3971C364.06 19.533 363.788 19.6689 363.584 19.8387C363.414 19.9746 363.244 20.0765 363.074 20.2124C362.905 20.3483 362.735 20.5181 362.565 20.688C362.191 21.0616 361.885 21.4353 361.614 21.8769C361.546 22.0128 361.478 22.1147 361.41 22.2506C361.41 22.2506 361.41 22.2846 361.41 22.3185C361.342 22.4205 361.274 22.5563 361.206 22.6582C361.206 22.6582 361.138 22.7941 361.104 22.8281L360.968 23.1338C361.138 23.4735 361.342 23.7793 361.546 24.085C362.905 25.9194 365.113 27.1423 367.592 27.1423H378.395C378.395 27.1423 378.531 27.1423 378.599 27.1423H378.667C378.667 27.1423 378.803 27.1423 378.871 27.1423C378.939 27.1423 379.006 27.1423 379.074 27.1423H379.108C379.108 27.1423 379.244 27.1423 379.312 27.1423C379.346 27.1423 379.414 27.1423 379.482 27.1423C379.686 27.1423 379.924 27.0744 380.127 27.0404C380.331 27.0064 380.535 26.9385 380.739 26.8706C380.943 26.8366 381.113 26.7686 381.282 26.7007C381.418 26.6328 381.588 26.5648 381.724 26.5309C381.826 26.4969 381.928 26.4289 382.03 26.395C382.336 26.2591 382.607 26.0892 382.879 25.8854C382.981 25.8175 383.049 25.7495 383.151 25.6816C383.287 25.5797 383.423 25.4778 383.558 25.3419C383.694 25.24 383.83 25.1041 383.932 25.0022C384.985 23.9491 385.733 22.5903 386.004 21.0956C386.072 20.62 386.14 20.1444 386.14 19.6689C386.14 19.4311 386.14 19.1933 386.106 18.9555C386.106 18.7177 386.038 18.4799 386.004 18.2761C385.97 18.0723 385.936 17.9024 385.868 17.7326C385.834 17.5627 385.767 17.3589 385.699 17.189C385.699 17.1551 385.699 17.1211 385.665 17.0871L385.733 17.0192H385.665C385.631 16.8833 385.563 16.7474 385.529 16.6455C385.529 16.6455 385.359 16.9852 385.291 17.1551L385.189 17.0192Z" fill="#1F1F1F"/>
</g>
<defs>
<clipPath id="clip0_148_1022">
<rect width="386.106" height="48" fill="white"/>
</clipPath>
</defs>
</svg>
