<svg width="50" height="50" viewBox="0 0 50 50" fill="none" xmlns="http://www.w3.org/2000/svg">
<path d="M49.102 25.0848C49.102 22.8768 48.5245 20.8385 47.5054 19.0721C47.1657 18.4606 46.758 17.8831 46.2824 17.3396C46.0786 17.0678 45.8408 16.8301 45.5691 16.5583C43.395 14.3842 40.4056 13.0594 37.0765 13.0594C34.7665 13.0594 32.6264 12.4139 30.792 11.2929C30.4183 11.0551 30.0447 10.8173 29.705 10.5455C29.603 10.4776 29.5011 10.3757 29.3653 10.2738C29.2294 10.1719 29.1275 10.07 28.9916 9.96805C28.8217 9.83217 28.6858 9.69629 28.516 9.52644C28.3122 9.32262 28.1423 9.1188 27.9385 8.88101C27.7686 8.67718 27.6328 8.50733 27.4629 8.30351C27.327 8.13366 27.1912 7.92984 27.0553 7.75999C26.9194 7.55617 26.7495 7.31837 26.6476 7.08058C26.5117 7.31837 26.3759 7.55617 26.274 7.79396C26.274 7.82793 26.24 7.89587 26.206 7.92984C26.1381 8.06572 26.0701 8.23557 26.0022 8.37145C25.9343 8.50733 25.8663 8.67718 25.8323 8.81307C25.3228 10.1379 25.051 11.5647 25.051 13.0594C25.051 14.0445 25.1869 15.0296 25.4247 15.9808C25.6965 17.0678 26.1041 18.1209 26.6476 19.0721C26.8175 19.3778 26.9873 19.6496 27.1912 19.9213C28.0064 21.1103 29.0255 22.1294 30.2145 22.9447C30.4863 23.1485 30.758 23.3184 31.0638 23.4882C32.0149 24.0317 33.068 24.4734 34.1551 24.7112C35.1062 24.4734 36.0574 24.3715 37.0425 24.3715C37.1784 24.3715 37.3483 24.3715 37.4841 24.3715C37.5861 24.3715 37.7219 24.3715 37.8578 24.3715C38.0956 24.3715 38.3334 24.3715 38.5712 24.4394C38.6391 24.4394 38.7071 24.4394 38.775 24.4394H38.9788C38.9788 24.4394 39.3185 24.5073 39.5224 24.5753C39.6582 24.5753 39.8281 24.6092 39.9979 24.6772C40.2018 24.7112 40.3716 24.7791 40.5075 24.8131C40.7113 24.881 40.8812 24.9489 41.051 24.9829L41.5606 25.1528C41.5606 25.1528 41.8663 25.2547 42.0362 25.3226C42.1041 25.3226 42.172 25.3566 42.24 25.3906C42.4098 25.4585 42.5797 25.5264 42.7156 25.6284C42.8514 25.6623 42.9534 25.7303 43.0892 25.7982L43.4289 26.002C43.4289 26.002 43.5309 26.07 43.5648 26.1039C43.8706 26.2738 44.1423 26.4776 44.4141 26.6814C44.7538 26.9192 45.0935 27.191 45.4332 27.4627C46.4863 28.3799 47.3695 29.433 48.0489 30.656L48.1508 30.8258C48.1508 30.8258 48.2867 31.0636 48.3546 31.1995C48.3546 31.2674 48.4226 31.3354 48.4565 31.4033C48.6604 31.8109 48.8302 32.2865 49.0001 32.7281C49.0001 32.7621 49.0001 32.8301 49.034 32.864V25.0509L49.102 25.0848Z" fill="#6F6AD6"/>
<path d="M5.75584 34.5626C5.95966 34.7325 6.19745 34.8684 6.40127 35.0382C6.6051 35.1741 6.80892 35.276 7.01274 35.4119C7.82803 35.8875 8.74522 36.2951 9.69639 36.5669C9.83227 36.6009 9.96815 36.6348 10.104 36.6688C10.4777 36.7707 10.8853 36.8386 11.259 36.9066C11.3609 36.9066 11.4628 36.9066 11.5987 36.9406C11.8025 36.9406 11.9724 36.9745 12.1423 37.0085C12.448 37.0085 12.7537 37.0425 13.0934 37.0425C14.3163 37.0425 15.4713 37.2463 16.5924 37.586C16.7962 37.62 16.966 37.6879 17.1699 37.7558C17.7134 37.9597 18.2569 38.1975 18.7665 38.4692C18.9703 38.5711 19.1741 38.673 19.3779 38.8089C19.3779 38.8089 19.4459 38.8429 19.4798 38.8769C19.6497 38.9788 19.8195 39.0807 19.9894 39.2166C20.465 39.5223 20.8726 39.896 21.2803 40.2696C21.4161 40.4055 21.552 40.5414 21.6879 40.6773C21.8577 40.8471 22.0276 41.051 22.1975 41.2208C22.5032 41.5945 22.8089 41.9342 23.0467 42.3418C23.1826 42.5457 23.3524 42.7834 23.4883 43.0212C23.6242 42.8174 23.7261 42.5796 23.862 42.3418C23.862 42.3418 23.862 42.3079 23.862 42.2739C23.9299 42.172 23.9639 42.0701 23.9979 41.9342C24.0998 41.7304 24.1677 41.5605 24.2357 41.3567C24.2357 41.3567 24.2357 41.2888 24.2696 41.2548C24.3036 41.1189 24.3715 41.017 24.4055 40.8811C24.5074 40.6433 24.5754 40.4055 24.6433 40.1338C24.7113 39.862 24.7792 39.6242 24.8132 39.3864C24.9151 38.8769 24.983 38.3333 25.017 37.7898C25.017 37.5181 25.017 37.2463 25.017 36.9745C25.017 35.9894 24.8811 35.0043 24.6433 34.0531C24.3715 32.9321 23.9639 31.913 23.3864 30.9618C23.2166 30.69 23.0467 30.4183 22.8429 30.1465C22.0276 28.9575 21.0085 27.9384 19.8195 27.1232C19.5478 26.9193 19.276 26.7495 19.0042 26.5796C18.0531 26.0361 17 25.5945 15.913 25.3227C14.9618 25.5265 14.0106 25.6624 13.0255 25.6624C12.8896 25.6624 12.7197 25.6624 12.5839 25.6624C12.448 25.6624 12.2781 25.6624 12.1423 25.6624C11.8705 25.6624 11.5648 25.6285 11.293 25.5945C11.0892 25.5945 10.8853 25.5265 10.6815 25.4926C10.138 25.3907 9.59448 25.2548 9.01698 25.051C8.98301 25.051 8.94904 25.051 8.8811 25.017C8.77919 25.017 8.71125 24.9491 8.60934 24.9151C8.57537 24.9151 8.5414 24.9151 8.50743 24.8811C8.37155 24.8471 8.23567 24.7792 8.09979 24.7113C7.96391 24.6433 7.82802 24.5754 7.69214 24.5074C7.48832 24.4055 7.25053 24.3036 7.01274 24.1677C6.87686 24.0998 6.77495 24.0319 6.67304 23.9639C6.67304 23.9639 6.6051 23.9299 6.57113 23.896C6.26539 23.7261 5.95966 23.5223 5.65393 23.3185C4.15924 22.2654 2.90234 20.9066 1.98514 19.31C1.88323 19.1401 1.78132 18.9703 1.71338 18.8004C1.44161 18.2569 1.20382 17.7134 1 17.1699V25.2888C1.03397 27.3609 1.64544 29.2972 2.5966 30.9958C2.93631 31.6072 3.34395 32.1508 3.78556 32.6943C3.98938 32.966 4.26115 33.2378 4.49894 33.4756C4.70276 33.6454 4.87261 33.8493 5.07643 34.0191C5.24628 34.189 5.45011 34.3248 5.61996 34.4607L5.75584 34.5626Z" fill="#6F6AD6"/>
<path d="M23.0806 43.7686L22.8768 43.4289L22.673 43.0552C22.5371 42.8514 22.4352 42.6816 22.2993 42.5117C22.1974 42.3758 22.1295 42.2739 22.0275 42.138C21.8917 41.9682 21.7898 41.8323 21.6539 41.6964C21.518 41.5266 21.3481 41.3228 21.1783 41.1869C21.0424 41.051 20.9405 40.9151 20.8046 40.8132C20.397 40.4395 19.9893 40.0998 19.5817 39.8281C19.4118 39.6922 19.276 39.6242 19.1061 39.5223L18.9702 39.4544C18.7664 39.3185 18.5965 39.2166 18.3927 39.1147C18.1549 38.9788 17.9171 38.8429 17.6454 38.741C17.4076 38.6391 17.1358 38.5372 16.8641 38.4353C16.6942 38.3673 16.5244 38.3334 16.3545 38.2654C15.2675 37.9257 14.1804 37.7559 13.0254 37.7559H12.312C12.312 37.7559 12.1082 37.7219 12.0063 37.7219C11.8365 37.7219 11.6326 37.7219 11.3949 37.654C11.2929 37.654 11.1571 37.654 11.0551 37.62C10.6815 37.586 10.3078 37.4841 9.93413 37.3822H9.73031L9.66237 37.3143C9.66237 37.3143 9.52649 37.2803 9.49252 37.2803C8.40547 36.9746 7.4543 36.5329 6.60504 36.0234L5.99358 35.6497C5.78975 35.5138 5.58593 35.344 5.41608 35.2421C5.38211 35.2081 5.31417 35.1741 5.2802 35.1402C5.07638 34.9703 4.87256 34.8344 4.66874 34.6306C4.66874 34.6306 4.66874 34.6306 4.63477 34.5966C4.66874 35.31 4.80462 35.9894 5.00844 36.7028C5.55196 38.6731 6.57107 40.5414 8.09973 42.0701L14.2484 48.2187L14.9617 48.9321C14.9617 48.9321 15.1316 48.9321 15.1995 48.8981C16.5923 48.6603 17.8832 48.1847 19.0721 47.5053C20.6687 46.5881 22.0275 45.3312 23.0127 43.8026L23.0806 43.7686Z" fill="#001A4D"/>
<path d="M35.0722 43.8024C35.2081 43.5986 35.344 43.3948 35.4459 43.191C35.5478 43.0211 35.6497 42.8173 35.7516 42.6475C36.0573 42.1039 36.2951 41.4925 36.465 40.915C36.5329 40.7451 36.6008 40.5753 36.6348 40.4054C36.6348 40.3714 36.6348 40.3375 36.6348 40.2695C36.6688 40.0997 36.7367 39.9298 36.7707 39.76C36.8386 39.4542 36.9066 39.1825 36.9406 38.8768C36.9406 38.7748 36.9406 38.6729 36.9745 38.571C36.9745 38.4012 37.0085 38.2313 37.0085 38.0615C37.0085 37.7557 37.0425 37.416 37.0425 37.1103C37.0425 35.8534 37.2463 34.6305 37.586 33.5094C37.62 33.3396 37.6879 33.2037 37.7219 33.0339C37.9257 32.4903 38.1635 31.9468 38.4352 31.4373C38.5372 31.2334 38.673 31.0296 38.7749 30.8258C38.7749 30.8258 38.8089 30.7239 38.8429 30.6899C38.9448 30.5201 39.0467 30.3502 39.1826 30.1804C39.4883 29.7048 39.862 29.2971 40.2357 28.8895C40.3716 28.7536 40.5074 28.6177 40.6433 28.4818C40.8132 28.312 41.017 28.1421 41.1868 27.9723C41.5605 27.6666 41.9002 27.3608 42.3079 27.123C42.5117 26.9872 42.7495 26.8173 42.9873 26.6814C42.7834 26.5455 42.5456 26.4436 42.3079 26.3077C42.3079 26.3077 42.2739 26.3077 42.2399 26.3077C42.104 26.2398 41.9682 26.1719 41.8323 26.1039C41.7983 26.1039 41.7304 26.07 41.6964 26.036C41.5605 25.968 41.3907 25.9001 41.2548 25.8661C41.0849 25.7982 40.9151 25.7303 40.7452 25.6963C40.5754 25.6283 40.4055 25.5944 40.2357 25.5264C40.0658 25.4925 39.896 25.4245 39.7261 25.3906C39.5902 25.3566 39.4544 25.3226 39.3185 25.2886C39.1486 25.2547 38.9448 25.2207 38.7749 25.1867C38.741 25.1867 38.707 25.1867 38.673 25.1867C38.6391 25.1867 38.5711 25.1867 38.5372 25.1867H38.5032C38.2994 25.1528 38.0616 25.1188 37.8238 25.1188C37.6879 25.1188 37.552 25.1188 37.4161 25.1188C37.2803 25.1188 37.1444 25.1188 37.0085 25.1188C36.0234 25.1188 35.0382 25.2547 34.121 25.4925C33 25.7642 31.9809 26.2058 31.0297 26.7494C30.758 26.9192 30.4862 27.0891 30.2144 27.2929C29.0255 28.1082 28.0064 29.1273 27.1911 30.3162C26.9873 30.588 26.8174 30.8598 26.6476 31.1315C26.104 32.0827 25.6624 33.1358 25.3907 34.2228C25.6285 35.174 25.7304 36.1252 25.7304 37.1103C25.7304 37.416 25.7304 37.6878 25.7304 37.9935C25.7304 38.537 25.6285 39.1145 25.5265 39.6581C25.4926 39.9298 25.3907 40.2016 25.3227 40.4734C25.2548 40.7451 25.1868 41.0169 25.0849 41.2886C25.051 41.4245 25.017 41.5264 24.949 41.6283L24.8811 41.7642C24.8132 41.968 24.7113 42.1719 24.6093 42.4097C24.6093 42.5116 24.5074 42.6475 24.4395 42.8173C24.4055 42.9192 24.3376 43.0551 24.2696 43.157C24.2017 43.2589 24.1338 43.3948 24.0658 43.5307C23.9299 43.7685 23.7601 44.0063 23.6242 44.2441C23.5563 44.346 23.4883 44.4479 23.4204 44.5498C23.3524 44.6857 23.2505 44.7876 23.1486 44.9235C22.1295 46.2483 20.8726 47.3693 19.4119 48.1846C19.242 48.2865 19.0722 48.3884 18.9023 48.4903C18.3588 48.7621 17.8153 48.9999 17.2378 49.2037H25.0849C27.259 49.2037 29.2972 48.6262 31.0637 47.6071C31.6752 47.2674 32.2527 46.8598 32.7962 46.3842C33.0679 46.1804 33.3397 45.9426 33.5775 45.6708C33.7473 45.501 33.9172 45.3311 34.0531 45.1273C34.2229 44.9235 34.3928 44.7536 34.5287 44.5498C34.6985 44.346 34.8344 44.1421 34.9703 43.9383C34.9703 43.9383 34.9703 43.9383 34.9703 43.9044L35.0722 43.8024Z" fill="#6F6AD6"/>
<path d="M48.932 35.0043C48.932 34.8344 48.8641 34.6985 48.8301 34.5287C48.8301 34.4947 48.8301 34.4268 48.8301 34.3928C48.7622 34.121 48.6942 33.8832 48.6263 33.6455C48.6263 33.5775 48.5923 33.4756 48.5584 33.4077C48.5584 33.2718 48.4904 33.1699 48.4564 33.068C48.2866 32.6263 48.1167 32.2187 47.9129 31.8111C47.811 31.5733 47.6751 31.3355 47.5392 31.1317C47.4034 30.9278 47.3015 30.724 47.1656 30.5202C47.1316 30.4523 47.0976 30.3843 47.0297 30.3164C46.8938 30.1465 46.7919 29.9767 46.656 29.8068C46.5541 29.6709 46.4182 29.5011 46.2823 29.3652C46.2823 29.3652 46.0785 29.1274 45.9766 28.9915C45.8407 28.8556 45.7049 28.7198 45.569 28.5839C45.4331 28.448 45.2632 28.2782 45.1274 28.1762C45.0254 28.0743 44.9235 27.9724 44.7877 27.8705C44.6857 27.7686 44.5838 27.6667 44.448 27.5987C44.2441 27.4289 44.0403 27.293 43.8365 27.1571L43.5308 27.361L43.1571 27.5648C42.9872 27.7007 42.8174 27.8026 42.6475 27.9385C42.5456 28.0064 42.4777 28.0743 42.3758 28.1423C42.1719 28.2782 42.0021 28.448 41.8322 28.5839C41.6624 28.7198 41.4586 28.8896 41.3227 29.0595C41.1868 29.1953 41.0509 29.2973 40.949 29.4331C40.5753 29.8408 40.2356 30.2484 39.9639 30.6561C39.828 30.8259 39.7601 30.9618 39.6581 31.1317L39.5902 31.2675C39.4883 31.4714 39.3864 31.6412 39.2505 31.845C38.9787 32.3206 38.7749 32.8302 38.5711 33.3397L38.4352 33.7813C38.0955 34.8684 37.8917 35.9894 37.8917 37.1784C37.8917 37.5181 37.8917 37.8578 37.8577 38.1975C37.8577 38.3673 37.8577 38.5372 37.8238 38.741V39.0467C37.7218 39.4204 37.6539 39.7261 37.586 40.0319C37.586 40.1678 37.518 40.3036 37.484 40.4735C37.484 40.5414 37.484 40.6094 37.4161 40.6773C37.3821 40.8472 37.3142 41.017 37.2463 41.1869C37.0424 41.8323 36.7707 42.4438 36.4649 43.0213C36.397 43.1571 36.3291 43.293 36.2271 43.4629L36.1252 43.6667C35.9894 43.8705 35.8535 44.0743 35.7176 44.2782L35.6497 44.3461C35.6497 44.3461 35.4458 44.6858 35.31 44.8217C35.276 44.8556 35.242 44.9236 35.208 44.9576C35.0382 45.1614 34.8683 45.3652 34.6985 45.569C35.4119 45.5351 36.1252 45.3992 36.8046 45.2293C38.7749 44.6858 40.6093 43.6667 42.1719 42.1041L48.3206 35.9554L49.0339 35.2421C49.0339 35.1741 49.0339 35.1062 49.0339 35.0722L48.932 35.0043Z" fill="#001A4D"/>
<path d="M29.7727 3.61562C29.5689 3.78547 29.3311 3.95532 29.1273 4.15914C28.7876 4.46488 28.4819 4.77061 28.1761 5.11031C27.9723 5.31413 27.8025 5.51795 27.6326 5.75575C27.4627 5.99354 27.2929 6.23133 27.123 6.46912L27.2929 6.77485C27.2929 6.77485 27.4288 7.01265 27.4967 7.14853C27.4967 7.14853 27.5307 7.21647 27.5647 7.25044C27.6326 7.38632 27.7005 7.48823 27.8025 7.59014C27.9383 7.79396 28.1082 7.99778 28.278 8.20161C28.4139 8.37146 28.5498 8.54131 28.6857 8.71116C28.7876 8.81307 28.8895 8.91498 28.9914 9.01689L29.3311 9.3566C29.3311 9.3566 29.501 9.52645 29.6029 9.59439C29.7388 9.73027 29.8746 9.83218 30.0105 9.93409C30.1804 10.07 30.3842 10.2398 30.554 10.3417C30.7579 10.4776 30.9277 10.6135 31.1315 10.7154C32.898 11.8025 34.9362 12.3799 37.0424 12.3799H37.7557C38.0615 12.4139 38.3332 12.4479 38.605 12.4819C38.639 12.4819 38.7069 12.4819 38.7409 12.4819C39.0466 12.5158 39.3184 12.5838 39.5901 12.6177C39.8959 12.6857 40.1676 12.7536 40.4734 12.8216C40.4734 12.8216 40.5413 12.8216 40.5753 12.8216C40.847 12.8895 41.1188 12.9914 41.3906 13.0933C41.6623 13.1952 41.9341 13.2971 42.2058 13.3991H42.2738C42.5456 13.5689 42.8173 13.7048 43.0891 13.8407C43.3608 13.9766 43.5986 14.1464 43.8704 14.2823C44.1422 14.4521 44.4139 14.656 44.6857 14.8258C44.9574 15.0296 45.2292 15.2335 45.467 15.4712C45.3991 14.7579 45.2971 14.0785 45.0933 13.3991C44.5498 11.4288 43.5307 9.56042 42.002 7.99778L35.8534 1.84916L35.14 1.13579C35.14 1.13579 34.9702 1.13579 34.9022 1.16976C33.5095 1.40755 32.2186 1.88313 31.0296 2.56254C30.554 2.8343 30.1124 3.14003 29.7048 3.44577L29.7727 3.61562Z" fill="#001A4D"/>
<path d="M14.7918 7.01271C14.6559 7.21653 14.52 7.45432 14.4181 7.69211C14.1463 8.20167 13.9425 8.71122 13.7727 9.25475C13.7047 9.45857 13.6368 9.69636 13.5689 9.90018C13.5009 10.104 13.433 10.3418 13.399 10.5796C13.3311 10.9193 13.2631 11.259 13.2292 11.5987C13.2292 11.8025 13.1952 11.9724 13.1612 12.1422C13.1612 12.448 13.1272 12.7537 13.1272 13.0934C13.1272 15.0637 12.6517 16.932 11.8024 18.5626C11.7345 18.6985 11.6665 18.8344 11.5646 18.9702C11.4967 19.1061 11.4287 19.242 11.3268 19.3779C11.3268 19.3779 11.2928 19.4798 11.2589 19.5138C11.157 19.6836 11.0551 19.8535 10.9192 20.0233C10.5455 20.5669 10.1379 21.0424 9.66227 21.518C9.45845 21.7218 9.25463 21.8917 9.05081 22.0955C8.64316 22.4692 8.23552 22.7749 7.79391 23.0806C7.59009 23.2165 7.35229 23.3864 7.1145 23.5223C7.35229 23.6581 7.59009 23.794 7.82788 23.8959C7.89582 23.9299 7.99773 23.9639 8.09964 24.0318C8.33743 24.1677 8.60919 24.2696 8.88096 24.3376C9.05081 24.4055 9.18669 24.4734 9.35654 24.5074C9.86609 24.6773 10.4096 24.8131 10.9192 24.915C11.123 24.949 11.2928 24.983 11.4967 25.017C11.7684 25.0509 12.0402 25.0849 12.312 25.0849C12.5837 25.0849 12.8555 25.0849 13.1272 25.0849C14.1124 25.0849 15.0975 24.949 16.0487 24.7112C17.1357 24.4395 18.1888 24.0318 19.14 23.4883C19.4457 23.3184 19.6835 23.1486 19.9553 22.9448C21.1442 22.1295 22.1633 21.1104 22.9786 19.9214C23.1824 19.6497 23.3523 19.3779 23.5221 19.0722C24.0657 18.121 24.5073 17.1019 24.7451 15.9809C24.5073 15.0297 24.4054 14.0446 24.4054 13.0594C24.4054 11.4968 24.6771 10.0021 25.2207 8.54137C25.3905 8.06579 25.6283 7.55623 25.9001 7.04668C25.9001 7.04668 25.9001 6.97874 25.934 6.94477C25.934 6.94477 25.968 6.87683 25.968 6.84286C25.968 6.77492 26.0359 6.70698 26.0699 6.67301C26.2737 6.3333 26.4776 5.9936 26.7154 5.6539C27.7684 4.15921 29.1272 2.93628 30.6899 2.01908C30.8597 1.91717 31.0296 1.81526 31.1994 1.71335C31.743 1.44158 32.2865 1.20379 32.83 0.999969H25.0168C22.8427 0.999969 20.8045 1.57746 19.0381 2.59657C18.4266 2.93628 17.8491 3.34392 17.3396 3.78553C17.0678 3.98935 16.796 4.26112 16.5582 4.49891C16.3544 4.70273 16.1846 4.90655 16.0147 5.11037C15.8788 5.28022 15.709 5.45008 15.6071 5.61993C15.4712 5.82375 15.3013 5.9936 15.1655 6.19742C15.0296 6.40124 14.8597 6.63904 14.7238 6.87683L14.7918 7.01271Z" fill="#6F6AD6"/>
<path d="M2.73266 19.1062C3.20824 19.9215 3.78574 20.6688 4.43117 21.3482C4.56705 21.4841 4.70294 21.654 4.83882 21.7559C4.9747 21.8918 5.07661 21.9937 5.21249 22.0956C5.41631 22.2654 5.62013 22.4353 5.82396 22.6051C6.02778 22.775 6.2316 22.9109 6.43542 23.0467L6.77512 22.8429C6.77512 22.8429 7.01291 22.707 7.11483 22.6391C7.11483 22.6391 7.21674 22.5712 7.25071 22.5372C7.42056 22.4353 7.59041 22.3334 7.76026 22.1975C7.89614 22.0956 8.06599 21.9937 8.20187 21.8578C8.37173 21.7219 8.54158 21.586 8.71143 21.4162C8.84731 21.2803 9.01716 21.1444 9.15304 20.9746C9.22098 20.9066 9.32289 20.8047 9.39083 20.7368C9.49275 20.6349 9.56069 20.5669 9.62863 20.465C9.86642 20.1932 10.1042 19.8875 10.342 19.5818C10.4439 19.4459 10.5458 19.31 10.6138 19.1741L10.7496 18.9703C10.8176 18.8684 10.8855 18.8005 10.9195 18.6985L10.9874 18.5627C10.9874 18.5627 11.1233 18.3588 11.1573 18.2569C11.9726 16.6603 12.4142 14.9278 12.4142 13.0935C12.4142 12.7537 12.4142 12.414 12.4482 12.0743C12.4482 11.9045 12.4482 11.7007 12.5161 11.4629C12.5161 11.1232 12.618 10.7495 12.686 10.4098C12.7539 10.138 12.7879 9.90025 12.8898 9.66245C12.9577 9.45863 13.0257 9.18687 13.0936 8.98305C13.2974 8.40555 13.5012 7.86203 13.773 7.35248C13.8749 7.11468 14.0108 6.87689 14.1467 6.6391C14.2826 6.36734 14.4524 6.12955 14.6223 5.89175C14.7581 5.7219 14.86 5.58602 14.962 5.41617C14.9959 5.3822 15.0299 5.31426 15.0978 5.28029C15.2337 5.11044 15.4036 4.90662 15.5734 4.73676C15.5734 4.73676 15.6074 4.70279 15.6414 4.66882C14.928 4.73676 14.2486 4.83867 13.5692 5.0425C11.7008 5.55205 9.90039 6.50322 8.4057 7.92997L2.01928 14.2824L1.30591 14.9958C1.30591 14.9958 1.30591 15.1656 1.33988 15.2336C1.57767 16.6264 2.05325 17.9172 2.73266 19.0722V19.1062Z" fill="#001A4D"/>
</svg>
