<svg width="50" height="50" viewBox="0 0 50 50" fill="none" xmlns="http://www.w3.org/2000/svg">
<path d="M49.1017 25.0848C49.1017 22.8768 48.5242 20.8385 47.5051 19.0721C47.1654 18.4606 46.7578 17.8831 46.2822 17.3396C46.0784 17.0678 45.8406 16.8301 45.5688 16.5583C43.3947 14.3842 40.4053 13.0594 37.0763 13.0594C34.7663 13.0594 32.6262 12.4139 30.7918 11.2929C30.4181 11.0551 30.0444 10.8173 29.7047 10.5455C29.6028 10.4776 29.5009 10.3757 29.365 10.2738C29.2291 10.1719 29.1272 10.07 28.9913 9.96805C28.8215 9.83217 28.6856 9.69629 28.5158 9.52644C28.3119 9.32262 28.1421 9.1188 27.9383 8.88101C27.7684 8.67718 27.6325 8.50733 27.4627 8.30351C27.3268 8.13366 27.1909 7.92984 27.055 7.75999C26.9191 7.55617 26.7493 7.31837 26.6474 7.08058C26.5115 7.31837 26.3756 7.55617 26.2737 7.79396C26.2737 7.82793 26.2397 7.89587 26.2058 7.92984C26.1378 8.06572 26.0699 8.23557 26.0019 8.37145C25.934 8.50733 25.8661 8.67718 25.8321 8.81307C25.3225 10.1379 25.0508 11.5647 25.0508 13.0594C25.0508 14.0445 25.1867 15.0296 25.4245 15.9808C25.6962 17.0678 26.1039 18.1209 26.6474 19.0721C26.8172 19.3778 26.9871 19.6496 27.1909 19.9213C28.0062 21.1103 29.0253 22.1294 30.2143 22.9447C30.486 23.1485 30.7578 23.3184 31.0635 23.4882C32.0147 24.0317 33.0678 24.4734 34.1548 24.7112C35.106 24.4734 36.0571 24.3715 37.0423 24.3715C37.1782 24.3715 37.348 24.3715 37.4839 24.3715C37.5858 24.3715 37.7217 24.3715 37.8576 24.3715C38.0954 24.3715 38.3332 24.3715 38.571 24.4394C38.6389 24.4394 38.7068 24.4394 38.7748 24.4394H38.9786C38.9786 24.4394 39.3183 24.5073 39.5221 24.5753C39.658 24.5753 39.8278 24.6092 39.9977 24.6772C40.2015 24.7112 40.3714 24.7791 40.5073 24.8131C40.7111 24.881 40.8809 24.9489 41.0508 24.9829L41.5603 25.1528C41.5603 25.1528 41.8661 25.2547 42.0359 25.3226C42.1039 25.3226 42.1718 25.3566 42.2397 25.3906C42.4096 25.4585 42.5794 25.5264 42.7153 25.6284C42.8512 25.6623 42.9531 25.7303 43.089 25.7982L43.4287 26.002C43.4287 26.002 43.5306 26.07 43.5646 26.1039C43.8703 26.2738 44.1421 26.4776 44.4138 26.6814C44.7535 26.9192 45.0932 27.191 45.4329 27.4627C46.486 28.3799 47.3693 29.433 48.0487 30.656L48.1506 30.8258C48.1506 30.8258 48.2864 31.0636 48.3544 31.1995C48.3544 31.2674 48.4223 31.3354 48.4563 31.4033C48.6601 31.8109 48.83 32.2865 48.9998 32.7281C48.9998 32.7621 48.9998 32.8301 49.0338 32.864V25.0509L49.1017 25.0848Z" fill="white"/>
<path d="M5.75584 34.5626C5.95966 34.7325 6.19745 34.8684 6.40127 35.0382C6.6051 35.1741 6.80892 35.276 7.01274 35.4119C7.82803 35.8875 8.74522 36.2951 9.69639 36.5669C9.83227 36.6009 9.96815 36.6348 10.104 36.6688C10.4777 36.7707 10.8853 36.8386 11.259 36.9066C11.3609 36.9066 11.4628 36.9066 11.5987 36.9406C11.8025 36.9406 11.9724 36.9745 12.1423 37.0085C12.448 37.0085 12.7537 37.0425 13.0934 37.0425C14.3163 37.0425 15.4713 37.2463 16.5924 37.586C16.7962 37.62 16.966 37.6879 17.1699 37.7558C17.7134 37.9597 18.2569 38.1975 18.7665 38.4692C18.9703 38.5711 19.1741 38.673 19.3779 38.8089C19.3779 38.8089 19.4459 38.8429 19.4798 38.8769C19.6497 38.9788 19.8195 39.0807 19.9894 39.2166C20.465 39.5223 20.8726 39.896 21.2803 40.2696C21.4161 40.4055 21.552 40.5414 21.6879 40.6773C21.8577 40.8471 22.0276 41.051 22.1975 41.2208C22.5032 41.5945 22.8089 41.9342 23.0467 42.3418C23.1826 42.5457 23.3524 42.7834 23.4883 43.0212C23.6242 42.8174 23.7261 42.5796 23.862 42.3418C23.862 42.3418 23.862 42.3079 23.862 42.2739C23.9299 42.172 23.9639 42.0701 23.9979 41.9342C24.0998 41.7304 24.1677 41.5605 24.2357 41.3567C24.2357 41.3567 24.2357 41.2888 24.2696 41.2548C24.3036 41.1189 24.3715 41.017 24.4055 40.8811C24.5074 40.6433 24.5754 40.4055 24.6433 40.1338C24.7113 39.862 24.7792 39.6242 24.8132 39.3864C24.9151 38.8769 24.983 38.3333 25.017 37.7898C25.017 37.5181 25.017 37.2463 25.017 36.9745C25.017 35.9894 24.8811 35.0043 24.6433 34.0531C24.3715 32.9321 23.9639 31.913 23.3864 30.9618C23.2166 30.69 23.0467 30.4183 22.8429 30.1465C22.0276 28.9575 21.0085 27.9384 19.8195 27.1232C19.5478 26.9193 19.276 26.7495 19.0042 26.5796C18.0531 26.0361 17 25.5945 15.913 25.3227C14.9618 25.5265 14.0106 25.6624 13.0255 25.6624C12.8896 25.6624 12.7197 25.6624 12.5839 25.6624C12.448 25.6624 12.2781 25.6624 12.1423 25.6624C11.8705 25.6624 11.5648 25.6285 11.293 25.5945C11.0892 25.5945 10.8853 25.5265 10.6815 25.4926C10.138 25.3907 9.59448 25.2548 9.01698 25.051C8.98301 25.051 8.94904 25.051 8.8811 25.017C8.77919 25.017 8.71125 24.9491 8.60934 24.9151C8.57537 24.9151 8.5414 24.9151 8.50743 24.8811C8.37155 24.8471 8.23567 24.7792 8.09979 24.7113C7.96391 24.6433 7.82802 24.5754 7.69214 24.5074C7.48832 24.4055 7.25053 24.3036 7.01274 24.1677C6.87686 24.0998 6.77495 24.0319 6.67304 23.9639C6.67304 23.9639 6.6051 23.9299 6.57113 23.896C6.26539 23.7261 5.95966 23.5223 5.65393 23.3185C4.15924 22.2654 2.90234 20.9066 1.98514 19.31C1.88323 19.1401 1.78132 18.9703 1.71338 18.8004C1.44161 18.2569 1.20382 17.7134 1 17.1699V25.2888C1.03397 27.3609 1.64544 29.2972 2.5966 30.9958C2.93631 31.6072 3.34395 32.1508 3.78556 32.6943C3.98938 32.966 4.26115 33.2378 4.49894 33.4756C4.70276 33.6454 4.87261 33.8493 5.07643 34.0191C5.24628 34.189 5.45011 34.3248 5.61996 34.4607L5.75584 34.5626Z" fill="white"/>
<path d="M23.0806 43.7686L22.8768 43.4289L22.673 43.0552C22.5371 42.8514 22.4352 42.6816 22.2993 42.5117C22.1974 42.3758 22.1295 42.2739 22.0275 42.138C21.8917 41.9682 21.7898 41.8323 21.6539 41.6964C21.518 41.5266 21.3481 41.3228 21.1783 41.1869C21.0424 41.051 20.9405 40.9151 20.8046 40.8132C20.397 40.4395 19.9893 40.0998 19.5817 39.8281C19.4118 39.6922 19.276 39.6242 19.1061 39.5223L18.9702 39.4544C18.7664 39.3185 18.5965 39.2166 18.3927 39.1147C18.1549 38.9788 17.9171 38.8429 17.6454 38.741C17.4076 38.6391 17.1358 38.5372 16.8641 38.4353C16.6942 38.3673 16.5244 38.3334 16.3545 38.2654C15.2675 37.9257 14.1804 37.7559 13.0254 37.7559H12.312C12.312 37.7559 12.1082 37.7219 12.0063 37.7219C11.8365 37.7219 11.6326 37.7219 11.3949 37.654C11.2929 37.654 11.1571 37.654 11.0551 37.62C10.6815 37.586 10.3078 37.4841 9.93413 37.3822H9.73031L9.66237 37.3143C9.66237 37.3143 9.52649 37.2803 9.49252 37.2803C8.40547 36.9746 7.4543 36.5329 6.60504 36.0234L5.99358 35.6497C5.78975 35.5138 5.58593 35.344 5.41608 35.2421C5.38211 35.2081 5.31417 35.1741 5.2802 35.1402C5.07638 34.9703 4.87256 34.8344 4.66874 34.6306C4.66874 34.6306 4.66874 34.6306 4.63477 34.5966C4.66874 35.31 4.80462 35.9894 5.00844 36.7028C5.55196 38.6731 6.57107 40.5414 8.09973 42.0701L14.2484 48.2187L14.9617 48.9321C14.9617 48.9321 15.1316 48.9321 15.1995 48.8981C16.5923 48.6603 17.8832 48.1847 19.0721 47.5053C20.6687 46.5881 22.0275 45.3312 23.0127 43.8026L23.0806 43.7686Z" fill="white"/>
<path d="M35.0722 43.8024C35.2081 43.5986 35.344 43.3948 35.4459 43.191C35.5478 43.0211 35.6497 42.8173 35.7516 42.6475C36.0573 42.1039 36.2951 41.4925 36.465 40.915C36.5329 40.7451 36.6008 40.5753 36.6348 40.4054C36.6348 40.3714 36.6348 40.3375 36.6348 40.2695C36.6688 40.0997 36.7367 39.9298 36.7707 39.76C36.8386 39.4542 36.9066 39.1825 36.9406 38.8768C36.9406 38.7748 36.9406 38.6729 36.9745 38.571C36.9745 38.4012 37.0085 38.2313 37.0085 38.0615C37.0085 37.7557 37.0425 37.416 37.0425 37.1103C37.0425 35.8534 37.2463 34.6305 37.586 33.5094C37.62 33.3396 37.6879 33.2037 37.7219 33.0339C37.9257 32.4903 38.1635 31.9468 38.4352 31.4373C38.5372 31.2334 38.673 31.0296 38.7749 30.8258C38.7749 30.8258 38.8089 30.7239 38.8429 30.6899C38.9448 30.5201 39.0467 30.3502 39.1826 30.1804C39.4883 29.7048 39.862 29.2971 40.2357 28.8895C40.3716 28.7536 40.5074 28.6177 40.6433 28.4818C40.8132 28.312 41.017 28.1421 41.1868 27.9723C41.5605 27.6666 41.9002 27.3608 42.3079 27.123C42.5117 26.9872 42.7495 26.8173 42.9873 26.6814C42.7834 26.5455 42.5456 26.4436 42.3079 26.3077C42.3079 26.3077 42.2739 26.3077 42.2399 26.3077C42.104 26.2398 41.9682 26.1719 41.8323 26.1039C41.7983 26.1039 41.7304 26.07 41.6964 26.036C41.5605 25.968 41.3907 25.9001 41.2548 25.8661C41.0849 25.7982 40.9151 25.7303 40.7452 25.6963C40.5754 25.6283 40.4055 25.5944 40.2357 25.5264C40.0658 25.4925 39.896 25.4245 39.7261 25.3906C39.5902 25.3566 39.4544 25.3226 39.3185 25.2886C39.1486 25.2547 38.9448 25.2207 38.7749 25.1867C38.741 25.1867 38.707 25.1867 38.673 25.1867C38.6391 25.1867 38.5711 25.1867 38.5372 25.1867H38.5032C38.2994 25.1528 38.0616 25.1188 37.8238 25.1188C37.6879 25.1188 37.552 25.1188 37.4161 25.1188C37.2803 25.1188 37.1444 25.1188 37.0085 25.1188C36.0234 25.1188 35.0382 25.2547 34.121 25.4925C33 25.7642 31.9809 26.2058 31.0297 26.7494C30.758 26.9192 30.4862 27.0891 30.2144 27.2929C29.0255 28.1082 28.0064 29.1273 27.1911 30.3162C26.9873 30.588 26.8174 30.8598 26.6476 31.1315C26.104 32.0827 25.6624 33.1358 25.3907 34.2228C25.6285 35.174 25.7304 36.1252 25.7304 37.1103C25.7304 37.416 25.7304 37.6878 25.7304 37.9935C25.7304 38.537 25.6285 39.1145 25.5265 39.6581C25.4926 39.9298 25.3907 40.2016 25.3227 40.4734C25.2548 40.7451 25.1868 41.0169 25.0849 41.2886C25.051 41.4245 25.017 41.5264 24.949 41.6283L24.8811 41.7642C24.8132 41.968 24.7113 42.1719 24.6093 42.4097C24.6093 42.5116 24.5074 42.6475 24.4395 42.8173C24.4055 42.9192 24.3376 43.0551 24.2696 43.157C24.2017 43.2589 24.1338 43.3948 24.0658 43.5307C23.9299 43.7685 23.7601 44.0063 23.6242 44.2441C23.5563 44.346 23.4883 44.4479 23.4204 44.5498C23.3524 44.6857 23.2505 44.7876 23.1486 44.9235C22.1295 46.2483 20.8726 47.3693 19.4119 48.1846C19.242 48.2865 19.0722 48.3884 18.9023 48.4903C18.3588 48.7621 17.8153 48.9999 17.2378 49.2037H25.0849C27.259 49.2037 29.2972 48.6262 31.0637 47.6071C31.6752 47.2674 32.2527 46.8598 32.7962 46.3842C33.0679 46.1804 33.3397 45.9426 33.5775 45.6708C33.7473 45.501 33.9172 45.3311 34.0531 45.1273C34.2229 44.9235 34.3928 44.7536 34.5287 44.5498C34.6985 44.346 34.8344 44.1421 34.9703 43.9383C34.9703 43.9383 34.9703 43.9383 34.9703 43.9044L35.0722 43.8024Z" fill="white"/>
<path d="M48.9318 35.0043C48.9318 34.8344 48.8638 34.6985 48.8299 34.5287C48.8299 34.4947 48.8299 34.4268 48.8299 34.3928C48.7619 34.121 48.694 33.8832 48.6261 33.6455C48.6261 33.5775 48.5921 33.4756 48.5581 33.4077C48.5581 33.2718 48.4902 33.1699 48.4562 33.068C48.2864 32.6263 48.1165 32.2187 47.9127 31.8111C47.8108 31.5733 47.6749 31.3355 47.539 31.1317C47.4031 30.9278 47.3012 30.724 47.1653 30.5202C47.1314 30.4523 47.0974 30.3843 47.0295 30.3164C46.8936 30.1465 46.7917 29.9767 46.6558 29.8068C46.5539 29.6709 46.418 29.5011 46.2821 29.3652C46.2821 29.3652 46.0783 29.1274 45.9764 28.9915C45.8405 28.8556 45.7046 28.7198 45.5687 28.5839C45.4328 28.448 45.263 28.2782 45.1271 28.1762C45.0252 28.0743 44.9233 27.9724 44.7874 27.8705C44.6855 27.7686 44.5836 27.6667 44.4477 27.5987C44.2439 27.4289 44.0401 27.293 43.8362 27.1571L43.5305 27.361L43.1568 27.5648C42.987 27.7007 42.8171 27.8026 42.6473 27.9385C42.5454 28.0064 42.4774 28.0743 42.3755 28.1423C42.1717 28.2782 42.0018 28.448 41.832 28.5839C41.6621 28.7198 41.4583 28.8896 41.3224 29.0595C41.1866 29.1953 41.0507 29.2973 40.9488 29.4331C40.5751 29.8408 40.2354 30.2484 39.9636 30.6561C39.8278 30.8259 39.7598 30.9618 39.6579 31.1317L39.59 31.2675C39.488 31.4714 39.3861 31.6412 39.2503 31.845C38.9785 32.3206 38.7747 32.8302 38.5709 33.3397L38.435 33.7813C38.0953 34.8684 37.8914 35.9894 37.8914 37.1784C37.8914 37.5181 37.8914 37.8578 37.8575 38.1975C37.8575 38.3673 37.8575 38.5372 37.8235 38.741V39.0467C37.7216 39.4204 37.6537 39.7261 37.5857 40.0319C37.5857 40.1678 37.5178 40.3036 37.4838 40.4735C37.4838 40.5414 37.4838 40.6094 37.4159 40.6773C37.3819 40.8472 37.314 41.017 37.246 41.1869C37.0422 41.8323 36.7704 42.4438 36.4647 43.0213C36.3968 43.1571 36.3288 43.293 36.2269 43.4629L36.125 43.6667C35.9891 43.8705 35.8532 44.0743 35.7174 44.2782L35.6494 44.3461C35.6494 44.3461 35.4456 44.6858 35.3097 44.8217C35.2757 44.8556 35.2418 44.9236 35.2078 44.9576C35.0379 45.1614 34.8681 45.3652 34.6982 45.569C35.4116 45.5351 36.125 45.3992 36.8044 45.2293C38.7747 44.6858 40.6091 43.6667 42.1717 42.1041L48.3203 35.9554L49.0337 35.2421C49.0337 35.1741 49.0337 35.1062 49.0337 35.0722L48.9318 35.0043Z" fill="white"/>
<path d="M29.7727 3.61562C29.5689 3.78547 29.3311 3.95532 29.1273 4.15914C28.7876 4.46488 28.4819 4.77061 28.1761 5.11031C27.9723 5.31413 27.8025 5.51795 27.6326 5.75575C27.4627 5.99354 27.2929 6.23133 27.123 6.46912L27.2929 6.77485C27.2929 6.77485 27.4288 7.01265 27.4967 7.14853C27.4967 7.14853 27.5307 7.21647 27.5647 7.25044C27.6326 7.38632 27.7005 7.48823 27.8025 7.59014C27.9383 7.79396 28.1082 7.99778 28.278 8.20161C28.4139 8.37146 28.5498 8.54131 28.6857 8.71116C28.7876 8.81307 28.8895 8.91498 28.9914 9.01689L29.3311 9.3566C29.3311 9.3566 29.501 9.52645 29.6029 9.59439C29.7388 9.73027 29.8746 9.83218 30.0105 9.93409C30.1804 10.07 30.3842 10.2398 30.554 10.3417C30.7579 10.4776 30.9277 10.6135 31.1315 10.7154C32.898 11.8025 34.9362 12.3799 37.0424 12.3799H37.7557C38.0615 12.4139 38.3332 12.4479 38.605 12.4819C38.639 12.4819 38.7069 12.4819 38.7409 12.4819C39.0466 12.5158 39.3184 12.5838 39.5901 12.6177C39.8959 12.6857 40.1676 12.7536 40.4734 12.8216C40.4734 12.8216 40.5413 12.8216 40.5753 12.8216C40.847 12.8895 41.1188 12.9914 41.3906 13.0933C41.6623 13.1952 41.9341 13.2971 42.2058 13.3991H42.2738C42.5456 13.5689 42.8173 13.7048 43.0891 13.8407C43.3608 13.9766 43.5986 14.1464 43.8704 14.2823C44.1422 14.4521 44.4139 14.656 44.6857 14.8258C44.9574 15.0296 45.2292 15.2335 45.467 15.4712C45.3991 14.7579 45.2971 14.0785 45.0933 13.3991C44.5498 11.4288 43.5307 9.56042 42.002 7.99778L35.8534 1.84916L35.14 1.13579C35.14 1.13579 34.9702 1.13579 34.9022 1.16976C33.5095 1.40755 32.2186 1.88313 31.0296 2.56254C30.554 2.8343 30.1124 3.14003 29.7048 3.44577L29.7727 3.61562Z" fill="white"/>
<path d="M14.792 7.01271C14.6561 7.21653 14.5203 7.45432 14.4184 7.69211C14.1466 8.20167 13.9428 8.71122 13.7729 9.25475C13.705 9.45857 13.637 9.69636 13.5691 9.90018C13.5012 10.104 13.4332 10.3418 13.3992 10.5796C13.3313 10.9193 13.2634 11.259 13.2294 11.5987C13.2294 11.8025 13.1954 11.9724 13.1615 12.1422C13.1615 12.448 13.1275 12.7537 13.1275 13.0934C13.1275 15.0637 12.6519 16.932 11.8026 18.5626C11.7347 18.6985 11.6668 18.8344 11.5649 18.9702C11.4969 19.1061 11.429 19.242 11.3271 19.3779C11.3271 19.3779 11.2931 19.4798 11.2591 19.5138C11.1572 19.6836 11.0553 19.8535 10.9194 20.0233C10.5457 20.5669 10.1381 21.0424 9.66252 21.518C9.4587 21.7218 9.25487 21.8917 9.05105 22.0955C8.64341 22.4692 8.23577 22.7749 7.79415 23.0806C7.59033 23.2165 7.35254 23.3864 7.11475 23.5223C7.35254 23.6581 7.59033 23.794 7.82812 23.8959C7.89606 23.9299 7.99797 23.9639 8.09988 24.0318C8.33768 24.1677 8.60944 24.2696 8.8812 24.3376C9.05105 24.4055 9.18693 24.4734 9.35678 24.5074C9.86634 24.6773 10.4099 24.8131 10.9194 24.915C11.1232 24.949 11.2931 24.983 11.4969 25.017C11.7687 25.0509 12.0404 25.0849 12.3122 25.0849C12.584 25.0849 12.8557 25.0849 13.1275 25.0849C14.1126 25.0849 15.0978 24.949 16.0489 24.7112C17.136 24.4395 18.1891 24.0318 19.1402 23.4883C19.446 23.3184 19.6837 23.1486 19.9555 22.9448C21.1445 22.1295 22.1636 21.1104 22.9789 19.9214C23.1827 19.6497 23.3525 19.3779 23.5224 19.0722C24.0659 18.121 24.5075 17.1019 24.7453 15.9809C24.5075 15.0297 24.4056 14.0446 24.4056 13.0594C24.4056 11.4968 24.6774 10.0021 25.2209 8.54137C25.3908 8.06579 25.6285 7.55623 25.9003 7.04668C25.9003 7.04668 25.9003 6.97874 25.9343 6.94477C25.9343 6.94477 25.9682 6.87683 25.9682 6.84286C25.9682 6.77492 26.0362 6.70698 26.0702 6.67301C26.274 6.3333 26.4778 5.9936 26.7156 5.6539C27.7687 4.15921 29.1275 2.93628 30.6901 2.01908C30.86 1.91717 31.0298 1.81526 31.1997 1.71335C31.7432 1.44158 32.2867 1.20379 32.8302 0.999969H25.0171C22.843 0.999969 20.8048 1.57746 19.0383 2.59657C18.4268 2.93628 17.8494 3.34392 17.3398 3.78553C17.068 3.98935 16.7963 4.26112 16.5585 4.49891C16.3547 4.70273 16.1848 4.90655 16.015 5.11037C15.8791 5.28022 15.7092 5.45008 15.6073 5.61993C15.4714 5.82375 15.3016 5.9936 15.1657 6.19742C15.0298 6.40124 14.86 6.63904 14.7241 6.87683L14.792 7.01271Z" fill="white"/>
<path d="M2.73242 19.1062C3.208 19.9215 3.78549 20.6688 4.43093 21.3482C4.56681 21.4841 4.70269 21.654 4.83857 21.7559C4.97445 21.8918 5.07637 21.9937 5.21225 22.0956C5.41607 22.2654 5.61989 22.4353 5.82371 22.6051C6.02753 22.775 6.23135 22.9109 6.43518 23.0467L6.77488 22.8429C6.77488 22.8429 7.01267 22.707 7.11458 22.6391C7.11458 22.6391 7.21649 22.5712 7.25046 22.5372C7.42031 22.4353 7.59017 22.3334 7.76002 22.1975C7.8959 22.0956 8.06575 21.9937 8.20163 21.8578C8.37148 21.7219 8.54133 21.586 8.71118 21.4162C8.84707 21.2803 9.01692 21.1444 9.1528 20.9746C9.22074 20.9066 9.32265 20.8047 9.39059 20.7368C9.4925 20.6349 9.56044 20.5669 9.62838 20.465C9.86617 20.1932 10.104 19.8875 10.3418 19.5818C10.4437 19.4459 10.5456 19.31 10.6135 19.1741L10.7494 18.9703C10.8173 18.8684 10.8853 18.8005 10.9193 18.6985L10.9872 18.5627C10.9872 18.5627 11.1231 18.3588 11.157 18.2569C11.9723 16.6603 12.4139 14.9278 12.4139 13.0935C12.4139 12.7537 12.4139 12.414 12.4479 12.0743C12.4479 11.9045 12.4479 11.7007 12.5159 11.4629C12.5159 11.1232 12.6178 10.7495 12.6857 10.4098C12.7536 10.138 12.7876 9.90025 12.8895 9.66245C12.9575 9.45863 13.0254 9.18687 13.0934 8.98305C13.2972 8.40555 13.501 7.86203 13.7728 7.35248C13.8747 7.11468 14.0105 6.87689 14.1464 6.6391C14.2823 6.36734 14.4522 6.12955 14.622 5.89175C14.7579 5.7219 14.8598 5.58602 14.9617 5.41617C14.9957 5.3822 15.0297 5.31426 15.0976 5.28029C15.2335 5.11044 15.4033 4.90662 15.5732 4.73676C15.5732 4.73676 15.6072 4.70279 15.6411 4.66882C14.9277 4.73676 14.2483 4.83867 13.5689 5.0425C11.7006 5.55205 9.90014 6.50322 8.40545 7.92997L2.01904 14.2824L1.30566 14.9958C1.30566 14.9958 1.30566 15.1656 1.33963 15.2336C1.57743 16.6264 2.05301 17.9172 2.73242 19.0722V19.1062Z" fill="white"/>
</svg>
