<svg width="387" height="49" viewBox="0 0 387 49" fill="none" xmlns="http://www.w3.org/2000/svg">
<g clip-path="url(#clip0_148_301)">
<path d="M48.1546 24.02V33.97L48.0042 34.12L47.9941 34.1C47.9941 34.04 47.9741 33.98 47.9641 33.92C47.9641 33.91 47.9641 33.9 47.954 33.89C47.924 33.73 47.8939 33.57 47.8638 33.41C47.8638 33.37 47.8438 33.32 47.8337 33.28C47.7736 33.02 47.7034 32.77 47.6332 32.53C47.6031 32.45 47.5831 32.37 47.553 32.29C47.5229 32.17 47.4828 32.06 47.4427 31.96C47.2823 31.53 47.1018 31.11 46.9013 30.7C46.791 30.47 46.6707 30.24 46.5404 30.02C45.4776 28.19 43.9637 26.68 42.139 25.63C41.9184 25.5 41.6878 25.38 41.4572 25.27C41.2968 25.19 41.1364 25.11 40.976 25.05C40.9259 25.02 40.8858 25 40.8356 24.99C40.6852 24.92 40.5349 24.86 40.3845 24.81C40.214 24.75 40.0536 24.69 39.8832 24.63C39.7127 24.57 39.5423 24.52 39.3718 24.47C39.2014 24.42 39.0209 24.38 38.8505 24.34C38.7101 24.3 38.5698 24.27 38.4294 24.25C38.2489 24.21 38.0685 24.18 37.888 24.16C37.8479 24.16 37.8178 24.14 37.7777 24.14C37.7376 24.13 37.6875 24.12 37.6474 24.12H37.5973C37.3767 24.08 37.1561 24.06 36.9255 24.05C36.7952 24.04 36.6648 24.03 36.5245 24.03C36.3841 24.02 36.2438 24.02 36.1134 24.02C33.9177 24.01 31.8624 23.43 30.0979 22.41C29.8071 22.24 29.5264 22.06 29.2557 21.87C28.0626 21.05 27.0399 20.03 26.2178 18.85C26.0273 18.58 25.8469 18.3 25.6764 18.01C24.6638 16.25 24.0723 14.2 24.0723 12.01C24.0723 10.51 24.353 9.07 24.8643 7.75C25.0849 7.14 25.3656 6.56 25.6864 6C26.679 7.74 28.1027 9.19 29.8171 10.23C31.6418 11.35 33.7974 12 36.1134 12C39.442 12.01 42.4498 13.36 44.6254 15.52C45.3674 16.26 46.019 17.1 46.5404 18.01C47.563 19.77 48.1445 21.82 48.1445 24.01L48.1546 24.02Z" fill="#011959"/>
<path d="M48.1546 24.02V33.97L48.0042 34.12L47.9941 34.1C47.9941 34.04 47.9741 33.98 47.9641 33.92C47.9641 33.91 47.9641 33.9 47.954 33.89C47.924 33.73 47.8939 33.57 47.8638 33.41C47.8638 33.37 47.8438 33.32 47.8337 33.28C47.7736 33.02 47.7034 32.77 47.6332 32.53C47.6031 32.45 47.5831 32.37 47.553 32.29C47.5229 32.17 47.4828 32.06 47.4427 31.96C47.2823 31.53 47.1018 31.11 46.9013 30.7C46.791 30.47 46.6707 30.24 46.5404 30.02C45.4776 28.19 43.9637 26.68 42.139 25.63C41.9184 25.5 41.6878 25.38 41.4572 25.27C41.2968 25.19 41.1364 25.11 40.976 25.05C40.9259 25.02 40.8858 25 40.8356 24.99C40.6852 24.92 40.5349 24.86 40.3845 24.81C40.214 24.75 40.0536 24.69 39.8832 24.63C39.7127 24.57 39.5423 24.52 39.3718 24.47C39.2014 24.42 39.0209 24.38 38.8505 24.34C38.7101 24.3 38.5698 24.27 38.4294 24.25C38.2489 24.21 38.0685 24.18 37.888 24.16C37.8479 24.16 37.8178 24.14 37.7777 24.14C37.7376 24.13 37.6875 24.12 37.6474 24.12H37.5973C37.3767 24.08 37.1561 24.06 36.9255 24.05C36.7952 24.04 36.6648 24.03 36.5245 24.03C36.3841 24.02 36.2438 24.02 36.1134 24.02C33.9177 24.01 31.8624 23.43 30.0979 22.41C29.8071 22.24 29.5264 22.06 29.2557 21.87C28.0626 21.05 27.0399 20.03 26.2178 18.85C26.0273 18.58 25.8469 18.3 25.6764 18.01C24.6638 16.25 24.0723 14.2 24.0723 12.01C24.0723 10.51 24.353 9.07 24.8643 7.75C25.0849 7.14 25.3656 6.56 25.6864 6C26.679 7.74 28.1027 9.19 29.8171 10.23C31.6418 11.35 33.7974 12 36.1134 12C39.442 12.01 42.4498 13.36 44.6254 15.52C45.3674 16.26 46.019 17.1 46.5404 18.01C47.563 19.77 48.1445 21.82 48.1445 24.01L48.1546 24.02Z" fill="url(#paint0_linear_148_301)"/>
<path d="M48.1546 24.02V33.97L48.0042 34.12L47.9941 34.1C47.9941 34.04 47.9741 33.98 47.9641 33.92C47.9641 33.91 47.9641 33.9 47.954 33.89C47.924 33.73 47.8939 33.57 47.8638 33.41C47.8638 33.37 47.8438 33.32 47.8337 33.28C47.7736 33.02 47.7034 32.77 47.6332 32.53C47.6031 32.45 47.5831 32.37 47.553 32.29C47.5229 32.17 47.4828 32.06 47.4427 31.96C47.2823 31.53 47.1018 31.11 46.9013 30.7C46.791 30.47 46.6707 30.24 46.5404 30.02C45.4776 28.19 43.9637 26.68 42.139 25.63C41.9184 25.5 41.6878 25.38 41.4572 25.27C41.2968 25.19 41.1364 25.11 40.976 25.05C40.9259 25.02 40.8858 25 40.8356 24.99C40.6852 24.92 40.5349 24.86 40.3845 24.81C40.214 24.75 40.0536 24.69 39.8832 24.63C39.7127 24.57 39.5423 24.52 39.3718 24.47C39.2014 24.42 39.0209 24.38 38.8505 24.34C38.7101 24.3 38.5698 24.27 38.4294 24.25C38.2489 24.21 38.0685 24.18 37.888 24.16C37.8479 24.16 37.8178 24.14 37.7777 24.14C37.7376 24.13 37.6875 24.12 37.6474 24.12H37.5973C37.3767 24.08 37.1561 24.06 36.9255 24.05C36.7952 24.04 36.6648 24.03 36.5245 24.03C36.3841 24.02 36.2438 24.02 36.1134 24.02C33.9177 24.01 31.8624 23.43 30.0979 22.41C29.8071 22.24 29.5264 22.06 29.2557 21.87C28.0626 21.05 27.0399 20.03 26.2178 18.85C26.0273 18.58 25.8469 18.3 25.6764 18.01C24.6638 16.25 24.0723 14.2 24.0723 12.01C24.0723 10.51 24.353 9.07 24.8643 7.75C25.0849 7.14 25.3656 6.56 25.6864 6C26.679 7.74 28.1027 9.19 29.8171 10.23C31.6418 11.35 33.7974 12 36.1134 12C39.442 12.01 42.4498 13.36 44.6254 15.52C45.3674 16.26 46.019 17.1 46.5404 18.01C47.563 19.77 48.1445 21.82 48.1445 24.01L48.1546 24.02Z" fill="url(#paint1_linear_148_301)"/>
<path d="M24.0723 36.03C24.0723 36.3 24.0622 36.58 24.0422 36.84C24.0121 37.38 23.9419 37.91 23.8317 38.43C23.7815 38.69 23.7214 38.94 23.6512 39.19C23.581 39.44 23.5108 39.69 23.4206 39.93C23.3805 40.05 23.3404 40.18 23.2902 40.3C23.2802 40.34 23.2602 40.37 23.2501 40.4C23.18 40.59 23.0998 40.78 22.9995 40.97C22.9494 41.1 22.8892 41.23 22.819 41.36C22.7087 41.59 22.5884 41.82 22.4581 42.04C22.0871 41.39 21.656 40.78 21.1648 40.22C21.0043 40.03 20.8339 39.84 20.6635 39.67C20.5331 39.53 20.3928 39.39 20.2524 39.27C19.8514 38.89 19.4202 38.54 18.959 38.22C18.7986 38.1 18.6282 37.99 18.4477 37.88C18.4176 37.86 18.3775 37.83 18.3374 37.81H18.3274C18.1269 37.68 17.9264 37.56 17.7158 37.46C17.2045 37.18 16.6731 36.94 16.1217 36.74C15.9312 36.67 15.7407 36.61 15.5402 36.56C14.4273 36.21 13.2543 36.03 12.0311 36.03C11.7103 36.02 11.3995 36.01 11.0887 35.98C10.9082 35.98 10.7177 35.95 10.5272 35.92C10.4169 35.91 10.3067 35.9 10.1964 35.88C9.79534 35.82 9.40433 35.74 9.02334 35.64C9.01332 35.64 9.00329 35.64 8.99327 35.63C8.8529 35.6 8.72257 35.56 8.5822 35.52C7.63976 35.24 6.73743 34.85 5.90528 34.36C5.69473 34.23 5.49421 34.1 5.29369 33.98C5.07312 33.82 4.85255 33.66 4.64201 33.5C4.46154 33.36 4.27105 33.21 4.10061 33.05C3.90009 32.87 3.7096 32.69 3.5191 32.51C2.77718 31.76 2.13552 30.93 1.60415 30.02C0.631634 28.34 0.0501297 26.39 0 24.32V14.07L0.160415 13.91C0.160415 14 0.180467 14.08 0.200519 14.16C0.441141 15.54 0.922386 16.84 1.60415 18.01C2.6669 19.83 4.19084 21.35 6.01556 22.41C6.33639 22.59 6.65722 22.76 6.9981 22.91C7.24875 23.03 7.50943 23.14 7.7701 23.23C7.93052 23.3 8.09093 23.36 8.25135 23.4C8.76267 23.57 9.29404 23.71 9.83544 23.81C10.0259 23.85 10.2164 23.88 10.4169 23.9C10.6776 23.94 10.9483 23.97 11.219 23.98C11.4797 24 11.7604 24.01 12.0311 24.01C14.2268 24.02 16.2821 24.61 18.0567 25.63C18.3374 25.79 18.6182 25.97 18.8889 26.16C20.0719 26.98 21.1046 28.01 21.9267 29.19C22.1172 29.46 22.2977 29.74 22.4581 30.02C23.4908 31.79 24.0723 33.84 24.0723 36.03Z" fill="#011959"/>
<path d="M24.0723 36.03C24.0723 36.3 24.0622 36.58 24.0422 36.84C24.0121 37.38 23.9419 37.91 23.8317 38.43C23.7815 38.69 23.7214 38.94 23.6512 39.19C23.581 39.44 23.5108 39.69 23.4206 39.93C23.3805 40.05 23.3404 40.18 23.2902 40.3C23.2802 40.34 23.2602 40.37 23.2501 40.4C23.18 40.59 23.0998 40.78 22.9995 40.97C22.9494 41.1 22.8892 41.23 22.819 41.36C22.7087 41.59 22.5884 41.82 22.4581 42.04C22.0871 41.39 21.656 40.78 21.1648 40.22C21.0043 40.03 20.8339 39.84 20.6635 39.67C20.5331 39.53 20.3928 39.39 20.2524 39.27C19.8514 38.89 19.4202 38.54 18.959 38.22C18.7986 38.1 18.6282 37.99 18.4477 37.88C18.4176 37.86 18.3775 37.83 18.3374 37.81H18.3274C18.1269 37.68 17.9264 37.56 17.7158 37.46C17.2045 37.18 16.6731 36.94 16.1217 36.74C15.9312 36.67 15.7407 36.61 15.5402 36.56C14.4273 36.21 13.2543 36.03 12.0311 36.03C11.7103 36.02 11.3995 36.01 11.0887 35.98C10.9082 35.98 10.7177 35.95 10.5272 35.92C10.4169 35.91 10.3067 35.9 10.1964 35.88C9.79534 35.82 9.40433 35.74 9.02334 35.64C9.01332 35.64 9.00329 35.64 8.99327 35.63C8.8529 35.6 8.72257 35.56 8.5822 35.52C7.63976 35.24 6.73743 34.85 5.90528 34.36C5.69473 34.23 5.49421 34.1 5.29369 33.98C5.07312 33.82 4.85255 33.66 4.64201 33.5C4.46154 33.36 4.27105 33.21 4.10061 33.05C3.90009 32.87 3.7096 32.69 3.5191 32.51C2.77718 31.76 2.13552 30.93 1.60415 30.02C0.631634 28.34 0.0501297 26.39 0 24.32V14.07L0.160415 13.91C0.160415 14 0.180467 14.08 0.200519 14.16C0.441141 15.54 0.922386 16.84 1.60415 18.01C2.6669 19.83 4.19084 21.35 6.01556 22.41C6.33639 22.59 6.65722 22.76 6.9981 22.91C7.24875 23.03 7.50943 23.14 7.7701 23.23C7.93052 23.3 8.09093 23.36 8.25135 23.4C8.76267 23.57 9.29404 23.71 9.83544 23.81C10.0259 23.85 10.2164 23.88 10.4169 23.9C10.6776 23.94 10.9483 23.97 11.219 23.98C11.4797 24 11.7604 24.01 12.0311 24.01C14.2268 24.02 16.2821 24.61 18.0567 25.63C18.3374 25.79 18.6182 25.97 18.8889 26.16C20.0719 26.98 21.1046 28.01 21.9267 29.19C22.1172 29.46 22.2977 29.74 22.4581 30.02C23.4908 31.79 24.0723 33.84 24.0723 36.03Z" fill="url(#paint2_linear_148_301)"/>
<path d="M24.0723 36.03C24.0723 36.3 24.0622 36.58 24.0422 36.84C24.0121 37.38 23.9419 37.91 23.8317 38.43C23.7815 38.69 23.7214 38.94 23.6512 39.19C23.581 39.44 23.5108 39.69 23.4206 39.93C23.3805 40.05 23.3404 40.18 23.2902 40.3C23.2802 40.34 23.2602 40.37 23.2501 40.4C23.18 40.59 23.0998 40.78 22.9995 40.97C22.9494 41.1 22.8892 41.23 22.819 41.36C22.7087 41.59 22.5884 41.82 22.4581 42.04C22.0871 41.39 21.656 40.78 21.1648 40.22C21.0043 40.03 20.8339 39.84 20.6635 39.67C20.5331 39.53 20.3928 39.39 20.2524 39.27C19.8514 38.89 19.4202 38.54 18.959 38.22C18.7986 38.1 18.6282 37.99 18.4477 37.88C18.4176 37.86 18.3775 37.83 18.3374 37.81H18.3274C18.1269 37.68 17.9264 37.56 17.7158 37.46C17.2045 37.18 16.6731 36.94 16.1217 36.74C15.9312 36.67 15.7407 36.61 15.5402 36.56C14.4273 36.21 13.2543 36.03 12.0311 36.03C11.7103 36.02 11.3995 36.01 11.0887 35.98C10.9082 35.98 10.7177 35.95 10.5272 35.92C10.4169 35.91 10.3067 35.9 10.1964 35.88C9.79534 35.82 9.40433 35.74 9.02334 35.64C9.01332 35.64 9.00329 35.64 8.99327 35.63C8.8529 35.6 8.72257 35.56 8.5822 35.52C7.63976 35.24 6.73743 34.85 5.90528 34.36C5.69473 34.23 5.49421 34.1 5.29369 33.98C5.07312 33.82 4.85255 33.66 4.64201 33.5C4.46154 33.36 4.27105 33.21 4.10061 33.05C3.90009 32.87 3.7096 32.69 3.5191 32.51C2.77718 31.76 2.13552 30.93 1.60415 30.02C0.631634 28.34 0.0501297 26.39 0 24.32V14.07L0.160415 13.91C0.160415 14 0.180467 14.08 0.200519 14.16C0.441141 15.54 0.922386 16.84 1.60415 18.01C2.6669 19.83 4.19084 21.35 6.01556 22.41C6.33639 22.59 6.65722 22.76 6.9981 22.91C7.24875 23.03 7.50943 23.14 7.7701 23.23C7.93052 23.3 8.09093 23.36 8.25135 23.4C8.76267 23.57 9.29404 23.71 9.83544 23.81C10.0259 23.85 10.2164 23.88 10.4169 23.9C10.6776 23.94 10.9483 23.97 11.219 23.98C11.4797 24 11.7604 24.01 12.0311 24.01C14.2268 24.02 16.2821 24.61 18.0567 25.63C18.3374 25.79 18.6182 25.97 18.8889 26.16C20.0719 26.98 21.1046 28.01 21.9267 29.19C22.1172 29.46 22.2977 29.74 22.4581 30.02C23.4908 31.79 24.0723 33.84 24.0723 36.03Z" fill="url(#paint3_linear_148_301)"/>
<path d="M22.458 42.04C21.4053 43.86 19.8814 45.38 18.0567 46.43C16.8736 47.11 15.5702 47.6 14.1766 47.84C14.0964 47.86 14.0162 47.88 13.936 47.88L7.03815 41C5.49415 39.46 4.46148 37.6 3.93011 35.62C3.65941 34.6 3.51904 33.55 3.51904 32.51C3.70954 32.69 3.90003 32.87 4.10055 33.05C4.27099 33.21 4.46148 33.36 4.64195 33.5C4.85249 33.66 5.07306 33.82 5.29363 33.98C5.49415 34.1 5.69467 34.23 5.90522 34.36C6.73737 34.85 7.6397 35.24 8.58214 35.52C8.7225 35.56 8.85284 35.6 8.9932 35.63C9.00323 35.64 9.01326 35.64 9.02328 35.64C9.40427 35.74 9.79528 35.82 10.1963 35.88C10.3066 35.9 10.4169 35.91 10.5272 35.92C10.7177 35.95 10.9082 35.97 11.0886 35.98C11.3994 36.01 11.7102 36.02 12.0311 36.02C13.2542 36.03 14.4273 36.21 15.5401 36.56C15.7407 36.61 15.9312 36.67 16.1216 36.74C16.6731 36.94 17.2044 37.18 17.7158 37.46C17.9263 37.57 18.1268 37.69 18.3274 37.81H18.3374C18.3374 37.81 18.4176 37.86 18.4477 37.88C18.6281 37.99 18.7986 38.1 18.959 38.22C19.4202 38.54 19.8513 38.89 20.2523 39.27C20.3927 39.39 20.5331 39.53 20.6634 39.67C20.8338 39.84 21.0043 40.03 21.1647 40.22C21.656 40.78 22.0871 41.39 22.458 42.04Z" fill="#011959"/>
<path d="M42.139 25.63C41.4873 26 40.8757 26.43 40.3143 26.92C40.1238 27.08 39.9333 27.25 39.7628 27.42C39.6225 27.55 39.4821 27.69 39.3618 27.83C38.9808 28.23 38.6299 28.66 38.3091 29.12C38.1888 29.28 38.0785 29.45 37.9682 29.63C37.9481 29.66 37.9181 29.7 37.898 29.74C37.7777 29.95 37.6574 30.15 37.5471 30.36C37.2664 30.86 37.0258 31.4 36.8252 31.95C36.7751 32.1 36.725 32.25 36.6748 32.41C36.3039 33.55 36.1134 34.76 36.1134 36.02C36.1134 36.35 36.1034 36.66 36.0733 36.98C36.0633 37.15 36.0432 37.33 36.0232 37.5C36.0232 37.6 35.9931 37.71 35.9831 37.81C35.9329 38.11 35.8828 38.4 35.8026 38.69C35.7725 38.86 35.7324 39.02 35.6823 39.19C35.6823 39.23 35.6723 39.27 35.6522 39.31C35.6121 39.48 35.5519 39.65 35.4918 39.81C35.3013 40.41 35.0607 40.99 34.7599 41.55C34.6697 41.73 34.5694 41.92 34.4591 42.1C34.4591 42.11 34.4591 42.12 34.4591 42.13C34.3288 42.34 34.1984 42.54 34.0681 42.74C34.0581 42.76 34.048 42.77 34.038 42.78C33.8977 42.99 33.7473 43.2 33.5869 43.4C33.4264 43.6 33.266 43.8 33.0956 43.99C32.9352 44.17 32.7647 44.35 32.6043 44.52C31.8524 45.26 31.0102 45.9 30.0978 46.43C28.3232 47.45 26.2679 48.04 24.0823 48.04H14.1065L13.946 47.88C14.0263 47.88 14.1065 47.86 14.1867 47.84C15.5803 47.6 16.8836 47.11 18.0667 46.43C19.8914 45.38 21.4154 43.86 22.4681 42.04C22.5984 41.82 22.7187 41.59 22.829 41.36C22.8992 41.23 22.9594 41.1 23.0095 40.97C23.1098 40.78 23.19 40.59 23.2601 40.4C23.2702 40.37 23.2902 40.34 23.3002 40.3C23.3504 40.18 23.3905 40.05 23.4306 39.93C23.5208 39.69 23.591 39.44 23.6612 39.19C23.7314 38.94 23.7915 38.69 23.8416 38.43C23.9519 37.91 24.0221 37.38 24.0522 36.84C24.0722 36.58 24.0823 36.3 24.0823 36.03C24.0823 33.84 24.6738 31.79 25.6964 30.02C25.8569 29.74 26.0373 29.47 26.2278 29.2C27.0399 28.01 28.0726 26.98 29.2657 26.16C29.5364 25.97 29.8171 25.79 30.0978 25.63C31.8724 24.61 33.9277 24.02 36.1234 24.02C36.2538 24.02 36.3941 24.02 36.5345 24.03C36.6748 24.03 36.8052 24.03 36.9355 24.05C37.1661 24.06 37.3867 24.08 37.6073 24.12H37.6574C37.6574 24.12 37.7476 24.13 37.7877 24.14C37.8278 24.14 37.8579 24.15 37.898 24.16C38.0785 24.18 38.2589 24.21 38.4394 24.25C38.5798 24.27 38.7201 24.3 38.8605 24.34C39.0309 24.38 39.2114 24.42 39.3818 24.47C39.5523 24.52 39.7227 24.57 39.8932 24.63C40.0636 24.69 40.224 24.75 40.3945 24.81C40.5449 24.86 40.6952 24.92 40.8456 24.99C40.8958 25 40.9359 25.02 40.986 25.05C41.1464 25.11 41.3068 25.19 41.4672 25.27C41.6978 25.38 41.9284 25.5 42.149 25.63H42.139Z" fill="url(#paint4_linear_148_301)"/>
<path d="M48.0041 34.12H47.9941L41.0962 41C39.5422 42.55 37.6774 43.59 35.7123 44.12C34.6997 44.39 33.657 44.52 32.6042 44.52C32.7647 44.35 32.9351 44.17 33.0955 43.99C33.266 43.8 33.4264 43.6 33.5868 43.4C33.7472 43.2 33.8976 42.99 34.038 42.78C34.048 42.77 34.058 42.76 34.068 42.74C34.1984 42.54 34.3287 42.34 34.459 42.13C34.459 42.12 34.459 42.11 34.459 42.1C34.5693 41.92 34.6696 41.73 34.7598 41.55C35.0606 40.99 35.3012 40.41 35.4917 39.81C35.5519 39.65 35.612 39.48 35.6521 39.31C35.6722 39.27 35.6822 39.23 35.6822 39.19C35.7323 39.02 35.7724 38.86 35.8025 38.69C35.8827 38.4 35.9329 38.11 35.983 37.81C35.993 37.71 36.0131 37.6 36.0231 37.5C36.0431 37.33 36.0632 37.15 36.0732 36.98C36.1033 36.66 36.1133 36.35 36.1133 36.03C36.1133 34.76 36.3038 33.55 36.6748 32.41C36.7249 32.25 36.775 32.1 36.8252 31.95C37.0257 31.4 37.2663 30.86 37.547 30.36C37.6573 30.15 37.7776 29.95 37.8979 29.75C37.8979 29.75 37.9481 29.66 37.9681 29.63C38.0784 29.45 38.1887 29.28 38.309 29.12C38.6298 28.66 38.9807 28.23 39.3617 27.83C39.482 27.69 39.6224 27.55 39.7628 27.42C39.9332 27.25 40.1237 27.08 40.3142 26.92C40.8756 26.43 41.4872 26 42.1389 25.63C43.9636 26.68 45.4775 28.19 46.5403 30.01C46.6706 30.24 46.7909 30.47 46.9012 30.7C47.1018 31.11 47.2822 31.53 47.4426 31.96C47.4827 32.06 47.5228 32.17 47.5529 32.29C47.583 32.37 47.603 32.45 47.6331 32.53C47.7033 32.77 47.7735 33.02 47.8336 33.28C47.8437 33.32 47.8537 33.37 47.8637 33.41C47.8938 33.57 47.9239 33.73 47.954 33.89C47.964 33.9 47.964 33.91 47.964 33.92C47.974 33.98 47.984 34.04 47.9941 34.1C47.9941 34.1 48.0041 34.11 48.0041 34.12Z" fill="#011959"/>
<path d="M36.1135 12.01C33.7975 12 31.6419 11.35 29.8172 10.23C28.1028 9.18997 26.6791 7.73997 25.6865 5.99997C26.7392 4.17997 28.2632 2.65997 30.0879 1.60997C31.271 0.929973 32.5743 0.439973 33.9679 0.199973C34.0482 0.179973 34.1284 0.159973 34.2086 0.159973L41.0964 7.02997C42.6504 8.57997 43.6831 10.44 44.2145 12.42C44.4852 13.43 44.6255 14.48 44.6255 15.52C42.4499 13.36 39.4421 12.01 36.1135 12.01Z" fill="#011959"/>
<path d="M34.2086 0.16C34.1283 0.16 34.0481 0.18 33.9679 0.2C32.5743 0.44 31.271 0.93 30.0879 1.61C28.2632 2.66 26.7392 4.18 25.6865 6C25.3657 6.56 25.085 7.14 24.8644 7.75C24.3531 9.07 24.0723 10.51 24.0723 12.01C24.0723 14.2 23.4908 16.25 22.4682 18.01C22.2977 18.3 22.1173 18.58 21.9268 18.85C21.1047 20.03 20.072 21.06 18.8789 21.87C18.6082 22.07 18.3375 22.24 18.0467 22.41C16.2822 23.43 14.2269 24.01 12.0312 24.01C11.7605 24.01 11.4798 24 11.2191 23.98C10.9484 23.98 10.6777 23.94 10.417 23.9C10.2165 23.88 10.026 23.85 9.83551 23.81C9.29411 23.71 8.76273 23.57 8.25141 23.4C8.09099 23.35 7.93058 23.29 7.77016 23.23C7.50949 23.14 7.24882 23.03 6.99817 22.91C6.65728 22.76 6.33645 22.59 6.01562 22.41C7.52954 21.54 8.83291 20.34 9.83551 18.92C9.95582 18.76 10.0661 18.59 10.1764 18.41C10.1964 18.38 10.2265 18.34 10.2466 18.3C10.3368 18.16 10.417 18.03 10.4772 17.89C10.5674 17.76 10.6376 17.62 10.7078 17.48C11.56 15.84 12.0312 13.98 12.0312 12.01C12.0312 11.68 12.0412 11.37 12.0713 11.06C12.0713 10.88 12.1014 10.69 12.1314 10.5C12.1716 10.15 12.2317 9.81 12.3019 9.47C12.352 9.24 12.4021 9.02 12.4723 8.8C12.5325 8.58 12.5926 8.36 12.6728 8.15C12.8533 7.61 13.0639 7.1 13.3245 6.6C13.4348 6.37 13.5652 6.14 13.6955 5.92C13.8359 5.68 13.9762 5.45 14.1266 5.23C14.267 5.03 14.4174 4.83 14.5677 4.64C14.6981 4.46 14.8384 4.29 14.9888 4.13C15.1693 3.92 15.3598 3.72 15.5503 3.52C16.3022 2.78 17.1444 2.14 18.0568 1.61C19.8314 0.59 21.8867 0 24.0723 0H34.0481L34.2086 0.16Z" fill="#011959"/>
<path d="M34.2086 0.16C34.1283 0.16 34.0481 0.18 33.9679 0.2C32.5743 0.44 31.271 0.93 30.0879 1.61C28.2632 2.66 26.7392 4.18 25.6865 6C25.3657 6.56 25.085 7.14 24.8644 7.75C24.3531 9.07 24.0723 10.51 24.0723 12.01C24.0723 14.2 23.4908 16.25 22.4682 18.01C22.2977 18.3 22.1173 18.58 21.9268 18.85C21.1047 20.03 20.072 21.06 18.8789 21.87C18.6082 22.07 18.3375 22.24 18.0467 22.41C16.2822 23.43 14.2269 24.01 12.0312 24.01C11.7605 24.01 11.4798 24 11.2191 23.98C10.9484 23.98 10.6777 23.94 10.417 23.9C10.2165 23.88 10.026 23.85 9.83551 23.81C9.29411 23.71 8.76273 23.57 8.25141 23.4C8.09099 23.35 7.93058 23.29 7.77016 23.23C7.50949 23.14 7.24882 23.03 6.99817 22.91C6.65728 22.76 6.33645 22.59 6.01562 22.41C7.52954 21.54 8.83291 20.34 9.83551 18.92C9.95582 18.76 10.0661 18.59 10.1764 18.41C10.1964 18.38 10.2265 18.34 10.2466 18.3C10.3368 18.16 10.417 18.03 10.4772 17.89C10.5674 17.76 10.6376 17.62 10.7078 17.48C11.56 15.84 12.0312 13.98 12.0312 12.01C12.0312 11.68 12.0412 11.37 12.0713 11.06C12.0713 10.88 12.1014 10.69 12.1314 10.5C12.1716 10.15 12.2317 9.81 12.3019 9.47C12.352 9.24 12.4021 9.02 12.4723 8.8C12.5325 8.58 12.5926 8.36 12.6728 8.15C12.8533 7.61 13.0639 7.1 13.3245 6.6C13.4348 6.37 13.5652 6.14 13.6955 5.92C13.8359 5.68 13.9762 5.45 14.1266 5.23C14.267 5.03 14.4174 4.83 14.5677 4.64C14.6981 4.46 14.8384 4.29 14.9888 4.13C15.1693 3.92 15.3598 3.72 15.5503 3.52C16.3022 2.78 17.1444 2.14 18.0568 1.61C19.8314 0.59 21.8867 0 24.0723 0H34.0481L34.2086 0.16Z" fill="url(#paint5_linear_148_301)"/>
<path d="M34.2086 0.16C34.1283 0.16 34.0481 0.18 33.9679 0.2C32.5743 0.44 31.271 0.93 30.0879 1.61C28.2632 2.66 26.7392 4.18 25.6865 6C25.3657 6.56 25.085 7.14 24.8644 7.75C24.3531 9.07 24.0723 10.51 24.0723 12.01C24.0723 14.2 23.4908 16.25 22.4682 18.01C22.2977 18.3 22.1173 18.58 21.9268 18.85C21.1047 20.03 20.072 21.06 18.8789 21.87C18.6082 22.07 18.3375 22.24 18.0467 22.41C16.2822 23.43 14.2269 24.01 12.0312 24.01C11.7605 24.01 11.4798 24 11.2191 23.98C10.9484 23.98 10.6777 23.94 10.417 23.9C10.2165 23.88 10.026 23.85 9.83551 23.81C9.29411 23.71 8.76273 23.57 8.25141 23.4C8.09099 23.35 7.93058 23.29 7.77016 23.23C7.50949 23.14 7.24882 23.03 6.99817 22.91C6.65728 22.76 6.33645 22.59 6.01562 22.41C7.52954 21.54 8.83291 20.34 9.83551 18.92C9.95582 18.76 10.0661 18.59 10.1764 18.41C10.1964 18.38 10.2265 18.34 10.2466 18.3C10.3368 18.16 10.417 18.03 10.4772 17.89C10.5674 17.76 10.6376 17.62 10.7078 17.48C11.56 15.84 12.0312 13.98 12.0312 12.01C12.0312 11.68 12.0412 11.37 12.0713 11.06C12.0713 10.88 12.1014 10.69 12.1314 10.5C12.1716 10.15 12.2317 9.81 12.3019 9.47C12.352 9.24 12.4021 9.02 12.4723 8.8C12.5325 8.58 12.5926 8.36 12.6728 8.15C12.8533 7.61 13.0639 7.1 13.3245 6.6C13.4348 6.37 13.5652 6.14 13.6955 5.92C13.8359 5.68 13.9762 5.45 14.1266 5.23C14.267 5.03 14.4174 4.83 14.5677 4.64C14.6981 4.46 14.8384 4.29 14.9888 4.13C15.1693 3.92 15.3598 3.72 15.5503 3.52C16.3022 2.78 17.1444 2.14 18.0568 1.61C19.8314 0.59 21.8867 0 24.0723 0H34.0481L34.2086 0.16Z" fill="url(#paint6_linear_148_301)"/>
<path d="M15.5502 3.52002C15.3597 3.72002 15.1692 3.92002 14.9888 4.13002C14.8384 4.29002 14.698 4.46002 14.5677 4.64002C14.4173 4.83002 14.2669 5.03002 14.1265 5.23002C13.9761 5.45002 13.8358 5.68002 13.6954 5.92002C13.5651 6.14002 13.4347 6.37002 13.3245 6.60002C13.0638 7.10002 12.8532 7.61002 12.6728 8.15002C12.5926 8.36002 12.5324 8.58002 12.4722 8.80002C12.4021 9.02002 12.3519 9.24002 12.3018 9.47002C12.2316 9.81002 12.1715 10.15 12.1314 10.5C12.1013 10.69 12.0812 10.88 12.0712 11.06C12.0411 11.37 12.0311 11.68 12.0311 12C12.0311 13.98 11.5599 15.84 10.7077 17.48C10.6375 17.62 10.5673 17.76 10.4771 17.89C10.4169 18.03 10.3367 18.16 10.2465 18.29C10.2264 18.34 10.1964 18.38 10.1763 18.41C10.066 18.59 9.95574 18.76 9.83543 18.92C8.83284 20.34 7.52946 21.54 6.01555 22.41C4.19083 21.35 2.66688 19.83 1.60414 18.01C0.922372 16.84 0.441127 15.54 0.200504 14.16C0.180452 14.08 0.1604 14 0.1604 13.91L7.25876 6.83002C8.76265 5.40002 10.5573 4.43002 12.4422 3.93002C13.4548 3.66002 14.5075 3.52002 15.5502 3.52002Z" fill="#011959"/>
<path d="M267.231 12.01V18.13H248.673C248.613 18.13 248.553 18.13 248.493 18.15C248.072 18.15 247.66 18.19 247.259 18.27C245.735 18.56 244.372 19.3 243.329 20.35C242.006 21.67 241.164 23.47 241.124 25.48V18.13H241.114V12.01H267.241H267.231Z" fill="url(#paint7_linear_148_301)"/>
<path d="M316.94 18.26V36.03H310.804V25.67C310.804 23.59 311.646 21.71 313.02 20.34C314.062 19.29 315.426 18.55 316.94 18.26Z" fill="url(#paint8_linear_148_301)"/>
<path d="M207.497 36.03V12.01H201.361V36.03H207.497Z" fill="url(#paint9_linear_148_301)"/>
<path d="M149.186 20.96C147.1 20.96 145.215 21.8 143.842 23.17C142.468 24.54 141.636 26.41 141.636 28.49V12.01H147.772V20.96H149.186Z" fill="url(#paint10_linear_148_301)"/>
<path d="M167.754 12.01V19.55C167.754 21.63 166.902 23.51 165.538 24.88C164.215 26.21 162.4 27.04 160.385 27.08H147.772V36.03H141.636V28.49C141.636 26.41 142.478 24.53 143.842 23.17C145.205 21.81 147.1 20.96 149.186 20.96H161.608V12.01H167.754Z" fill="url(#paint11_linear_148_301)"/>
<path d="M167.754 19.55V36.03H161.608V27.08H160.385C162.4 27.04 164.215 26.21 165.538 24.88C166.902 23.51 167.754 21.63 167.754 19.55Z" fill="url(#paint12_linear_148_301)"/>
<path d="M108.049 28.5V28.52C108.049 29 107.999 29.45 107.899 29.91C107.247 33.39 104.189 36.03 100.5 36.03H89.4714C85.7819 36.03 82.724 33.39 82.0723 29.91C81.972 29.45 81.9219 29 81.9219 28.52H88.0578C88.0778 29.29 88.7094 29.91 89.4714 29.91H100.51C102.585 29.9 104.47 29.07 105.834 27.7C106.485 27.05 107.017 26.29 107.388 25.44C107.628 25.96 107.799 26.51 107.899 27.09C107.999 27.54 108.049 28.02 108.049 28.5Z" fill="url(#paint13_linear_148_301)"/>
<path d="M107.388 25.44C107.017 26.29 106.485 27.05 105.834 27.7C104.47 29.07 102.585 29.9 100.51 29.91C101.282 29.9 101.903 29.29 101.914 28.52V28.5C101.914 27.71 101.282 27.09 100.5 27.09H89.4713C86.9949 27.09 84.7792 25.88 83.4156 24.03C83.0848 23.59 82.8041 23.11 82.5835 22.6C82.9545 21.75 83.4858 20.99 84.1375 20.35C85.501 18.98 87.3859 18.15 89.4613 18.14C88.6893 18.15 88.0577 18.77 88.0577 19.55C88.0577 20.33 88.6993 20.96 89.4713 20.96H100.5C102.996 20.96 105.212 22.17 106.566 24.03C106.896 24.46 107.177 24.93 107.388 25.44Z" fill="url(#paint14_linear_148_301)"/>
<path opacity="0.5" d="M241.114 25.48V25.86C241.104 25.8 241.104 25.73 241.104 25.67C241.104 25.61 241.104 25.54 241.114 25.48Z" fill="#F02021"/>
<path d="M261.095 20.96V27.08H247.25V36.03H241.114V25.48C241.154 23.47 241.996 21.67 243.319 20.35C244.362 19.3 245.726 18.56 247.25 18.27C247.651 18.19 248.062 18.15 248.483 18.15C247.781 18.23 247.25 18.83 247.25 19.55C247.25 20.33 247.871 20.96 248.663 20.96H261.085H261.095Z" fill="url(#paint15_linear_148_301)"/>
<path d="M108.049 19.55H101.914C101.914 18.77 101.282 18.14 100.5 18.14H89.4614C87.386 18.15 85.5011 18.98 84.1376 20.35C83.4859 20.99 82.9546 21.75 82.5836 22.6C82.353 22.08 82.1826 21.53 82.0723 20.96C81.972 20.51 81.9219 20.03 81.9219 19.55C81.9219 19.07 81.972 18.6 82.0723 18.14C82.724 14.66 85.8019 12.02 89.4714 12.02H100.5C104.179 12.02 107.247 14.66 107.899 18.14C107.999 18.6 108.049 19.07 108.049 19.55Z" fill="url(#paint16_linear_148_301)"/>
<path d="M326.936 12.01V18.14H316.94V18.26C315.426 18.55 314.062 19.29 313.02 20.34C311.646 21.71 310.804 23.59 310.804 25.67V18.14H300.798V12.01H326.936Z" fill="url(#paint17_linear_148_301)"/>
<path opacity="0.5" d="M160.384 27.08C160.324 27.09 160.254 27.09 160.194 27.09C160.134 27.09 160.064 27.09 160.004 27.08H160.384Z" fill="#F02021"/>
<path d="M372.934 17.9C372.864 17.98 372.814 18.06 372.754 18.14H373.114C373.054 18.06 372.984 17.98 372.934 17.9Z" fill="black"/>
<path d="M386.56 19.55V28.49C386.56 28.97 386.51 29.45 386.41 29.91C385.758 33.39 382.7 36.03 379.01 36.03H367.982C364.282 36.03 361.224 33.39 360.573 29.91C360.473 29.45 360.422 28.97 360.422 28.49H366.558C366.558 29.28 367.2 29.91 367.982 29.91H379.01C379.081 29.91 379.141 29.91 379.201 29.89C379.231 29.9 379.261 29.9 379.281 29.89C379.291 29.89 379.291 29.88 379.291 29.88C379.933 29.75 380.424 29.18 380.424 28.49C380.424 27.73 379.813 27.11 379.071 27.09C381.126 27.07 383.001 26.23 384.344 24.88C385.397 23.83 386.139 22.48 386.43 20.97C386.51 20.5 386.56 20.03 386.56 19.55Z" fill="url(#paint18_linear_148_301)"/>
<path opacity="0.5" d="M379.07 27.09H379C378.94 27.09 378.87 27.09 378.81 27.08H379.01C379.01 27.08 379.05 27.08 379.07 27.09Z" fill="#F02021"/>
<path opacity="0.5" d="M373.114 18.14H372.754C372.814 18.06 372.864 17.98 372.934 17.9C372.984 17.98 373.054 18.06 373.114 18.14Z" fill="#F02021"/>
<path opacity="0.5" d="M379.07 27.09H379C378.94 27.09 378.87 27.09 378.81 27.08H379.01C379.01 27.08 379.05 27.08 379.07 27.09Z" fill="#F02021"/>
<path d="M386.56 19.55C386.56 20.03 386.51 20.5 386.43 20.96C386.139 22.48 385.397 23.83 384.344 24.88C383.001 26.23 381.126 27.07 379.071 27.09C379.05 27.08 379.03 27.08 379.01 27.08H367.982C365.485 27.08 363.28 25.88 361.906 24.03C361.585 23.59 361.305 23.11 361.074 22.61C361.455 21.76 361.986 21 362.638 20.35C364.002 18.98 365.896 18.14 367.982 18.14C367.2 18.14 366.558 18.76 366.558 19.55C366.558 20.34 367.2 20.96 367.982 20.96H379.02C381.096 20.95 382.981 20.12 384.344 18.75C384.615 18.49 384.855 18.2 385.076 17.9C385.407 17.47 385.678 17.01 385.898 16.51C385.958 16.63 386.008 16.75 386.059 16.87C386.139 17.1 386.219 17.34 386.279 17.58C386.329 17.75 386.369 17.94 386.41 18.12V18.14C386.46 18.37 386.5 18.6 386.52 18.83C386.55 19.07 386.56 19.31 386.56 19.55Z" fill="url(#paint19_linear_148_301)"/>
<path opacity="0.5" d="M373.114 18.14H372.754C372.814 18.06 372.864 17.98 372.934 17.9C372.984 17.98 373.054 18.06 373.114 18.14Z" fill="#F02021"/>
<path opacity="0.5" d="M379.692 12.05C379.472 12.03 379.241 12.02 379.01 12.02H378.81C378.87 12.01 378.94 12.01 379 12.01C379.231 12.01 379.462 12.02 379.692 12.05Z" fill="#F02021"/>
<path opacity="0.5" d="M384.314 14.2C384.013 13.9 383.682 13.63 383.332 13.38C383.682 13.61 384.013 13.89 384.314 14.2Z" fill="#F02021"/>
<path opacity="0.5" d="M384.705 14.61C384.575 14.47 384.445 14.33 384.314 14.2C384.324 14.2 384.334 14.21 384.344 14.22C384.475 14.35 384.595 14.48 384.705 14.61Z" fill="#F02021"/>
<path opacity="0.5" d="M386.058 16.87C386.008 16.75 385.958 16.63 385.898 16.51C385.868 16.43 385.838 16.35 385.798 16.28C385.848 16.34 385.878 16.42 385.908 16.49C385.968 16.61 386.018 16.74 386.058 16.87Z" fill="#F02021"/>
<path d="M385.898 16.51C385.678 17.01 385.407 17.47 385.076 17.9C384.856 18.2 384.615 18.49 384.344 18.75C382.981 20.12 381.096 20.95 379.02 20.96C379.792 20.95 380.424 20.32 380.424 19.55C380.424 18.78 379.782 18.14 379.01 18.14H373.115C373.055 18.06 372.985 17.98 372.935 17.9C372.865 17.98 372.814 18.06 372.754 18.14H367.982C365.897 18.14 364.002 18.98 362.638 20.35C361.986 21 361.455 21.76 361.074 22.61C360.843 22.09 360.673 21.54 360.573 20.96C360.473 20.51 360.422 20.03 360.422 19.55C360.422 19.07 360.473 18.59 360.573 18.14C361.224 14.65 364.292 12.02 367.982 12.02H379.01C379.241 12.02 379.472 12.03 379.692 12.05C379.913 12.07 380.133 12.1 380.354 12.14C380.575 12.18 380.795 12.23 381.006 12.29C381.216 12.34 381.427 12.41 381.627 12.49C381.828 12.56 382.028 12.65 382.229 12.74C382.419 12.83 382.6 12.93 382.79 13.04H382.82C382.991 13.15 383.171 13.26 383.332 13.38C383.683 13.63 384.013 13.9 384.314 14.2C384.445 14.33 384.575 14.47 384.705 14.61C384.735 14.63 384.755 14.66 384.765 14.68C384.856 14.79 384.936 14.9 385.026 15.01C385.086 15.08 385.146 15.15 385.186 15.23C385.277 15.36 385.357 15.49 385.437 15.62C385.477 15.66 385.507 15.7 385.517 15.75C385.618 15.92 385.708 16.1 385.798 16.28C385.838 16.35 385.868 16.43 385.898 16.51Z" fill="url(#paint20_linear_148_301)"/>
<path opacity="0.5" d="M379.692 12.05C379.472 12.03 379.241 12.02 379.01 12.02H378.81C378.87 12.01 378.94 12.01 379 12.01C379.231 12.01 379.462 12.02 379.692 12.05Z" fill="#F02021"/>
<path opacity="0.5" d="M384.314 14.2C384.013 13.9 383.682 13.63 383.332 13.38C383.682 13.61 384.013 13.89 384.314 14.2Z" fill="#F02021"/>
<path opacity="0.5" d="M384.705 14.61C384.575 14.47 384.445 14.33 384.314 14.2C384.324 14.2 384.334 14.21 384.344 14.22C384.475 14.35 384.595 14.48 384.705 14.61Z" fill="#F02021"/>
<path opacity="0.5" d="M385.908 16.49C385.908 16.49 385.908 16.5 385.898 16.51C385.868 16.43 385.838 16.35 385.798 16.28C385.848 16.34 385.878 16.42 385.908 16.49Z" fill="#F02021"/>
</g>
<defs>
<linearGradient id="paint0_linear_148_301" x1="24.0723" y1="20.06" x2="48.1546" y2="20.06" gradientUnits="userSpaceOnUse">
<stop stop-color="#3944FF"/>
<stop offset="0.5" stop-color="#6A70FF"/>
<stop offset="1" stop-color="#41DDFF"/>
</linearGradient>
<linearGradient id="paint1_linear_148_301" x1="24.0723" y1="20.06" x2="48.1546" y2="20.06" gradientUnits="userSpaceOnUse">
<stop stop-color="#3E43DB"/>
<stop offset="0.5" stop-color="#6F6AD6"/>
<stop offset="1" stop-color="#41DDFF"/>
</linearGradient>
<linearGradient id="paint2_linear_148_301" x1="24.0723" y1="27.975" x2="0" y2="27.975" gradientUnits="userSpaceOnUse">
<stop stop-color="#3944FF"/>
<stop offset="0.5" stop-color="#6A70FF"/>
<stop offset="1" stop-color="#41DDFF"/>
</linearGradient>
<linearGradient id="paint3_linear_148_301" x1="24.0723" y1="27.975" x2="0" y2="27.975" gradientUnits="userSpaceOnUse">
<stop stop-color="#3E43DB"/>
<stop offset="0.5" stop-color="#6F6AD6"/>
<stop offset="1" stop-color="#41DDFF"/>
</linearGradient>
<linearGradient id="paint4_linear_148_301" x1="28.0475" y1="24.02" x2="28.0475" y2="48.04" gradientUnits="userSpaceOnUse">
<stop stop-color="#3E43DB"/>
<stop offset="0.5" stop-color="#6F6AD6"/>
<stop offset="1" stop-color="#41DDFF"/>
</linearGradient>
<linearGradient id="paint5_linear_148_301" x1="20.1121" y1="24.01" x2="20.1121" y2="0" gradientUnits="userSpaceOnUse">
<stop stop-color="#3944FF"/>
<stop offset="0.5" stop-color="#6A70FF"/>
<stop offset="1" stop-color="#41DDFF"/>
</linearGradient>
<linearGradient id="paint6_linear_148_301" x1="20.1121" y1="24.01" x2="20.1121" y2="0" gradientUnits="userSpaceOnUse">
<stop stop-color="#3E43DB"/>
<stop offset="0.5" stop-color="#6F6AD6"/>
<stop offset="1" stop-color="#41DDFF"/>
</linearGradient>
<linearGradient id="paint7_linear_148_301" x1="241.103" y1="18.74" x2="267.231" y2="18.74" gradientUnits="userSpaceOnUse">
<stop stop-color="#1F1F1F"/>
<stop offset="1" stop-color="#78797D"/>
</linearGradient>
<linearGradient id="paint8_linear_148_301" x1="313.872" y1="36.03" x2="313.872" y2="18.26" gradientUnits="userSpaceOnUse">
<stop stop-color="#78797D"/>
<stop offset="1" stop-color="#1F1F1F"/>
</linearGradient>
<linearGradient id="paint9_linear_148_301" x1="204.419" y1="12.01" x2="204.419" y2="36.03" gradientUnits="userSpaceOnUse">
<stop stop-color="#1F1F1F"/>
<stop offset="1" stop-color="#78797D"/>
</linearGradient>
<linearGradient id="paint10_linear_148_301" x1="145.416" y1="28.49" x2="145.416" y2="12.01" gradientUnits="userSpaceOnUse">
<stop stop-color="#78797D"/>
<stop offset="1" stop-color="#1F1F1F"/>
</linearGradient>
<linearGradient id="paint11_linear_148_301" x1="141.636" y1="24.02" x2="167.754" y2="24.02" gradientUnits="userSpaceOnUse">
<stop stop-color="#1F1F1F"/>
<stop offset="1" stop-color="#78797D"/>
</linearGradient>
<linearGradient id="paint12_linear_148_301" x1="164.074" y1="-1.20479e-05" x2="164.074" y2="19.55" gradientUnits="userSpaceOnUse">
<stop stop-color="#78797D"/>
<stop offset="1" stop-color="#1F1F1F"/>
</linearGradient>
<linearGradient id="paint13_linear_148_301" x1="81.9219" y1="30.73" x2="108.049" y2="30.73" gradientUnits="userSpaceOnUse">
<stop stop-color="#78797D"/>
<stop offset="1" stop-color="#1F1F1F"/>
</linearGradient>
<linearGradient id="paint14_linear_148_301" x1="82.5835" y1="24.02" x2="107.388" y2="24.02" gradientUnits="userSpaceOnUse">
<stop stop-color="#1F1F1F"/>
<stop offset="1" stop-color="#78797D"/>
</linearGradient>
<linearGradient id="paint15_linear_148_301" x1="241.114" y1="27.09" x2="261.095" y2="27.09" gradientUnits="userSpaceOnUse">
<stop stop-color="#78797D"/>
<stop offset="1" stop-color="#1F1F1F"/>
</linearGradient>
<linearGradient id="paint16_linear_148_301" x1="81.9219" y1="17.31" x2="108.049" y2="17.31" gradientUnits="userSpaceOnUse">
<stop stop-color="#78797D"/>
<stop offset="1" stop-color="#1F1F1F"/>
</linearGradient>
<linearGradient id="paint17_linear_148_301" x1="300.798" y1="18.84" x2="326.936" y2="18.84" gradientUnits="userSpaceOnUse">
<stop stop-color="#1F1F1F"/>
<stop offset="1" stop-color="#78797D"/>
</linearGradient>
<linearGradient id="paint18_linear_148_301" x1="360.422" y1="27.79" x2="386.56" y2="27.79" gradientUnits="userSpaceOnUse">
<stop stop-color="#78797D"/>
<stop offset="1" stop-color="#1F1F1F"/>
</linearGradient>
<linearGradient id="paint19_linear_148_301" x1="361.074" y1="21.8" x2="386.56" y2="21.8" gradientUnits="userSpaceOnUse">
<stop stop-color="#1F1F1F"/>
<stop offset="1" stop-color="#78797D"/>
</linearGradient>
<linearGradient id="paint20_linear_148_301" x1="360.422" y1="17.31" x2="385.898" y2="17.31" gradientUnits="userSpaceOnUse">
<stop stop-color="#78797D"/>
<stop offset="1" stop-color="#1F1F1F"/>
</linearGradient>
<clipPath id="clip0_148_301">
<rect width="386.56" height="48.04" fill="white"/>
</clipPath>
</defs>
</svg>
