<svg width="50" height="50" viewBox="0 0 50 50" fill="none" xmlns="http://www.w3.org/2000/svg">
<path d="M49.03 25.02V34.97L48.88 35.12L48.87 35.1C48.87 35.04 48.85 34.98 48.84 34.92C48.84 34.91 48.84 34.9 48.83 34.89C48.8 34.73 48.77 34.57 48.74 34.41C48.74 34.37 48.72 34.32 48.71 34.28C48.65 34.02 48.58 33.77 48.51 33.53C48.48 33.45 48.46 33.37 48.43 33.29C48.4 33.17 48.36 33.06 48.32 32.96C48.16 32.53 47.98 32.11 47.78 31.7C47.67 31.47 47.55 31.24 47.42 31.02C46.36 29.19 44.85 27.68 43.03 26.63C42.81 26.5 42.58 26.38 42.35 26.27C42.19 26.19 42.03 26.11 41.87 26.05C41.82 26.02 41.78 26 41.73 25.99C41.58 25.92 41.43 25.86 41.28 25.81C41.11 25.75 40.95 25.69 40.78 25.63C40.61 25.57 40.44 25.52 40.27 25.47C40.1 25.42 39.92 25.38 39.75 25.34C39.61 25.3 39.47 25.27 39.33 25.25C39.15 25.21 38.97 25.18 38.79 25.16C38.75 25.16 38.72 25.14 38.68 25.14C38.64 25.13 38.59 25.12 38.55 25.12H38.5C38.28 25.08 38.06 25.06 37.83 25.05C37.7 25.04 37.57 25.03 37.43 25.03C37.29 25.02 37.15 25.02 37.02 25.02C34.83 25.01 32.78 24.43 31.02 23.41C30.73 23.24 30.45 23.06 30.18 22.87C28.99 22.05 27.97 21.03 27.15 19.85C26.96 19.58 26.78 19.3 26.61 19.01C25.6 17.25 25.01 15.2 25.01 13.01C25.01 11.51 25.29 10.07 25.8 8.75C26.02 8.14 26.3 7.56 26.62 7C27.61 8.74 29.03 10.19 30.74 11.23C32.56 12.35 34.71 13 37.02 13C40.34 13.01 43.34 14.36 45.51 16.52C46.25 17.26 46.9 18.1 47.42 19.01C48.44 20.77 49.02 22.82 49.02 25.01L49.03 25.02Z" fill="#011959"/>
<path d="M49.03 25.02V34.97L48.88 35.12L48.87 35.1C48.87 35.04 48.85 34.98 48.84 34.92C48.84 34.91 48.84 34.9 48.83 34.89C48.8 34.73 48.77 34.57 48.74 34.41C48.74 34.37 48.72 34.32 48.71 34.28C48.65 34.02 48.58 33.77 48.51 33.53C48.48 33.45 48.46 33.37 48.43 33.29C48.4 33.17 48.36 33.06 48.32 32.96C48.16 32.53 47.98 32.11 47.78 31.7C47.67 31.47 47.55 31.24 47.42 31.02C46.36 29.19 44.85 27.68 43.03 26.63C42.81 26.5 42.58 26.38 42.35 26.27C42.19 26.19 42.03 26.11 41.87 26.05C41.82 26.02 41.78 26 41.73 25.99C41.58 25.92 41.43 25.86 41.28 25.81C41.11 25.75 40.95 25.69 40.78 25.63C40.61 25.57 40.44 25.52 40.27 25.47C40.1 25.42 39.92 25.38 39.75 25.34C39.61 25.3 39.47 25.27 39.33 25.25C39.15 25.21 38.97 25.18 38.79 25.16C38.75 25.16 38.72 25.14 38.68 25.14C38.64 25.13 38.59 25.12 38.55 25.12H38.5C38.28 25.08 38.06 25.06 37.83 25.05C37.7 25.04 37.57 25.03 37.43 25.03C37.29 25.02 37.15 25.02 37.02 25.02C34.83 25.01 32.78 24.43 31.02 23.41C30.73 23.24 30.45 23.06 30.18 22.87C28.99 22.05 27.97 21.03 27.15 19.85C26.96 19.58 26.78 19.3 26.61 19.01C25.6 17.25 25.01 15.2 25.01 13.01C25.01 11.51 25.29 10.07 25.8 8.75C26.02 8.14 26.3 7.56 26.62 7C27.61 8.74 29.03 10.19 30.74 11.23C32.56 12.35 34.71 13 37.02 13C40.34 13.01 43.34 14.36 45.51 16.52C46.25 17.26 46.9 18.1 47.42 19.01C48.44 20.77 49.02 22.82 49.02 25.01L49.03 25.02Z" fill="url(#paint0_linear_148_385)"/>
<path d="M49.03 25.02V34.97L48.88 35.12L48.87 35.1C48.87 35.04 48.85 34.98 48.84 34.92C48.84 34.91 48.84 34.9 48.83 34.89C48.8 34.73 48.77 34.57 48.74 34.41C48.74 34.37 48.72 34.32 48.71 34.28C48.65 34.02 48.58 33.77 48.51 33.53C48.48 33.45 48.46 33.37 48.43 33.29C48.4 33.17 48.36 33.06 48.32 32.96C48.16 32.53 47.98 32.11 47.78 31.7C47.67 31.47 47.55 31.24 47.42 31.02C46.36 29.19 44.85 27.68 43.03 26.63C42.81 26.5 42.58 26.38 42.35 26.27C42.19 26.19 42.03 26.11 41.87 26.05C41.82 26.02 41.78 26 41.73 25.99C41.58 25.92 41.43 25.86 41.28 25.81C41.11 25.75 40.95 25.69 40.78 25.63C40.61 25.57 40.44 25.52 40.27 25.47C40.1 25.42 39.92 25.38 39.75 25.34C39.61 25.3 39.47 25.27 39.33 25.25C39.15 25.21 38.97 25.18 38.79 25.16C38.75 25.16 38.72 25.14 38.68 25.14C38.64 25.13 38.59 25.12 38.55 25.12H38.5C38.28 25.08 38.06 25.06 37.83 25.05C37.7 25.04 37.57 25.03 37.43 25.03C37.29 25.02 37.15 25.02 37.02 25.02C34.83 25.01 32.78 24.43 31.02 23.41C30.73 23.24 30.45 23.06 30.18 22.87C28.99 22.05 27.97 21.03 27.15 19.85C26.96 19.58 26.78 19.3 26.61 19.01C25.6 17.25 25.01 15.2 25.01 13.01C25.01 11.51 25.29 10.07 25.8 8.75C26.02 8.14 26.3 7.56 26.62 7C27.61 8.74 29.03 10.19 30.74 11.23C32.56 12.35 34.71 13 37.02 13C40.34 13.01 43.34 14.36 45.51 16.52C46.25 17.26 46.9 18.1 47.42 19.01C48.44 20.77 49.02 22.82 49.02 25.01L49.03 25.02Z" fill="url(#paint1_linear_148_385)"/>
<path d="M25.01 37.03C25.01 37.3 25 37.58 24.98 37.84C24.95 38.38 24.88 38.91 24.77 39.43C24.72 39.69 24.66 39.94 24.59 40.19C24.52 40.44 24.45 40.69 24.36 40.93C24.32 41.05 24.28 41.18 24.23 41.3C24.22 41.34 24.2 41.37 24.19 41.4C24.12 41.59 24.04 41.78 23.94 41.97C23.89 42.1 23.83 42.23 23.76 42.36C23.65 42.59 23.53 42.82 23.4 43.04C23.03 42.39 22.6 41.78 22.11 41.22C21.95 41.03 21.78 40.84 21.61 40.67C21.48 40.53 21.34 40.39 21.2 40.27C20.8 39.89 20.37 39.54 19.91 39.22C19.75 39.1 19.58 38.99 19.4 38.88C19.37 38.86 19.33 38.83 19.29 38.81H19.28C19.08 38.68 18.88 38.56 18.67 38.46C18.16 38.18 17.63 37.94 17.08 37.74C16.89 37.67 16.7 37.61 16.5 37.56C15.39 37.21 14.22 37.03 13 37.03C12.68 37.02 12.37 37.01 12.06 36.98C11.88 36.98 11.69 36.95 11.5 36.92C11.39 36.91 11.28 36.9 11.17 36.88C10.77 36.82 10.38 36.74 10 36.64C9.99 36.64 9.98 36.64 9.97 36.63C9.83 36.6 9.7 36.56 9.56 36.52C8.62 36.24 7.72 35.85 6.89 35.36C6.68 35.23 6.48 35.1 6.28 34.98C6.06 34.82 5.84 34.66 5.63 34.5C5.45 34.36 5.26 34.21 5.09 34.05C4.89 33.87 4.7 33.69 4.51 33.51C3.77 32.76 3.13 31.93 2.6 31.02C1.63 29.34 1.05 27.39 1 25.32V15.07L1.16 14.91C1.16 15 1.18 15.08 1.2 15.16C1.44 16.54 1.92 17.84 2.6 19.01C3.66 20.83 5.18 22.35 7 23.41C7.32 23.59 7.64 23.76 7.98 23.91C8.23 24.03 8.49 24.14 8.75 24.23C8.91 24.3 9.07 24.36 9.23 24.4C9.74 24.57 10.27 24.71 10.81 24.81C11 24.85 11.19 24.88 11.39 24.9C11.65 24.94 11.92 24.97 12.19 24.98C12.45 25 12.73 25.01 13 25.01C15.19 25.02 17.24 25.61 19.01 26.63C19.29 26.79 19.57 26.97 19.84 27.16C21.02 27.98 22.05 29.01 22.87 30.19C23.06 30.46 23.24 30.74 23.4 31.02C24.43 32.79 25.01 34.84 25.01 37.03Z" fill="#011959"/>
<path d="M25.01 37.03C25.01 37.3 25 37.58 24.98 37.84C24.95 38.38 24.88 38.91 24.77 39.43C24.72 39.69 24.66 39.94 24.59 40.19C24.52 40.44 24.45 40.69 24.36 40.93C24.32 41.05 24.28 41.18 24.23 41.3C24.22 41.34 24.2 41.37 24.19 41.4C24.12 41.59 24.04 41.78 23.94 41.97C23.89 42.1 23.83 42.23 23.76 42.36C23.65 42.59 23.53 42.82 23.4 43.04C23.03 42.39 22.6 41.78 22.11 41.22C21.95 41.03 21.78 40.84 21.61 40.67C21.48 40.53 21.34 40.39 21.2 40.27C20.8 39.89 20.37 39.54 19.91 39.22C19.75 39.1 19.58 38.99 19.4 38.88C19.37 38.86 19.33 38.83 19.29 38.81H19.28C19.08 38.68 18.88 38.56 18.67 38.46C18.16 38.18 17.63 37.94 17.08 37.74C16.89 37.67 16.7 37.61 16.5 37.56C15.39 37.21 14.22 37.03 13 37.03C12.68 37.02 12.37 37.01 12.06 36.98C11.88 36.98 11.69 36.95 11.5 36.92C11.39 36.91 11.28 36.9 11.17 36.88C10.77 36.82 10.38 36.74 10 36.64C9.99 36.64 9.98 36.64 9.97 36.63C9.83 36.6 9.7 36.56 9.56 36.52C8.62 36.24 7.72 35.85 6.89 35.36C6.68 35.23 6.48 35.1 6.28 34.98C6.06 34.82 5.84 34.66 5.63 34.5C5.45 34.36 5.26 34.21 5.09 34.05C4.89 33.87 4.7 33.69 4.51 33.51C3.77 32.76 3.13 31.93 2.6 31.02C1.63 29.34 1.05 27.39 1 25.32V15.07L1.16 14.91C1.16 15 1.18 15.08 1.2 15.16C1.44 16.54 1.92 17.84 2.6 19.01C3.66 20.83 5.18 22.35 7 23.41C7.32 23.59 7.64 23.76 7.98 23.91C8.23 24.03 8.49 24.14 8.75 24.23C8.91 24.3 9.07 24.36 9.23 24.4C9.74 24.57 10.27 24.71 10.81 24.81C11 24.85 11.19 24.88 11.39 24.9C11.65 24.94 11.92 24.97 12.19 24.98C12.45 25 12.73 25.01 13 25.01C15.19 25.02 17.24 25.61 19.01 26.63C19.29 26.79 19.57 26.97 19.84 27.16C21.02 27.98 22.05 29.01 22.87 30.19C23.06 30.46 23.24 30.74 23.4 31.02C24.43 32.79 25.01 34.84 25.01 37.03Z" fill="url(#paint2_linear_148_385)"/>
<path d="M25.01 37.03C25.01 37.3 25 37.58 24.98 37.84C24.95 38.38 24.88 38.91 24.77 39.43C24.72 39.69 24.66 39.94 24.59 40.19C24.52 40.44 24.45 40.69 24.36 40.93C24.32 41.05 24.28 41.18 24.23 41.3C24.22 41.34 24.2 41.37 24.19 41.4C24.12 41.59 24.04 41.78 23.94 41.97C23.89 42.1 23.83 42.23 23.76 42.36C23.65 42.59 23.53 42.82 23.4 43.04C23.03 42.39 22.6 41.78 22.11 41.22C21.95 41.03 21.78 40.84 21.61 40.67C21.48 40.53 21.34 40.39 21.2 40.27C20.8 39.89 20.37 39.54 19.91 39.22C19.75 39.1 19.58 38.99 19.4 38.88C19.37 38.86 19.33 38.83 19.29 38.81H19.28C19.08 38.68 18.88 38.56 18.67 38.46C18.16 38.18 17.63 37.94 17.08 37.74C16.89 37.67 16.7 37.61 16.5 37.56C15.39 37.21 14.22 37.03 13 37.03C12.68 37.02 12.37 37.01 12.06 36.98C11.88 36.98 11.69 36.95 11.5 36.92C11.39 36.91 11.28 36.9 11.17 36.88C10.77 36.82 10.38 36.74 10 36.64C9.99 36.64 9.98 36.64 9.97 36.63C9.83 36.6 9.7 36.56 9.56 36.52C8.62 36.24 7.72 35.85 6.89 35.36C6.68 35.23 6.48 35.1 6.28 34.98C6.06 34.82 5.84 34.66 5.63 34.5C5.45 34.36 5.26 34.21 5.09 34.05C4.89 33.87 4.7 33.69 4.51 33.51C3.77 32.76 3.13 31.93 2.6 31.02C1.63 29.34 1.05 27.39 1 25.32V15.07L1.16 14.91C1.16 15 1.18 15.08 1.2 15.16C1.44 16.54 1.92 17.84 2.6 19.01C3.66 20.83 5.18 22.35 7 23.41C7.32 23.59 7.64 23.76 7.98 23.91C8.23 24.03 8.49 24.14 8.75 24.23C8.91 24.3 9.07 24.36 9.23 24.4C9.74 24.57 10.27 24.71 10.81 24.81C11 24.85 11.19 24.88 11.39 24.9C11.65 24.94 11.92 24.97 12.19 24.98C12.45 25 12.73 25.01 13 25.01C15.19 25.02 17.24 25.61 19.01 26.63C19.29 26.79 19.57 26.97 19.84 27.16C21.02 27.98 22.05 29.01 22.87 30.19C23.06 30.46 23.24 30.74 23.4 31.02C24.43 32.79 25.01 34.84 25.01 37.03Z" fill="url(#paint3_linear_148_385)"/>
<path d="M23.4 43.04C22.35 44.86 20.83 46.38 19.01 47.43C17.83 48.11 16.53 48.6 15.14 48.84C15.06 48.86 14.98 48.88 14.9 48.88L8.02001 42C6.48001 40.46 5.45001 38.6 4.92001 36.62C4.65001 35.6 4.51001 34.55 4.51001 33.51C4.70001 33.69 4.89001 33.87 5.09001 34.05C5.26001 34.21 5.45001 34.36 5.63001 34.5C5.84001 34.66 6.06001 34.82 6.28001 34.98C6.48001 35.1 6.68001 35.23 6.89001 35.36C7.72001 35.85 8.62001 36.24 9.56001 36.52C9.70001 36.56 9.83001 36.6 9.97001 36.63C9.98001 36.64 9.99001 36.64 10 36.64C10.38 36.74 10.77 36.82 11.17 36.88C11.28 36.9 11.39 36.91 11.5 36.92C11.69 36.95 11.88 36.97 12.06 36.98C12.37 37.01 12.68 37.02 13 37.02C14.22 37.03 15.39 37.21 16.5 37.56C16.7 37.61 16.89 37.67 17.08 37.74C17.63 37.94 18.16 38.18 18.67 38.46C18.88 38.57 19.08 38.69 19.28 38.81H19.29C19.29 38.81 19.37 38.86 19.4 38.88C19.58 38.99 19.75 39.1 19.91 39.22C20.37 39.54 20.8 39.89 21.2 40.27C21.34 40.39 21.48 40.53 21.61 40.67C21.78 40.84 21.95 41.03 22.11 41.22C22.6 41.78 23.03 42.39 23.4 43.04Z" fill="#011959"/>
<path d="M43.0299 26.63C42.3799 27 41.7699 27.43 41.2099 27.92C41.0199 28.08 40.8299 28.25 40.6599 28.42C40.5199 28.55 40.3799 28.69 40.2599 28.83C39.8799 29.23 39.5299 29.66 39.2099 30.12C39.0899 30.28 38.9799 30.45 38.8699 30.63C38.8499 30.66 38.8199 30.7 38.7999 30.74C38.6799 30.95 38.5599 31.15 38.4499 31.36C38.1699 31.86 37.9299 32.4 37.7299 32.95C37.6799 33.1 37.6299 33.25 37.5799 33.41C37.2099 34.55 37.0199 35.76 37.0199 37.02C37.0199 37.35 37.0099 37.66 36.9799 37.98C36.9699 38.15 36.9499 38.33 36.9299 38.5C36.9299 38.6 36.8999 38.71 36.8899 38.81C36.8399 39.11 36.7899 39.4 36.7099 39.69C36.6799 39.86 36.6399 40.02 36.5899 40.19C36.5899 40.23 36.5799 40.27 36.5599 40.31C36.5199 40.48 36.4599 40.65 36.3999 40.81C36.2099 41.41 35.9699 41.99 35.6699 42.55C35.5799 42.73 35.4799 42.92 35.3699 43.1C35.3699 43.11 35.3699 43.12 35.3699 43.13C35.2399 43.34 35.1099 43.54 34.9799 43.74C34.9699 43.76 34.9599 43.77 34.9499 43.78C34.8099 43.99 34.6599 44.2 34.4999 44.4C34.3399 44.6 34.1799 44.8 34.0099 44.99C33.8499 45.17 33.6799 45.35 33.5199 45.52C32.7699 46.26 31.9299 46.9 31.0199 47.43C29.2499 48.45 27.1999 49.04 25.0199 49.04H15.0699L14.9099 48.88C14.9899 48.88 15.0699 48.86 15.1499 48.84C16.5399 48.6 17.8399 48.11 19.0199 47.43C20.8399 46.38 22.3599 44.86 23.4099 43.04C23.5399 42.82 23.6599 42.59 23.7699 42.36C23.8399 42.23 23.8999 42.1 23.9499 41.97C24.0499 41.78 24.1299 41.59 24.1999 41.4C24.2099 41.37 24.2299 41.34 24.2399 41.3C24.2899 41.18 24.3299 41.05 24.3699 40.93C24.4599 40.69 24.5299 40.44 24.5999 40.19C24.6699 39.94 24.7299 39.69 24.7799 39.43C24.8899 38.91 24.9599 38.38 24.9899 37.84C25.0099 37.58 25.0199 37.3 25.0199 37.03C25.0199 34.84 25.6099 32.79 26.6299 31.02C26.7899 30.74 26.9699 30.47 27.1599 30.2C27.9699 29.01 28.9999 27.98 30.1899 27.16C30.4599 26.97 30.7399 26.79 31.0199 26.63C32.7899 25.61 34.8399 25.02 37.0299 25.02C37.1599 25.02 37.2999 25.02 37.4399 25.03C37.5799 25.03 37.7099 25.03 37.8399 25.05C38.0699 25.06 38.2899 25.08 38.5099 25.12H38.5599C38.5599 25.12 38.6499 25.13 38.6899 25.14C38.7299 25.14 38.7599 25.15 38.7999 25.16C38.9799 25.18 39.1599 25.21 39.3399 25.25C39.4799 25.27 39.6199 25.3 39.7599 25.34C39.9299 25.38 40.1099 25.42 40.2799 25.47C40.4499 25.52 40.6199 25.57 40.7899 25.63C40.9599 25.69 41.1199 25.75 41.2899 25.81C41.4399 25.86 41.5899 25.92 41.7399 25.99C41.7899 26 41.8299 26.02 41.8799 26.05C42.0399 26.11 42.1999 26.19 42.3599 26.27C42.5899 26.38 42.8199 26.5 43.0399 26.63H43.0299Z" fill="url(#paint4_linear_148_385)"/>
<path d="M48.88 35.12H48.87L41.99 42C40.44 43.55 38.58 44.59 36.62 45.12C35.61 45.39 34.57 45.52 33.52 45.52C33.68 45.35 33.85 45.17 34.01 44.99C34.18 44.8 34.34 44.6 34.5 44.4C34.66 44.2 34.81 43.99 34.95 43.78C34.96 43.77 34.97 43.76 34.98 43.74C35.11 43.54 35.24 43.34 35.37 43.13C35.37 43.12 35.37 43.11 35.37 43.1C35.48 42.92 35.58 42.73 35.67 42.55C35.97 41.99 36.21 41.41 36.4 40.81C36.46 40.65 36.52 40.48 36.56 40.31C36.58 40.27 36.59 40.23 36.59 40.19C36.64 40.02 36.68 39.86 36.71 39.69C36.79 39.4 36.84 39.11 36.89 38.81C36.9 38.71 36.92 38.6 36.93 38.5C36.95 38.33 36.97 38.15 36.98 37.98C37.01 37.66 37.02 37.35 37.02 37.03C37.02 35.76 37.21 34.55 37.58 33.41C37.63 33.25 37.68 33.1 37.73 32.95C37.93 32.4 38.17 31.86 38.45 31.36C38.56 31.15 38.68 30.95 38.8 30.75C38.8 30.75 38.85 30.66 38.87 30.63C38.98 30.45 39.09 30.28 39.21 30.12C39.53 29.66 39.88 29.23 40.26 28.83C40.38 28.69 40.52 28.55 40.66 28.42C40.83 28.25 41.02 28.08 41.21 27.92C41.77 27.43 42.38 27 43.03 26.63C44.85 27.68 46.36 29.19 47.42 31.01C47.55 31.24 47.67 31.47 47.78 31.7C47.98 32.11 48.16 32.53 48.32 32.96C48.36 33.06 48.4 33.17 48.43 33.29C48.46 33.37 48.48 33.45 48.51 33.53C48.58 33.77 48.65 34.02 48.71 34.28C48.72 34.32 48.73 34.37 48.74 34.41C48.77 34.57 48.8 34.73 48.83 34.89C48.84 34.9 48.84 34.91 48.84 34.92C48.85 34.98 48.86 35.04 48.87 35.1C48.87 35.1 48.88 35.11 48.88 35.12Z" fill="#011959"/>
<path d="M37.0201 13.01C34.7101 13 32.5601 12.35 30.7401 11.23C29.0301 10.19 27.6101 8.74 26.6201 7C27.6701 5.18 29.1901 3.66 31.0101 2.61C32.1901 1.93 33.4901 1.44 34.8801 1.2C34.9601 1.18 35.0401 1.16 35.1201 1.16L41.9901 8.03C43.5401 9.58 44.5701 11.44 45.1001 13.42C45.3701 14.43 45.5101 15.48 45.5101 16.52C43.3401 14.36 40.3401 13.01 37.0201 13.01Z" fill="#011959"/>
<path d="M35.12 1.16C35.04 1.16 34.96 1.18 34.88 1.2C33.49 1.44 32.19 1.93 31.01 2.61C29.19 3.66 27.67 5.18 26.62 7C26.3 7.56 26.02 8.14 25.8 8.75C25.29 10.07 25.01 11.51 25.01 13.01C25.01 15.2 24.43 17.25 23.41 19.01C23.24 19.3 23.06 19.58 22.87 19.85C22.05 21.03 21.02 22.06 19.83 22.87C19.56 23.07 19.29 23.24 19 23.41C17.24 24.43 15.19 25.01 13 25.01C12.73 25.01 12.45 25 12.19 24.98C11.92 24.98 11.65 24.94 11.39 24.9C11.19 24.88 11 24.85 10.81 24.81C10.27 24.71 9.74 24.57 9.23 24.4C9.07 24.35 8.91 24.29 8.75 24.23C8.49 24.14 8.23 24.03 7.98 23.91C7.64 23.76 7.32 23.59 7 23.41C8.51 22.54 9.81 21.34 10.81 19.92C10.93 19.76 11.04 19.59 11.15 19.41C11.17 19.38 11.2 19.34 11.22 19.3C11.31 19.16 11.39 19.03 11.45 18.89C11.54 18.76 11.61 18.62 11.68 18.48C12.53 16.84 13 14.98 13 13.01C13 12.68 13.01 12.37 13.04 12.06C13.04 11.88 13.07 11.69 13.1 11.5C13.14 11.15 13.2 10.81 13.27 10.47C13.32 10.24 13.37 10.02 13.44 9.8C13.5 9.58 13.56 9.36 13.64 9.15C13.82 8.61 14.03 8.1 14.29 7.6C14.4 7.37 14.53 7.14 14.66 6.92C14.8 6.68 14.94 6.45 15.09 6.23C15.23 6.03 15.38 5.83 15.53 5.64C15.66 5.46 15.8 5.29 15.95 5.13C16.13 4.92 16.32 4.72 16.51 4.52C17.26 3.78 18.1 3.14 19.01 2.61C20.78 1.59 22.83 1 25.01 1H34.96L35.12 1.16Z" fill="#011959"/>
<path d="M35.12 1.16C35.04 1.16 34.96 1.18 34.88 1.2C33.49 1.44 32.19 1.93 31.01 2.61C29.19 3.66 27.67 5.18 26.62 7C26.3 7.56 26.02 8.14 25.8 8.75C25.29 10.07 25.01 11.51 25.01 13.01C25.01 15.2 24.43 17.25 23.41 19.01C23.24 19.3 23.06 19.58 22.87 19.85C22.05 21.03 21.02 22.06 19.83 22.87C19.56 23.07 19.29 23.24 19 23.41C17.24 24.43 15.19 25.01 13 25.01C12.73 25.01 12.45 25 12.19 24.98C11.92 24.98 11.65 24.94 11.39 24.9C11.19 24.88 11 24.85 10.81 24.81C10.27 24.71 9.74 24.57 9.23 24.4C9.07 24.35 8.91 24.29 8.75 24.23C8.49 24.14 8.23 24.03 7.98 23.91C7.64 23.76 7.32 23.59 7 23.41C8.51 22.54 9.81 21.34 10.81 19.92C10.93 19.76 11.04 19.59 11.15 19.41C11.17 19.38 11.2 19.34 11.22 19.3C11.31 19.16 11.39 19.03 11.45 18.89C11.54 18.76 11.61 18.62 11.68 18.48C12.53 16.84 13 14.98 13 13.01C13 12.68 13.01 12.37 13.04 12.06C13.04 11.88 13.07 11.69 13.1 11.5C13.14 11.15 13.2 10.81 13.27 10.47C13.32 10.24 13.37 10.02 13.44 9.8C13.5 9.58 13.56 9.36 13.64 9.15C13.82 8.61 14.03 8.1 14.29 7.6C14.4 7.37 14.53 7.14 14.66 6.92C14.8 6.68 14.94 6.45 15.09 6.23C15.23 6.03 15.38 5.83 15.53 5.64C15.66 5.46 15.8 5.29 15.95 5.13C16.13 4.92 16.32 4.72 16.51 4.52C17.26 3.78 18.1 3.14 19.01 2.61C20.78 1.59 22.83 1 25.01 1H34.96L35.12 1.16Z" fill="url(#paint5_linear_148_385)"/>
<path d="M35.12 1.16C35.04 1.16 34.96 1.18 34.88 1.2C33.49 1.44 32.19 1.93 31.01 2.61C29.19 3.66 27.67 5.18 26.62 7C26.3 7.56 26.02 8.14 25.8 8.75C25.29 10.07 25.01 11.51 25.01 13.01C25.01 15.2 24.43 17.25 23.41 19.01C23.24 19.3 23.06 19.58 22.87 19.85C22.05 21.03 21.02 22.06 19.83 22.87C19.56 23.07 19.29 23.24 19 23.41C17.24 24.43 15.19 25.01 13 25.01C12.73 25.01 12.45 25 12.19 24.98C11.92 24.98 11.65 24.94 11.39 24.9C11.19 24.88 11 24.85 10.81 24.81C10.27 24.71 9.74 24.57 9.23 24.4C9.07 24.35 8.91 24.29 8.75 24.23C8.49 24.14 8.23 24.03 7.98 23.91C7.64 23.76 7.32 23.59 7 23.41C8.51 22.54 9.81 21.34 10.81 19.92C10.93 19.76 11.04 19.59 11.15 19.41C11.17 19.38 11.2 19.34 11.22 19.3C11.31 19.16 11.39 19.03 11.45 18.89C11.54 18.76 11.61 18.62 11.68 18.48C12.53 16.84 13 14.98 13 13.01C13 12.68 13.01 12.37 13.04 12.06C13.04 11.88 13.07 11.69 13.1 11.5C13.14 11.15 13.2 10.81 13.27 10.47C13.32 10.24 13.37 10.02 13.44 9.8C13.5 9.58 13.56 9.36 13.64 9.15C13.82 8.61 14.03 8.1 14.29 7.6C14.4 7.37 14.53 7.14 14.66 6.92C14.8 6.68 14.94 6.45 15.09 6.23C15.23 6.03 15.38 5.83 15.53 5.64C15.66 5.46 15.8 5.29 15.95 5.13C16.13 4.92 16.32 4.72 16.51 4.52C17.26 3.78 18.1 3.14 19.01 2.61C20.78 1.59 22.83 1 25.01 1H34.96L35.12 1.16Z" fill="url(#paint6_linear_148_385)"/>
<path d="M16.5099 4.52C16.3199 4.72 16.1299 4.92 15.9499 5.13C15.7999 5.29 15.6599 5.46 15.5299 5.64C15.3799 5.83 15.2299 6.03 15.0899 6.23C14.9399 6.45 14.7999 6.68 14.6599 6.92C14.5299 7.14 14.3999 7.37 14.2899 7.6C14.0299 8.1 13.8199 8.61 13.6399 9.15C13.5599 9.36 13.4999 9.58 13.4399 9.8C13.3699 10.02 13.3199 10.24 13.2699 10.47C13.1999 10.81 13.1399 11.15 13.0999 11.5C13.0699 11.69 13.0499 11.88 13.0399 12.06C13.0099 12.37 12.9999 12.68 12.9999 13C12.9999 14.98 12.5299 16.84 11.6799 18.48C11.6099 18.62 11.5399 18.76 11.4499 18.89C11.3899 19.03 11.3099 19.16 11.2199 19.29C11.1999 19.34 11.1699 19.38 11.1499 19.41C11.0399 19.59 10.9299 19.76 10.8099 19.92C9.80991 21.34 8.50991 22.54 6.99991 23.41C5.17991 22.35 3.65991 20.83 2.59991 19.01C1.91991 17.84 1.43991 16.54 1.19991 15.16C1.17991 15.08 1.15991 15 1.15991 14.91L8.23991 7.83C9.73991 6.4 11.5299 5.43 13.4099 4.93C14.4199 4.66 15.4699 4.52 16.5099 4.52Z" fill="#011959"/>
<defs>
<linearGradient id="paint0_linear_148_385" x1="25.01" y1="21.06" x2="49.03" y2="21.06" gradientUnits="userSpaceOnUse">
<stop stop-color="#3944FF"/>
<stop offset="0.5" stop-color="#6A70FF"/>
<stop offset="1" stop-color="#41DDFF"/>
</linearGradient>
<linearGradient id="paint1_linear_148_385" x1="25.01" y1="21.06" x2="49.03" y2="21.06" gradientUnits="userSpaceOnUse">
<stop stop-color="#3E43DB"/>
<stop offset="0.5" stop-color="#6F6AD6"/>
<stop offset="1" stop-color="#41DDFF"/>
</linearGradient>
<linearGradient id="paint2_linear_148_385" x1="25.01" y1="28.975" x2="1" y2="28.975" gradientUnits="userSpaceOnUse">
<stop stop-color="#3944FF"/>
<stop offset="0.5" stop-color="#6A70FF"/>
<stop offset="1" stop-color="#41DDFF"/>
</linearGradient>
<linearGradient id="paint3_linear_148_385" x1="25.01" y1="28.975" x2="1" y2="28.975" gradientUnits="userSpaceOnUse">
<stop stop-color="#3E43DB"/>
<stop offset="0.5" stop-color="#6F6AD6"/>
<stop offset="1" stop-color="#41DDFF"/>
</linearGradient>
<linearGradient id="paint4_linear_148_385" x1="28.9749" y1="25.02" x2="28.9749" y2="49.04" gradientUnits="userSpaceOnUse">
<stop stop-color="#3E43DB"/>
<stop offset="0.5" stop-color="#6F6AD6"/>
<stop offset="1" stop-color="#41DDFF"/>
</linearGradient>
<linearGradient id="paint5_linear_148_385" x1="21.06" y1="25.01" x2="21.06" y2="1" gradientUnits="userSpaceOnUse">
<stop stop-color="#3944FF"/>
<stop offset="0.5" stop-color="#6A70FF"/>
<stop offset="1" stop-color="#41DDFF"/>
</linearGradient>
<linearGradient id="paint6_linear_148_385" x1="21.06" y1="25.01" x2="21.06" y2="1" gradientUnits="userSpaceOnUse">
<stop stop-color="#3E43DB"/>
<stop offset="0.5" stop-color="#6F6AD6"/>
<stop offset="1" stop-color="#41DDFF"/>
</linearGradient>
</defs>
</svg>
