<svg width="304" height="96" viewBox="0 0 304 96" fill="none" xmlns="http://www.w3.org/2000/svg">
<g clip-path="url(#clip0_148_779)">
<path d="M175.777 24C175.777 21.8155 175.194 19.7476 174.175 18C173.825 17.3883 173.418 16.835 172.952 16.2816C172.719 16.0194 172.515 15.7573 172.253 15.5243C170.097 13.3689 167.097 12.0291 163.777 12.0291C161.476 12.0291 159.32 11.3592 157.515 10.2524C157.136 10.0194 156.757 9.78641 156.408 9.49515C156.291 9.40777 156.175 9.32039 156.087 9.23301C155.971 9.14563 155.854 9.02913 155.738 8.91262C155.592 8.76699 155.418 8.62136 155.272 8.47573C155.068 8.27185 154.893 8.06796 154.689 7.83495C154.544 7.63107 154.369 7.45631 154.223 7.25243C154.078 7.07767 153.961 6.87379 153.816 6.69903C153.67 6.46602 153.524 6.26214 153.408 6C153.262 6.23301 153.146 6.46602 153.029 6.72816C153.029 6.78641 153 6.81553 152.971 6.87379C152.913 7.01942 152.854 7.16505 152.767 7.31068C152.709 7.45631 152.651 7.60194 152.592 7.74757C152.097 9.05825 151.806 10.5146 151.806 12C151.806 12.9903 151.922 13.9806 152.155 14.9126C152.418 16.0194 152.854 17.0388 153.408 18C153.583 18.2913 153.757 18.5825 153.961 18.8447C154.777 20.0097 155.796 21.0291 156.99 21.8738C157.253 22.0777 157.544 22.2524 157.835 22.4272C158.796 22.9806 159.845 23.4175 160.922 23.6796C161.884 23.4466 162.845 23.3301 163.806 23.3301C163.952 23.3301 164.097 23.3301 164.243 23.3301C164.33 23.3301 164.505 23.3301 164.621 23.3301C164.854 23.3301 165.087 23.3592 165.32 23.3883C165.379 23.3883 165.437 23.3883 165.524 23.3883H165.728C165.728 23.3883 166.049 23.4757 166.282 23.5049C166.398 23.5049 166.573 23.5631 166.748 23.5922C166.952 23.6505 167.126 23.6796 167.272 23.7087C167.476 23.767 167.651 23.8252 167.825 23.8835L168.32 24.0583C168.466 24.1165 168.612 24.1748 168.786 24.233C168.874 24.233 168.932 24.2913 168.99 24.3204C169.136 24.3786 169.311 24.466 169.486 24.5534C169.602 24.6117 169.719 24.6699 169.864 24.7282L170.214 24.932C170.214 24.932 170.301 24.9903 170.359 25.0194C170.651 25.1942 170.942 25.3689 171.204 25.6019C171.553 25.835 171.903 26.0971 172.223 26.3884C173.272 27.2913 174.146 28.3689 174.845 29.5631L174.932 29.7379C174.932 29.7379 175.049 29.9709 175.136 30.0874C175.165 30.1456 175.194 30.2039 175.223 30.2913C175.427 30.699 175.602 31.1651 175.777 31.6019C175.777 31.6311 175.806 31.6893 175.835 31.7476V23.9126L175.777 24Z" fill="#6F6AD6"/>
<path d="M132.408 33.4661C132.612 33.6117 132.845 33.7865 133.049 33.9321C133.252 34.0486 133.456 34.1942 133.66 34.3107C134.476 34.8059 135.379 35.1845 136.34 35.4758C136.485 35.5049 136.602 35.5632 136.748 35.5923C136.748 35.5923 136.748 35.5923 136.777 35.5923C137.155 35.6797 137.534 35.7671 137.942 35.8253C138.058 35.8253 138.175 35.8544 138.262 35.8544C138.466 35.8836 138.641 35.9127 138.816 35.9127C139.136 35.9418 139.427 35.9418 139.748 35.9418C140.971 35.9418 142.136 36.1457 143.243 36.4952C143.447 36.5535 143.621 36.6117 143.825 36.67C144.379 36.8739 144.903 37.1069 145.427 37.3981C145.631 37.4855 145.835 37.6311 146.039 37.7476C146.039 37.7476 146.126 37.8059 146.155 37.8059C146.33 37.9224 146.505 38.0389 146.65 38.1554C147.116 38.4758 147.553 38.8253 147.932 39.2039C148.078 39.3205 148.223 39.4661 148.34 39.6117C148.515 39.7865 148.689 39.9612 148.835 40.1651C149.155 40.5146 149.447 40.8933 149.68 41.301C149.825 41.534 149.971 41.7379 150.116 42.0001C150.233 41.7671 150.379 41.5632 150.466 41.3302C150.466 41.3302 150.466 41.301 150.495 41.2719C150.553 41.1554 150.612 41.0389 150.641 40.9515C150.728 40.7476 150.816 40.5729 150.903 40.369C150.903 40.3399 150.932 40.3107 150.932 40.2816C150.99 40.1651 151.019 40.0195 151.049 39.903C151.136 39.67 151.194 39.4078 151.282 39.1748C151.369 38.9418 151.398 38.6797 151.456 38.4175C151.573 37.8933 151.631 37.369 151.66 36.8156C151.66 36.5535 151.689 36.2622 151.689 36.0001C151.689 35.0098 151.573 34.0195 151.34 33.0874C151.078 31.9806 150.641 30.9321 150.087 30.0001C149.942 29.7088 149.738 29.4467 149.563 29.1845C148.748 28.0195 147.728 26.9709 146.534 26.1554C146.272 25.9515 145.981 25.7768 145.718 25.6311C144.757 25.0777 143.709 24.6408 142.602 24.3787C141.67 24.6117 140.68 24.6991 139.718 24.6991C139.573 24.6991 139.427 24.6991 139.282 24.6991C139.136 24.6991 138.99 24.6991 138.845 24.6991C138.583 24.6991 138.262 24.67 138 24.6117C137.796 24.6117 137.592 24.5535 137.388 24.5243C136.835 24.437 136.282 24.2622 135.728 24.0874C135.699 24.0874 135.641 24.0583 135.612 24.0583C135.524 24.0292 135.437 24.0001 135.35 23.9709C135.32 23.9709 135.291 23.9418 135.233 23.9418C135.087 23.8836 134.942 23.8544 134.825 23.7962C134.709 23.7379 134.534 23.6797 134.417 23.5923C134.184 23.5049 133.981 23.3884 133.748 23.2719C133.631 23.2137 133.515 23.1554 133.398 23.068C133.398 23.068 133.34 23.0389 133.311 23.0098C132.99 22.835 132.699 22.6311 132.408 22.4272C130.922 21.3787 129.67 20.0098 128.738 18.4078C128.65 18.2331 128.534 18.0583 128.447 17.9127C128.184 17.3884 127.951 16.835 127.748 16.2816V24.3787C127.806 26.4467 128.388 28.3981 129.349 30.0874C129.699 30.6991 130.107 31.2525 130.544 31.7768C130.777 32.0389 131.01 32.3302 131.243 32.5632C131.447 32.7379 131.621 32.9127 131.825 33.1166C132 33.2622 132.175 33.437 132.379 33.5535L132.408 33.4661Z" fill="#6F6AD6"/>
<path d="M149.738 42.67L149.534 42.3496L149.33 42.0001C149.214 41.7962 149.097 41.6506 148.98 41.4758C148.893 41.3593 148.806 41.2137 148.718 41.0972C148.602 40.9515 148.485 40.8059 148.34 40.6603C148.194 40.4855 148.019 40.3107 147.874 40.1651C147.757 40.0195 147.641 39.903 147.524 39.7865C147.116 39.4078 146.709 39.0874 146.272 38.7962C146.126 38.6797 145.951 38.5632 145.806 38.4758L145.689 38.4175C145.485 38.301 145.311 38.1845 145.107 38.0972C144.845 37.9515 144.612 37.835 144.379 37.7185C144.116 37.602 143.883 37.5146 143.621 37.3981C143.476 37.3399 143.301 37.2816 143.126 37.2525C142.048 36.903 140.942 36.7573 139.806 36.7573H139.107C139.107 36.7573 138.903 36.7282 138.815 36.6991C138.641 36.6991 138.437 36.67 138.204 36.6408C138.116 36.6408 137.971 36.6117 137.854 36.5826C137.476 36.5243 137.097 36.4661 136.718 36.3496H136.485L136.398 36.2913C136.398 36.2913 136.281 36.2622 136.223 36.2331C135.146 35.9127 134.184 35.5049 133.34 34.9807L132.728 34.602C132.495 34.4564 132.32 34.3107 132.146 34.1942C132.087 34.1651 132.058 34.136 132 34.0777C131.796 33.9321 131.592 33.7573 131.388 33.5826C131.388 33.5826 131.359 33.5826 131.359 33.5535C131.417 34.2525 131.534 34.9515 131.709 35.6506C132.233 37.6311 133.281 39.4952 134.796 41.0389L140.942 47.1845L141.67 47.9127C141.67 47.9127 141.815 47.9127 141.903 47.8836C143.301 47.6506 144.582 47.1554 145.777 46.4855C147.379 45.5535 148.718 44.301 149.738 42.7865V42.67Z" fill="#001A4D"/>
<path d="M161.738 42.6991C161.854 42.4952 162 42.2913 162.116 42.0875C162.116 42.0875 162.116 42.0875 162.116 42.0583C162.233 41.8836 162.32 41.6797 162.408 41.5049C162.699 40.9515 162.961 40.369 163.136 39.7574C163.194 39.6117 163.252 39.437 163.282 39.2622C163.282 39.2331 163.311 39.1748 163.311 39.1457C163.369 38.9709 163.398 38.8253 163.427 38.6506C163.515 38.3593 163.544 38.068 163.602 37.7768C163.602 37.6894 163.631 37.5729 163.631 37.4564C163.631 37.2816 163.66 37.1069 163.689 36.9321C163.718 36.6117 163.718 36.2913 163.718 35.9709C163.718 34.6894 163.922 33.4952 164.272 32.3593C164.33 32.2137 164.359 32.0389 164.417 31.8933C164.621 31.3399 164.854 30.8156 165.146 30.2913C165.262 30.0875 165.379 29.8836 165.495 29.6797C165.495 29.6797 165.553 29.5923 165.553 29.5632C165.67 29.3884 165.786 29.2137 165.903 29.068C166.223 28.602 166.573 28.1651 166.951 27.7865C167.068 27.6408 167.214 27.4952 167.359 27.3787C167.534 27.204 167.709 27.0292 167.913 26.8836C168.262 26.5632 168.641 26.2719 169.049 26.0389C169.282 25.8933 169.485 25.7476 169.748 25.602C169.515 25.4855 169.311 25.3399 169.078 25.2525C169.078 25.2525 169.049 25.2525 169.019 25.2234C168.874 25.1651 168.728 25.0777 168.612 25.0195C168.553 24.9904 168.524 24.9612 168.466 24.9612C168.32 24.903 168.175 24.8447 168.029 24.7865C167.854 24.7282 167.709 24.67 167.534 24.6117C167.359 24.5535 167.184 24.4952 167.039 24.4661C166.864 24.4078 166.689 24.3787 166.515 24.3496C166.369 24.3205 166.223 24.2913 166.107 24.2622C165.932 24.2331 165.757 24.204 165.553 24.1748C165.524 24.1748 165.495 24.1748 165.437 24.1748C165.408 24.1748 165.349 24.1748 165.32 24.1748H165.262C165.029 24.1457 164.825 24.1166 164.592 24.1166C164.476 24.1166 164.33 24.1166 164.184 24.1166C164.039 24.1166 163.893 24.1166 163.777 24.1166C162.786 24.1166 161.796 24.2331 160.893 24.4661C159.786 24.7282 158.738 25.1651 157.777 25.7185C157.485 25.8642 157.223 26.068 156.961 26.2428C155.767 27.0583 154.748 28.0777 153.932 29.2719C153.728 29.5341 153.553 29.8253 153.408 30.0875C152.854 31.0486 152.417 32.0972 152.155 33.1748C152.388 34.1069 152.505 35.0972 152.505 36.0583C152.505 36.3496 152.505 36.6409 152.476 36.9321C152.447 37.4855 152.388 38.068 152.243 38.6214C152.184 38.8836 152.126 39.1748 152.039 39.4078C151.951 39.6991 151.893 39.9612 151.777 40.1942C151.748 40.3399 151.689 40.4273 151.66 40.5438L151.602 40.6894C151.544 40.8933 151.456 41.0972 151.311 41.3302C151.311 41.4175 151.223 41.5632 151.136 41.7379C151.078 41.8544 151.019 41.9709 150.961 42.0875C150.903 42.204 150.845 42.3205 150.757 42.437C150.612 42.67 150.466 42.903 150.32 43.136C150.262 43.2234 150.175 43.3399 150.087 43.4273C150 43.5438 149.913 43.6894 149.825 43.8059C148.806 45.1166 147.553 46.2525 146.097 47.068C145.922 47.1554 145.748 47.2719 145.573 47.3593C145.019 47.6506 144.466 47.8836 143.913 48.0583H151.748C153.932 48.0583 155.971 47.4758 157.748 46.4564C158.359 46.1069 158.913 45.6991 159.466 45.2331C159.728 45.0001 159.99 44.7962 160.252 44.5341C160.398 44.3593 160.573 44.1845 160.748 44.0098C160.922 43.8059 161.068 43.6311 161.243 43.4273C161.388 43.2234 161.563 43.0195 161.68 42.8156C161.68 42.8156 161.68 42.8156 161.709 42.7865L161.738 42.6991Z" fill="#6F6AD6"/>
<path d="M175.573 33.8738C175.573 33.8738 175.573 33.8738 175.573 33.8447C175.544 33.6991 175.515 33.5243 175.486 33.3787C175.486 33.3495 175.486 33.2913 175.456 33.2622C175.398 33 175.34 32.767 175.253 32.5049C175.223 32.4175 175.194 32.3593 175.165 32.2719C175.136 32.1554 175.107 32.0389 175.049 31.9515C174.903 31.5146 174.699 31.1068 174.495 30.6991C174.379 30.4661 174.262 30.233 174.146 30.0292C174.029 29.8253 173.913 29.6214 173.767 29.4175C173.738 29.3593 173.68 29.301 173.651 29.2136C173.534 29.0389 173.388 28.8641 173.272 28.6894C173.155 28.5437 173.039 28.369 172.922 28.2525C172.922 28.2525 172.719 27.9903 172.631 27.9029C172.515 27.7573 172.369 27.6117 172.223 27.4952C172.078 27.3495 171.932 27.2039 171.786 27.0874C171.67 27 171.553 26.8835 171.437 26.7961C171.32 26.7088 171.204 26.5923 171.087 26.5049C170.884 26.3593 170.68 26.1845 170.476 26.068L170.155 26.2719L169.806 26.4758C169.631 26.5923 169.456 26.7088 169.282 26.8253C169.194 26.8835 169.107 26.9418 169.019 27.0292C168.816 27.1748 168.641 27.3204 168.466 27.4661C168.291 27.6117 168.117 27.7864 167.971 27.9321C167.825 28.0486 167.709 28.1942 167.592 28.3107C167.214 28.7185 166.893 29.0971 166.602 29.534C166.486 29.6796 166.369 29.8253 166.282 30L166.223 30.1165C166.107 30.3204 165.99 30.4952 165.903 30.6991C165.641 31.1651 165.437 31.6602 165.233 32.2136L165.087 32.6505C164.738 33.7282 164.563 34.8641 164.563 36.0583C164.563 36.4078 164.563 36.7282 164.534 37.0777C164.534 37.2233 164.505 37.4272 164.476 37.6311V37.9224C164.388 38.301 164.33 38.6214 164.243 38.9127C164.243 39.0292 164.185 39.2039 164.155 39.3495C164.155 39.4078 164.126 39.4952 164.097 39.5534C164.039 39.7282 163.981 39.9029 163.922 40.0777C163.719 40.7185 163.456 41.3301 163.165 41.9127C163.107 42.0292 163.019 42.2039 162.932 42.3495L162.845 42.5534C162.728 42.7573 162.583 42.9612 162.437 43.1651L162.379 43.2525C162.262 43.4272 162.146 43.5729 162.029 43.7476C162 43.8059 161.971 43.835 161.913 43.8932C161.738 44.1262 161.563 44.301 161.388 44.5049C162.087 44.4758 162.816 44.3593 163.486 44.1554C165.437 43.6311 167.301 42.5826 168.845 41.0389L174.99 34.8932L175.719 34.1651C175.719 34.1068 175.719 34.0486 175.689 33.9903L175.573 33.8738Z" fill="#001A4D"/>
<path d="M156.437 2.50484C156.204 2.6796 156 2.85436 155.796 3.02911C155.447 3.32038 155.155 3.64076 154.864 3.96115C154.66 4.16504 154.486 4.36892 154.311 4.60193C154.136 4.83494 153.961 5.06795 153.816 5.30096L153.99 5.62135C153.99 5.62135 154.136 5.85436 154.194 5.97086C154.194 5.97086 154.223 6.02911 154.253 6.05824C154.311 6.17474 154.398 6.29125 154.486 6.40776C154.631 6.61164 154.777 6.81552 154.952 7.01941C155.068 7.19416 155.214 7.36892 155.359 7.51455C155.447 7.63106 155.563 7.71843 155.651 7.83494L156 8.18445C156 8.18445 156.175 8.35921 156.291 8.44659C156.408 8.5631 156.554 8.6796 156.699 8.7961C156.874 8.94174 157.078 9.08737 157.253 9.20387C157.456 9.3495 157.631 9.46601 157.835 9.58251C159.612 10.6602 161.651 11.2427 163.748 11.2427H164.447C164.738 11.2718 165.029 11.301 165.291 11.3301C165.35 11.3301 165.379 11.3301 165.437 11.3301C165.728 11.3592 166.02 11.4175 166.282 11.4757C166.573 11.534 166.864 11.5922 167.155 11.6796C167.185 11.6796 167.214 11.6796 167.272 11.7087C167.534 11.7961 167.825 11.8835 168.088 11.9709C168.379 12.0582 168.641 12.1747 168.903 12.2912H168.961C169.253 12.4369 169.515 12.5825 169.777 12.7281C170.039 12.8738 170.301 13.0194 170.534 13.165C170.825 13.3398 171.088 13.5146 171.35 13.7184C171.612 13.9223 171.903 14.1262 172.136 14.3592C172.078 13.6602 171.961 12.9612 171.787 12.2912C171.262 10.3107 170.214 8.44659 168.67 6.9029L162.524 0.757269L161.796 0.0291138C161.796 0.0291138 161.651 0.0291138 161.563 0.05824C160.165 0.29125 158.884 0.786395 157.689 1.4563C157.223 1.71843 156.787 2.03882 156.35 2.35921L156.437 2.50484Z" fill="#001A4D"/>
<path d="M141.437 5.91267C141.32 6.14568 141.175 6.34956 141.058 6.58257C140.796 7.07772 140.592 7.60199 140.417 8.12626C140.33 8.33015 140.272 8.56316 140.214 8.76704C140.155 9.00005 140.097 9.20393 140.039 9.43694C139.98 9.78646 139.922 10.1068 139.864 10.4564C139.835 10.6602 139.806 10.835 139.806 11.0098C139.777 11.3301 139.777 11.6214 139.777 11.9418C139.777 13.9224 139.311 15.7865 138.466 17.4175C138.408 17.5632 138.32 17.7088 138.233 17.8253C138.175 17.9709 138.087 18.0874 138 18.2331C138 18.2331 137.942 18.3204 137.942 18.3496C137.825 18.5243 137.709 18.6991 137.592 18.8447C137.214 19.369 136.806 19.8641 136.34 20.3301C136.136 20.534 135.932 20.7088 135.728 20.9127C135.32 21.2622 134.913 21.5826 134.476 21.903C134.243 22.0486 134.039 22.1942 133.777 22.3399C134.01 22.4564 134.243 22.602 134.505 22.7185C134.592 22.7476 134.68 22.8059 134.767 22.835C135.029 22.9515 135.262 23.068 135.524 23.1554C135.67 23.2136 135.845 23.2719 135.99 23.3301C136.485 23.5049 137.039 23.6505 137.563 23.7379C137.767 23.767 137.942 23.7962 138.146 23.8253C138.408 23.8544 138.67 23.8835 138.932 23.9127C139.194 23.9127 139.485 23.9418 139.747 23.9418C140.738 23.9418 141.728 23.8253 142.66 23.5923C143.767 23.3301 144.786 22.8933 145.747 22.3399C146.039 22.1651 146.301 21.9903 146.563 21.7865C147.757 20.9709 148.777 19.9515 149.592 18.7573C149.796 18.4952 149.971 18.2039 150.146 17.9127C150.699 16.9515 151.107 15.9321 151.398 14.8253C151.165 13.8641 151.048 12.8738 151.048 11.8835C151.048 10.3399 151.34 8.82529 151.864 7.36898C152.039 6.87384 152.272 6.40782 152.534 5.88355C152.534 5.85442 152.534 5.82529 152.563 5.79617C152.563 5.76704 152.592 5.73791 152.621 5.70879C152.65 5.65054 152.68 5.59228 152.709 5.53403C152.913 5.18452 153.116 4.86413 153.379 4.51461C154.427 3.02918 155.796 1.77675 157.369 0.873836C157.544 0.786458 157.718 0.669953 157.893 0.582574C158.417 0.320438 158.971 0.0874284 159.524 -0.116455H151.718C149.534 -0.116455 147.495 0.466069 145.718 1.48549C145.107 1.835 144.553 2.24277 144 2.67966C143.709 2.91267 143.447 3.14568 143.213 3.37869C143.01 3.58257 142.835 3.78646 142.66 3.99034C142.514 4.13597 142.369 4.31073 142.252 4.48549C142.107 4.68937 141.961 4.86413 141.815 5.06801C141.67 5.30102 141.524 5.5049 141.379 5.76704L141.437 5.91267Z" fill="#6F6AD6"/>
<path d="M129.378 18.0001C129.845 18.8156 130.427 19.5729 131.068 20.2719C131.213 20.4175 131.33 20.5632 131.476 20.6797C131.592 20.7962 131.709 20.9127 131.854 21.0292C132.058 21.204 132.262 21.3787 132.466 21.5243C132.67 21.67 132.874 21.8447 133.078 21.9612L133.398 21.7574C133.398 21.7574 133.631 21.6117 133.747 21.5243C133.747 21.5243 133.835 21.4661 133.893 21.4078C134.068 21.2913 134.243 21.1748 134.388 21.0583C134.534 20.9418 134.679 20.8253 134.825 20.7088C135 20.5923 135.175 20.4175 135.32 20.2719C135.466 20.1263 135.612 19.9807 135.757 19.835C135.845 19.7476 135.903 19.6894 135.99 19.5729C136.078 19.4855 136.165 19.3981 136.252 19.2816C136.514 18.9904 136.718 18.6991 136.951 18.4078C137.039 18.2622 137.155 18.1166 137.243 18.0001L137.359 17.7962C137.417 17.7088 137.476 17.6214 137.505 17.5341L137.563 17.4175C137.563 17.4175 137.679 17.2137 137.738 17.0972C138.553 15.4952 138.99 13.7768 138.99 11.9418C138.99 11.5923 138.99 11.2719 139.019 10.9224C139.019 10.7476 139.048 10.5438 139.078 10.3107C139.107 9.96123 139.165 9.61172 139.252 9.26221C139.311 9.00007 139.369 8.76706 139.456 8.53405C139.514 8.33017 139.573 8.06803 139.66 7.83502C139.864 7.2525 140.068 6.72822 140.359 6.20395C140.476 5.97094 140.621 5.73793 140.738 5.50492C140.883 5.24279 141.029 5.00978 141.204 4.77677C141.32 4.63114 141.437 4.45638 141.553 4.31075C141.582 4.2525 141.641 4.22337 141.67 4.16512C141.786 3.99036 141.961 3.78648 142.136 3.61172C142.136 3.61172 142.165 3.55347 142.194 3.55347C141.495 3.61172 140.796 3.72822 140.126 3.90298C138.262 4.39813 136.456 5.35929 134.971 6.78648L128.621 13.136L127.893 13.8641C127.893 13.8641 127.893 14.0389 127.922 14.1263C128.155 15.4952 128.65 16.8059 129.32 17.9709L129.378 18.0001Z" fill="#001A4D"/>
<path d="M125.126 95.9999V71.9999H119.01V95.9999H125.126Z" fill="#001A4D"/>
<path d="M164.767 79.5435C164.767 79.2814 164.825 79.0484 164.971 78.8445H164.854C164.621 78.8445 164.417 78.8445 164.184 78.8736C163.951 78.8736 163.747 78.9319 163.514 78.961C163.34 78.9901 163.165 79.0192 163.019 79.0775C162.874 79.1066 162.728 79.1649 162.582 79.2231C162.437 79.2523 162.32 79.3105 162.175 79.3688C162.029 79.427 161.854 79.4853 161.709 79.6018C161.679 79.6018 161.621 79.6309 161.592 79.66C161.505 79.6891 161.388 79.7474 161.301 79.8348C161.184 79.893 161.039 79.9804 160.951 80.0678C160.806 80.1843 160.631 80.3008 160.485 80.4173C160.34 80.5338 160.194 80.6794 160.048 80.8251C159.903 80.9707 159.757 81.1455 159.641 81.2911C159.553 81.4076 159.466 81.495 159.378 81.6115C159.349 81.6697 159.291 81.6989 159.262 81.7571L158.679 82.66V85.4561C158.679 85.4561 158.679 85.5726 158.679 85.66C158.679 85.7474 158.679 85.7765 158.679 85.8639V96.029H164.796V87.0872H178.602V80.9707H166.223C165.437 80.9707 164.825 80.3299 164.825 79.5726L164.767 79.5435Z" fill="#001A4D"/>
<path d="M158.621 71.9999V78.1164V81.4076C158.883 81.029 159.175 80.6795 159.495 80.33C160.864 78.961 162.728 78.1164 164.825 78.1164C165.146 78.1164 165.466 78.1164 165.757 78.1746C165.815 78.1455 165.903 78.1455 165.961 78.1164C165.961 78.1164 166.078 78.1164 166.107 78.1164H184.602V71.9999H158.563H158.621Z" fill="#001A4D"/>
<path d="M25.5728 85.9513C25.5146 85.7474 25.4563 85.6018 25.3689 85.427C24.9903 86.2717 24.466 87.0289 23.8252 87.6988C22.4563 89.0678 20.5922 89.8833 18.5243 89.9124H7.51456C6.75728 89.9124 6.1165 89.3008 6.1165 88.5144H0C0 88.9804 0.0582524 89.4464 0.145631 89.9124C0.786408 93.3785 3.84466 96.0289 7.51456 96.0289H18.4951C22.165 96.0289 25.2233 93.3785 25.8641 89.9124C25.9515 89.4464 26.0097 89.0095 26.0097 88.5144C26.0097 88.0192 25.9515 87.5241 25.8641 87.0872C25.8058 86.7086 25.6893 86.3299 25.5728 85.9804V85.9513Z" fill="#001A4D"/>
<path d="M25.136 84.9029C24.9613 84.5825 24.7865 84.2913 24.5535 84C23.2137 82.1359 21.0001 80.9418 18.4952 80.9418H7.51465C6.75737 80.9418 6.1166 80.301 6.1166 79.5437C6.1166 79.1942 6.2331 78.9029 6.43698 78.6699C6.2331 78.6699 6.05834 78.7282 5.88359 78.7573C5.5632 78.8156 5.24281 78.9321 4.95155 79.0486C4.83504 79.1068 4.68941 79.1359 4.57291 79.1942C4.39815 79.2816 4.22339 79.369 4.07776 79.4563C3.903 79.5437 3.75737 79.6602 3.61174 79.7476C3.40786 79.8641 3.2331 80.0097 3.05834 80.1554C2.88359 80.301 2.70883 80.4466 2.53407 80.6214C2.24281 80.9126 1.98067 81.2039 1.74766 81.5534C1.63116 81.699 1.51465 81.8738 1.42727 82.0486C1.3399 82.2233 1.22339 82.3981 1.16514 82.5728C1.13601 82.6311 1.10689 82.6893 1.07776 82.7185L0.932129 83.0389C1.10689 83.3592 1.31077 83.6796 1.51465 83.9709C2.88359 85.8058 5.06805 87.0291 7.54378 87.0291H18.5244C19.3108 87.0291 19.9224 87.6408 19.9224 88.4272C19.9224 88.7767 19.8059 89.0971 19.602 89.3301C19.8059 89.301 19.9807 89.2719 20.1846 89.2136C20.2719 89.2136 20.3593 89.1845 20.4467 89.1554C20.6797 89.0971 20.9127 89.0097 21.1166 88.9224C21.2331 88.8932 21.3496 88.835 21.437 88.7767C21.6117 88.7185 21.7865 88.6311 21.9613 88.5146C22.136 88.4272 22.2816 88.3107 22.4273 88.2233C22.6312 88.1068 22.8059 87.9612 22.9807 87.8156C23.1554 87.6699 23.3302 87.5243 23.5049 87.3495C23.7671 87.0583 24.0292 86.767 24.2331 86.4757C24.437 86.2136 24.5826 85.9223 24.7282 85.6602C24.7865 85.5728 24.8156 85.4855 24.8739 85.3981C24.8739 85.3981 24.9321 85.2816 24.9613 85.2233L25.1069 84.8738L25.136 84.9029Z" fill="#001A4D"/>
<path d="M0.436893 82.0485C0.495146 82.2524 0.553398 82.398 0.640777 82.6019C1.01942 81.7572 1.54369 80.9999 2.18447 80.3592C3.5534 78.9902 5.41748 78.1747 7.48544 78.1456H18.4951C19.2816 78.1456 19.8932 78.7863 19.8932 79.5436H26.0097C26.0097 79.0776 25.9515 78.5825 25.8641 78.1456C25.2233 74.6795 22.165 72.0291 18.4951 72.0291H7.51456C3.84466 72.0291 0.786408 74.6795 0.145631 78.1456C0.0582524 78.6116 0 79.0776 0 79.5436C0 80.0096 0.0582524 80.5048 0.145631 80.9417C0.203884 81.3203 0.320388 81.699 0.436893 82.0485Z" fill="#001A4D"/>
<path d="M232.835 78.9611C232.456 79.0485 232.107 79.1359 231.728 79.2815C231.612 79.3106 231.495 79.3689 231.379 79.4271C231.233 79.4854 231.117 79.5436 230.971 79.631C230.971 79.631 230.971 79.631 230.942 79.631C230.738 79.7475 230.563 79.864 230.388 79.9805C230.214 80.097 230.039 80.2427 229.835 80.3883C229.66 80.5339 229.485 80.6796 229.34 80.8252C229.252 80.9126 229.136 81.0582 229.049 81.1456C228.961 81.2621 228.845 81.3786 228.786 81.466C228.786 81.466 228.699 81.5825 228.67 81.6407L228.087 82.4854V95.9708H234.204V78.8155C233.971 78.8155 233.738 78.8155 233.505 78.8446C233.301 78.8737 233.068 78.9029 232.864 78.932L232.835 78.9611Z" fill="#001A4D"/>
<path d="M218.097 71.9999V78.1164H228.058V81.262C228.291 80.9416 228.553 80.6212 228.845 80.33C230.214 78.961 232.078 78.1455 234.175 78.1455H234.874H244.136V72.029H218.097V71.9999Z" fill="#001A4D"/>
<path d="M60.2913 84.2621C60.2913 84.2621 60.466 83.9708 60.5825 83.8543C60.8447 83.5048 61.1068 83.1844 61.4272 82.864C61.602 82.6893 61.7767 82.5145 61.9806 82.3689C62.0097 82.3397 62.0389 82.3106 62.068 82.2815C62.1845 82.165 62.3301 82.0776 62.4758 81.9611C62.7088 81.8155 62.9418 81.6407 63.2039 81.5242C63.3204 81.4659 63.4369 81.4077 63.5243 81.3494C63.6117 81.3203 63.6699 81.2621 63.7864 81.2329C63.9029 81.1747 64.0486 81.1164 64.1651 81.0873C64.3981 80.9999 64.6602 80.9125 64.9224 80.8252C65.1554 80.7669 65.3884 80.7087 65.6214 80.6795V72.0291H59.5049V85.9805C59.6214 85.5727 59.7961 85.1941 60 84.8155C60.0874 84.6407 60.1748 84.4659 60.2913 84.3203V84.2621Z" fill="#001A4D"/>
<path d="M79.3981 71.9999V80.9416H67.0194C64.9515 80.9416 63.0583 81.7863 61.6893 83.1552C60.3204 84.5242 59.5049 86.3882 59.5049 88.4562V95.9999H65.6214V87.0581H77.7961C77.7961 87.0581 77.9127 87.0581 78 87.0581C78.0874 87.0581 78.1165 87.0581 78.1748 87.0581H78.233C78.466 87.0581 78.6991 87.0581 78.9321 86.9999C79.0194 86.9999 79.1068 86.9708 79.1942 86.9708C79.2525 86.9708 79.2816 86.9708 79.3398 86.9708C79.4563 86.9708 79.5728 86.9416 79.6894 86.9125C79.9806 86.8543 80.2719 86.7669 80.534 86.6504C80.6796 86.6212 80.8253 86.563 80.9418 86.5047C81 86.5047 81.0292 86.4756 81.0583 86.4465C81.2622 86.3591 81.4661 86.2426 81.6408 86.1552C81.8738 86.0096 82.1068 85.864 82.3398 85.7183C82.4563 85.6309 82.602 85.5436 82.7185 85.4271C82.7767 85.3979 82.8059 85.3688 82.8641 85.3106C83.0097 85.1649 83.1845 85.0193 83.3301 84.8737C84.6991 83.5047 85.5437 81.6407 85.5437 79.5436V71.9999H79.4272H79.3981Z" fill="#001A4D"/>
<path d="M85.0196 83.2716C84.903 83.4755 84.7865 83.6503 84.67 83.8541C84.6409 83.9124 84.6118 83.9415 84.5827 83.9998C84.4662 84.2037 84.3205 84.3784 84.1458 84.5823C84.0001 84.7862 83.7962 84.9901 83.6215 85.1648C83.4176 85.3687 83.2137 85.5726 82.9807 85.7473C82.8351 85.893 82.6603 86.0095 82.4856 86.126C82.2234 86.3007 81.9613 86.4755 81.6992 86.592C81.5535 86.6794 81.3788 86.7376 81.2331 86.825C80.9419 86.9415 80.6506 87.058 80.3594 87.1454C80.2137 87.2037 80.039 87.2328 79.8933 87.2619C79.7477 87.291 79.573 87.3202 79.3982 87.3493V95.9998H85.5147V82.1066C85.3982 82.5143 85.2234 82.893 85.0196 83.2716Z" fill="#001A4D"/>
<path d="M302.592 84.029C302.592 84.029 302.505 84.1747 302.447 84.2621C302.214 84.5824 301.951 84.8737 301.66 85.165C301.602 85.2232 301.544 85.2815 301.485 85.3397C301.369 85.4562 301.252 85.5727 301.136 85.6601C301.107 85.6892 301.049 85.7184 301.019 85.7475C300.845 85.8931 300.67 86.0096 300.495 86.1261L300.466 86.1553C300.262 86.3009 300.058 86.4174 299.825 86.5339C299.825 86.5339 299.767 86.563 299.738 86.5921C299.534 86.6795 299.33 86.796 299.126 86.8834C298.893 86.9708 298.66 87.0582 298.427 87.1455H298.398C298.194 87.2038 297.99 87.2621 297.757 87.3203C297.728 87.3203 297.67 87.3203 297.641 87.3494C297.641 87.3494 297.583 87.3494 297.553 87.3494C297.379 87.3786 297.204 87.4077 297.058 87.4077L297.117 87.4659C297.35 87.7281 297.495 88.0485 297.495 88.4271C297.495 89.1261 297 89.6795 296.359 89.8252C296.359 89.8252 296.301 89.8252 296.272 89.8252C296.214 89.8252 296.155 89.8252 296.068 89.8252H285.087C284.301 89.8252 283.66 89.1844 283.66 88.398H277.544C277.544 88.864 277.602 89.3591 277.689 89.8252C278.33 93.2912 281.388 95.9417 285.058 95.9417H296.039C299.709 95.9417 302.767 93.2912 303.408 89.8252C303.495 89.3591 303.553 88.8931 303.553 88.398V82.0485C303.437 82.398 303.291 82.7475 303.117 83.0679C302.942 83.3883 302.767 83.6795 302.563 83.9708L302.592 84.029Z" fill="#001A4D"/>
<path d="M277.951 82.0485C278.01 82.2524 278.068 82.4271 278.155 82.6019C278.534 81.7572 279.058 80.9999 279.728 80.33C281.097 78.9611 282.961 78.1164 285.058 78.1164H296.039C296.796 78.1164 297.437 78.7281 297.437 79.5145C297.437 79.6019 297.437 79.7184 297.408 79.8058C297.408 79.8931 297.349 80.0096 297.32 80.097C297.291 80.1553 297.262 80.2426 297.204 80.3009C297.204 80.3592 297.146 80.3883 297.116 80.4174C297.32 80.3883 297.495 80.3592 297.699 80.3009C298.107 80.2135 298.485 80.0679 298.835 79.9223C298.951 79.864 299.097 79.8058 299.214 79.7475C299.301 79.7184 299.417 79.6601 299.505 79.6019C299.68 79.5145 299.854 79.398 300.029 79.2815C300.204 79.165 300.379 79.0193 300.553 78.9028C300.728 78.7572 300.903 78.6116 301.078 78.4368C301.311 78.2038 301.515 77.9708 301.777 77.6504C301.864 77.5339 301.981 77.3883 302.068 77.2426C302.126 77.1844 302.155 77.097 302.214 77.0096C302.272 76.8931 302.359 76.7766 302.417 76.6601C302.417 76.631 302.447 76.6019 302.476 76.5727C302.476 76.5436 302.505 76.5145 302.505 76.5145V76.4854C302.534 76.4562 302.563 76.398 302.563 76.3397L302.709 76.0193C302.709 76.0193 302.621 75.8446 302.563 75.7572C302.563 75.699 302.534 75.6698 302.476 75.6407C302.388 75.5242 302.33 75.3786 302.214 75.2621C302.184 75.1747 302.126 75.1164 302.068 75.0291C301.981 74.9126 301.893 74.796 301.806 74.7087C301.806 74.7087 301.806 74.6795 301.748 74.6504C301.748 74.6504 301.515 74.3883 301.398 74.2426C301.252 74.097 301.107 73.9514 300.961 73.8058C300.786 73.6601 300.612 73.5145 300.437 73.398C300.291 73.2815 300.116 73.165 299.942 73.0776H299.913C299.709 72.9611 299.534 72.8446 299.359 72.7572C299.155 72.6698 298.951 72.5825 298.748 72.4951C298.544 72.4077 298.34 72.3494 298.136 72.2912C297.932 72.2329 297.699 72.1747 297.495 72.1456C297.262 72.1164 297.058 72.0873 296.854 72.0582C296.621 72.0291 296.388 72.0291 296.155 72.0291C296.097 72.0291 296.039 72.0291 295.951 72.0291H285.175C281.505 72.0291 278.447 74.6504 277.806 78.1456C277.718 78.5825 277.66 79.0776 277.66 79.5436C277.66 80.0096 277.718 80.5048 277.806 80.9417C277.864 81.3203 277.951 81.699 278.097 82.0485H277.951Z" fill="#001A4D"/>
<path d="M302.65 77.0096C302.505 77.3009 302.301 77.5921 302.097 77.8834C301.864 78.1746 301.631 78.4659 301.369 78.728C300 80.097 298.136 80.9125 296.068 80.9416H285.058C284.272 80.9416 283.631 80.3009 283.631 79.5436C283.631 79.1941 283.747 78.9028 283.951 78.6407C283.747 78.6407 283.573 78.6989 283.369 78.7572C283.369 78.7572 283.194 78.7863 283.107 78.8154C283.019 78.8445 282.932 78.8737 282.845 78.9028C282.67 78.9611 282.495 79.0193 282.32 79.1067C282.146 79.1649 281.971 79.2523 281.796 79.3688C281.534 79.4853 281.301 79.631 281.068 79.8057C280.893 79.9222 280.718 80.0679 280.544 80.1844C280.369 80.33 280.194 80.4756 280.019 80.6504C279.67 81.029 279.349 81.4077 279.058 81.8154C278.971 81.9319 278.913 82.0484 278.825 82.1941C278.825 82.1941 278.796 82.2232 278.796 82.2523C278.738 82.3688 278.68 82.4853 278.592 82.6018C278.592 82.6018 278.534 82.7183 278.505 82.7766L278.359 83.0679C278.534 83.3882 278.738 83.7086 278.942 83.9999C280.311 85.8348 282.495 87.0581 285 87.0581H295.777C295.777 87.0581 295.893 87.0581 295.98 87.0581H296.039C296.039 87.0581 296.184 87.0581 296.243 87.0581C296.301 87.0581 296.388 87.0581 296.447 87.0581H296.476C296.476 87.0581 296.592 87.0581 296.68 87.0581C296.738 87.0581 296.796 87.0581 296.825 87.0581C297.029 87.0581 297.262 86.9999 297.466 86.9708C297.67 86.9416 297.874 86.8834 298.078 86.8251C298.281 86.7669 298.456 86.7086 298.631 86.6504C298.777 86.5921 298.922 86.5339 299.068 86.4756C299.155 86.4174 299.272 86.3882 299.388 86.33C299.68 86.1844 299.971 86.0096 300.233 85.8348C300.32 85.7766 300.408 85.7183 300.495 85.631C300.641 85.5145 300.786 85.4271 300.903 85.3106C301.019 85.1941 301.165 85.0776 301.281 84.9611C302.33 83.9125 303.058 82.5727 303.349 81.0581C303.437 80.5921 303.466 80.1261 303.466 79.631C303.466 79.3979 303.466 79.1649 303.437 78.9028C303.437 78.6698 303.379 78.4368 303.32 78.2038C303.291 77.9999 303.233 77.8251 303.204 77.6504C303.146 77.4756 303.116 77.3009 303.058 77.097C303.058 77.0678 303.029 77.0387 303.029 76.9805L303.087 76.9222H303.029C303 76.8057 302.942 76.6601 302.883 76.5436C302.796 76.7183 302.738 76.8931 302.65 77.0387V77.0096Z" fill="#001A4D"/>
</g>
<defs>
<clipPath id="clip0_148_779">
<rect width="303.553" height="96" fill="white"/>
</clipPath>
</defs>
</svg>
