<svg width="387" height="48" viewBox="0 0 387 48" fill="none" xmlns="http://www.w3.org/2000/svg">
<g clip-path="url(#clip0_148_809)">
<path d="M47.9662 23.9828C47.9662 21.7748 47.3887 19.7365 46.3696 17.9701C46.0299 17.3586 45.6223 16.7811 45.1467 16.2376C44.9429 15.9658 44.7051 15.728 44.4333 15.4563C42.2592 13.2822 39.2698 11.9573 35.9408 11.9573C33.6308 11.9573 31.4907 11.3119 29.6563 10.1909C29.2826 9.9531 28.9089 9.71531 28.5692 9.44354C28.4673 9.3756 28.3654 9.27369 28.2295 9.17178C28.0936 9.06987 27.9917 8.96796 27.8558 8.86605C27.686 8.73017 27.5501 8.59429 27.3803 8.42444C27.1764 8.22061 27.0066 8.01679 26.8028 7.779C26.6329 7.57518 26.497 7.40533 26.3272 7.20151C26.1913 7.03165 26.0554 6.82783 25.9195 6.65798C25.7836 6.45416 25.6138 6.21637 25.5119 5.97858C25.376 6.21637 25.2401 6.45416 25.1382 6.69195C25.1382 6.72592 25.1042 6.79386 25.0703 6.82783C25.0023 6.96371 24.9344 7.13357 24.8665 7.26945C24.7985 7.40533 24.7306 7.57518 24.6966 7.71106C24.187 9.0359 23.9153 10.4627 23.9153 11.9573C23.9153 12.9425 24.0512 13.9276 24.289 14.8788C24.5607 15.9658 24.9684 17.0189 25.5119 17.9701C25.6817 18.2758 25.8516 18.5476 26.0554 18.8193C26.8707 20.0083 27.8898 21.0274 29.0788 21.8427C29.3505 22.0465 29.6223 22.2164 29.928 22.3862C30.8792 22.9297 31.9323 23.3714 33.0193 23.6091C33.9705 23.3714 34.9217 23.2694 35.9068 23.2694C36.0427 23.2694 36.2125 23.2694 36.3484 23.2694C36.4503 23.2694 36.5862 23.2694 36.7221 23.2694C36.9599 23.2694 37.1977 23.2694 37.4355 23.3374C37.5034 23.3374 37.5713 23.3374 37.6393 23.3374H37.8431C37.8431 23.3374 38.1828 23.4053 38.3866 23.4733C38.5225 23.4733 38.6924 23.5072 38.8622 23.5752C39.066 23.6092 39.2359 23.6771 39.3718 23.7111C39.5756 23.779 39.7454 23.8469 39.9153 23.8809L40.4248 24.0508C40.4248 24.0508 40.7306 24.1527 40.9004 24.2206C40.9684 24.2206 41.0363 24.2546 41.1042 24.2886C41.2741 24.3565 41.4439 24.4244 41.5798 24.5263C41.7157 24.5603 41.8176 24.6283 41.9535 24.6962L42.2932 24.9C42.2932 24.9 42.3951 24.968 42.4291 25.0019C42.7348 25.1718 43.0066 25.3756 43.2783 25.5794C43.618 25.8172 43.9577 26.089 44.2974 26.3607C45.3505 27.2779 46.2338 28.331 46.9132 29.5539L47.0151 29.7238C47.0151 29.7238 47.151 29.9616 47.2189 30.0975C47.2189 30.1654 47.2868 30.2334 47.3208 30.3013C47.5246 30.7089 47.6945 31.1845 47.8643 31.6261C47.8643 31.6601 47.8643 31.728 47.8983 31.762V23.9489L47.9662 23.9828Z" fill="#6F6AD6"/>
<path d="M4.6201 33.4607C4.82392 33.6305 5.06171 33.7664 5.26553 33.9362C5.46935 34.0721 5.67317 34.174 5.877 34.3099C6.69228 34.7855 7.60948 35.1931 8.56065 35.4649C8.69653 35.4989 8.83241 35.5328 8.96829 35.5668C9.34196 35.6687 9.74961 35.7367 10.1233 35.8046C10.2252 35.8046 10.3271 35.8046 10.463 35.8386C10.6668 35.8386 10.8367 35.8725 11.0065 35.9065C11.3122 35.9065 11.618 35.9405 11.9577 35.9405C13.1806 35.9405 14.3356 36.1443 15.4566 36.484C15.6604 36.518 15.8303 36.5859 16.0341 36.6539C16.5776 36.8577 17.1212 37.0955 17.6307 37.3672C17.8345 37.4691 18.0384 37.5711 18.2422 37.7069C18.2422 37.7069 18.3101 37.7409 18.3441 37.7749C18.5139 37.8768 18.6838 37.9787 18.8536 38.1146C19.3292 38.4203 19.7369 38.794 20.1445 39.1677C20.2804 39.3035 20.4163 39.4394 20.5522 39.5753C20.722 39.7452 20.8919 39.949 21.0617 40.1188C21.3674 40.4925 21.6732 40.8322 21.911 41.2398C22.0468 41.4437 22.2167 41.6815 22.3526 41.9193C22.4885 41.7154 22.5904 41.4776 22.7263 41.2398C22.7263 41.2398 22.7263 41.2059 22.7263 41.1719C22.7942 41.07 22.8282 40.9681 22.8621 40.8322C22.964 40.6284 23.032 40.4585 23.0999 40.2547C23.0999 40.2547 23.0999 40.1868 23.1339 40.1528C23.1679 40.0169 23.2358 39.915 23.2698 39.7791C23.3717 39.5413 23.4396 39.3035 23.5076 39.0318C23.5755 38.76 23.6434 38.5222 23.6774 38.2844C23.7793 37.7749 23.8473 37.2314 23.8812 36.6878C23.8812 36.4161 23.8812 36.1443 23.8812 35.8725C23.8812 34.8874 23.7454 33.9023 23.5076 32.9511C23.2358 31.8301 22.8282 30.811 22.2507 29.8598C22.0808 29.588 21.911 29.3163 21.7071 29.0445C20.8919 27.8556 19.8727 26.8364 18.6838 26.0212C18.412 25.8173 18.1403 25.6475 17.8685 25.4776C16.9173 24.9341 15.8643 24.4925 14.7772 24.2207C13.826 24.4246 12.8749 24.5604 11.8897 24.5604C11.7539 24.5604 11.584 24.5604 11.4481 24.5604C11.3122 24.5604 11.1424 24.5604 11.0065 24.5604C10.7347 24.5604 10.429 24.5265 10.1573 24.4925C9.95343 24.4925 9.74961 24.4246 9.54579 24.3906C9.00226 24.2887 8.45874 24.1528 7.88124 23.949C7.84727 23.949 7.8133 23.949 7.74536 23.915C7.64345 23.915 7.57551 23.8471 7.4736 23.8131C7.43963 23.8131 7.40566 23.8131 7.37169 23.7791C7.23581 23.7452 7.09993 23.6772 6.96404 23.6093C6.82816 23.5413 6.69228 23.4734 6.5564 23.4054C6.35258 23.3035 6.11479 23.2016 5.877 23.0657C5.74112 22.9978 5.6392 22.9299 5.53729 22.8619C5.53729 22.8619 5.46935 22.828 5.43538 22.794C5.12965 22.6241 4.82392 22.4203 4.51819 22.2165C3.02349 21.1634 1.76659 19.8046 0.849396 18.208C0.747485 18.0381 0.645574 17.8683 0.577634 17.6984C0.305871 17.1549 0.0680795 16.6114 -0.135742 16.0679V24.1868C-0.101772 26.259 0.509693 28.1953 1.46086 29.8938C1.80056 30.5052 2.20821 31.0488 2.64982 31.5923C2.85364 31.864 3.1254 32.1358 3.3632 32.3736C3.56702 32.5435 3.73687 32.7473 3.94069 32.9171C4.11054 33.087 4.31436 33.2229 4.48422 33.3587L4.6201 33.4607Z" fill="#6F6AD6"/>
<path d="M21.9449 42.6666L21.7411 42.3269L21.5372 41.9532C21.4014 41.7494 21.2994 41.5796 21.1636 41.4097C21.0617 41.2738 20.9937 41.1719 20.8918 41.036C20.7559 40.8662 20.654 40.7303 20.5181 40.5944C20.3823 40.4246 20.2124 40.2207 20.0425 40.0849C19.9067 39.949 19.8048 39.8131 19.6689 39.7112C19.2612 39.3375 18.8536 38.9978 18.4459 38.7261C18.2761 38.5902 18.1402 38.5222 17.9704 38.4203L17.8345 38.3524C17.6307 38.2165 17.4608 38.1146 17.257 38.0127C17.0192 37.8768 16.7814 37.7409 16.5096 37.639C16.2718 37.5371 16.0001 37.4352 15.7283 37.3333C15.5585 37.2653 15.3886 37.2314 15.2188 37.1634C14.1317 36.8237 13.0447 36.6539 11.8897 36.6539H11.1763C11.1763 36.6539 10.9725 36.6199 10.8706 36.6199C10.7007 36.6199 10.4969 36.6199 10.2591 36.552C10.1572 36.552 10.0213 36.552 9.91941 36.518C9.54573 36.484 9.17206 36.3821 8.79839 36.2802H8.59456L8.52662 36.2123C8.52662 36.2123 8.39074 36.1783 8.35677 36.1783C7.26972 35.8725 6.31856 35.4309 5.4693 34.9214L4.85783 34.5477C4.65401 34.4118 4.45019 34.242 4.28034 34.1401C4.24637 34.1061 4.17843 34.0721 4.14446 34.0382C3.94064 33.8683 3.73682 33.7324 3.53299 33.5286C3.53299 33.5286 3.53299 33.5286 3.49902 33.4946C3.53299 34.208 3.66887 34.8874 3.8727 35.6008C4.41622 37.5711 5.43533 39.4394 6.96399 40.9681L13.1126 47.1167L13.826 47.8301C13.826 47.8301 13.9958 47.8301 14.0638 47.7961C15.4566 47.5583 16.7474 47.0827 17.9364 46.4033C19.533 45.4861 20.8918 44.2292 21.8769 42.7006L21.9449 42.6666Z" fill="#001A4D"/>
<path d="M33.9364 42.7004C34.0723 42.4966 34.2082 42.2928 34.3101 42.089C34.412 41.9191 34.5139 41.7153 34.6158 41.5454C34.9216 41.0019 35.1594 40.3905 35.3292 39.813C35.3972 39.6431 35.4651 39.4733 35.4991 39.3034C35.4991 39.2694 35.4991 39.2355 35.4991 39.1675C35.533 38.9977 35.601 38.8278 35.635 38.658C35.7029 38.3522 35.7708 38.0805 35.8048 37.7747C35.8048 37.6728 35.8048 37.5709 35.8388 37.469C35.8388 37.2992 35.8728 37.1293 35.8728 36.9595C35.8728 36.6537 35.9067 36.314 35.9067 36.0083C35.9067 34.7514 36.1105 33.5285 36.4502 32.4074C36.4842 32.2376 36.5522 32.1017 36.5861 31.9319C36.79 31.3883 37.0277 30.8448 37.2995 30.3353C37.4014 30.1314 37.5373 29.9276 37.6392 29.7238C37.6392 29.7238 37.6732 29.6219 37.7071 29.5879C37.8091 29.4181 37.911 29.2482 38.0468 29.0784C38.3526 28.6028 38.7263 28.1951 39.0999 27.7875C39.2358 27.6516 39.3717 27.5157 39.5076 27.3798C39.6774 27.21 39.8812 27.0401 40.0511 26.8703C40.4248 26.5646 40.7645 26.2588 41.1721 26.021C41.3759 25.8851 41.6137 25.7153 41.8515 25.5794C41.6477 25.4435 41.4099 25.3416 41.1721 25.2057C41.1721 25.2057 41.1381 25.2057 41.1042 25.2057C40.9683 25.1378 40.8324 25.0699 40.6965 25.0019C40.6626 25.0019 40.5946 24.968 40.5606 24.934C40.4248 24.866 40.2549 24.7981 40.119 24.7641C39.9492 24.6962 39.7793 24.6282 39.6095 24.5943C39.4396 24.5263 39.2698 24.4924 39.0999 24.4244C38.9301 24.3905 38.7602 24.3225 38.5904 24.2885C38.4545 24.2546 38.3186 24.2206 38.1827 24.1866C38.0129 24.1527 37.8091 24.1187 37.6392 24.0847C37.6052 24.0847 37.5713 24.0847 37.5373 24.0847C37.5033 24.0847 37.4354 24.0847 37.4014 24.0847H37.3674C37.1636 24.0508 36.9258 24.0168 36.688 24.0168C36.5522 24.0168 36.4163 24.0168 36.2804 24.0168C36.1445 24.0168 36.0086 24.0168 35.8728 24.0168C34.8876 24.0168 33.9025 24.1527 32.9853 24.3905C31.8643 24.6622 30.8452 25.1038 29.894 25.6474C29.6222 25.8172 29.3505 25.9871 29.0787 26.1909C27.8897 27.0062 26.8706 28.0253 26.0553 29.2142C25.8515 29.486 25.6817 29.7578 25.5118 30.0295C24.9683 30.9807 24.5267 32.0338 24.2549 33.1208C24.4927 34.072 24.5946 35.0232 24.5946 36.0083C24.5946 36.314 24.5946 36.5858 24.5946 36.8915C24.5946 37.435 24.4927 38.0125 24.3908 38.5561C24.3568 38.8278 24.2549 39.0996 24.187 39.3713C24.119 39.6431 24.0511 39.9149 23.9492 40.1866C23.9152 40.3225 23.8812 40.4244 23.8133 40.5263L23.7454 40.6622C23.6774 40.866 23.5755 41.0699 23.4736 41.3077C23.4736 41.4096 23.3717 41.5454 23.3038 41.7153C23.2698 41.8172 23.2018 41.9531 23.1339 42.055C23.066 42.1569 22.998 42.2928 22.9301 42.4287C22.7942 42.6665 22.6243 42.9043 22.4885 43.142C22.4205 43.244 22.3526 43.3459 22.2846 43.4478C22.2167 43.5837 22.1148 43.6856 22.0129 43.8215C20.9938 45.1463 19.7369 46.2673 18.2761 47.0826C18.1063 47.1845 17.9364 47.2864 17.7666 47.3883C17.2231 47.6601 16.6795 47.8979 16.1021 48.1017H23.9492C26.1233 48.1017 28.1615 47.5242 29.928 46.5051C30.5394 46.1654 31.1169 45.7578 31.6604 45.2822C31.9322 45.0784 32.204 44.8406 32.4418 44.5688C32.6116 44.399 32.7815 44.2291 32.9173 44.0253C33.0872 43.8215 33.257 43.6516 33.3929 43.4478C33.5628 43.244 33.6987 43.0401 33.8345 42.8363C33.8345 42.8363 33.8345 42.8363 33.8345 42.8023L33.9364 42.7004Z" fill="#6F6AD6"/>
<path d="M47.7963 33.9022C47.7963 33.7324 47.7283 33.5965 47.6944 33.4267C47.6944 33.3927 47.6944 33.3248 47.6944 33.2908C47.6264 33.019 47.5585 32.7812 47.4906 32.5434C47.4906 32.4755 47.4566 32.3736 47.4226 32.3056C47.4226 32.1698 47.3547 32.0679 47.3207 31.9659C47.1509 31.5243 46.981 31.1167 46.7772 30.709C46.6753 30.4713 46.5394 30.2335 46.4035 30.0296C46.2676 29.8258 46.1657 29.622 46.0298 29.4182C45.9959 29.3502 45.9619 29.2823 45.894 29.2144C45.7581 29.0445 45.6562 28.8746 45.5203 28.7048C45.4184 28.5689 45.2825 28.3991 45.1466 28.2632C45.1466 28.2632 44.9428 28.0254 44.8409 27.8895C44.705 27.7536 44.5691 27.6177 44.4332 27.4819C44.2974 27.346 44.1275 27.1761 43.9916 27.0742C43.8897 26.9723 43.7878 26.8704 43.6519 26.7685C43.55 26.6666 43.4481 26.5647 43.3122 26.4967C43.1084 26.3269 42.9046 26.191 42.7007 26.0551L42.395 26.2589L42.0213 26.4628C41.8515 26.5986 41.6816 26.7006 41.5118 26.8364C41.4099 26.9044 41.3419 26.9723 41.24 27.0403C41.0362 27.1761 40.8664 27.346 40.6965 27.4819C40.5266 27.6177 40.3228 27.7876 40.1869 27.9574C40.0511 28.0933 39.9152 28.1952 39.8133 28.3311C39.4396 28.7388 39.0999 29.1464 38.8281 29.5541C38.6923 29.7239 38.6243 29.8598 38.5224 30.0296L38.4545 30.1655C38.3526 30.3693 38.2506 30.5392 38.1148 30.743C37.843 31.2186 37.6392 31.7281 37.4354 32.2377L37.2995 32.6793C36.9598 33.7664 36.7559 34.8874 36.7559 36.0763C36.7559 36.416 36.756 36.7558 36.722 37.0955C36.722 37.2653 36.722 37.4352 36.688 37.639V37.9447C36.5861 38.3184 36.5182 38.6241 36.4502 38.9298C36.4502 39.0657 36.3823 39.2016 36.3483 39.3715C36.3483 39.4394 36.3483 39.5073 36.2804 39.5753C36.2464 39.7451 36.1785 39.915 36.1105 40.0848C35.9067 40.7303 35.6349 41.3417 35.3292 41.9192C35.2613 42.0551 35.1933 42.191 35.0914 42.3608L34.9895 42.5647C34.8536 42.7685 34.7177 42.9723 34.5819 43.1761L34.5139 43.2441C34.5139 43.2441 34.3101 43.5838 34.1742 43.7197C34.1402 43.7536 34.1063 43.8216 34.0723 43.8555C33.9024 44.0594 33.7326 44.2632 33.5627 44.467C34.2761 44.433 34.9895 44.2972 35.6689 44.1273C37.6392 43.5838 39.4736 42.5647 41.0362 41.002L47.1848 34.8534L47.8982 34.14C47.8982 34.0721 47.8982 34.0042 47.8982 33.9702L47.7963 33.9022Z" fill="#001A4D"/>
<path d="M28.637 2.51364C28.4332 2.6835 28.1954 2.85335 27.9915 3.05717C27.6518 3.3629 27.3461 3.66863 27.0404 4.00834C26.8366 4.21216 26.6667 4.41598 26.4969 4.65377C26.327 4.89156 26.1572 5.12936 25.9873 5.36715L26.1572 5.67288C26.1572 5.67288 26.293 5.91067 26.361 6.04655C26.361 6.04655 26.3949 6.11449 26.4289 6.14846C26.4969 6.28434 26.5648 6.38626 26.6667 6.48817C26.8026 6.69199 26.9724 6.89581 27.1423 7.09963C27.2782 7.26948 27.4141 7.43933 27.5499 7.60919C27.6518 7.7111 27.7538 7.81301 27.8557 7.91492L28.1954 8.25462C28.1954 8.25462 28.3652 8.42447 28.4671 8.49241C28.603 8.62829 28.7389 8.7302 28.8748 8.83212C29.0446 8.968 29.2485 9.13785 29.4183 9.23976C29.6221 9.37564 29.792 9.51152 29.9958 9.61343C31.7623 10.7005 33.8005 11.278 35.9066 11.278H36.62C36.9257 11.3119 37.1975 11.3459 37.4693 11.3799C37.5032 11.3799 37.5712 11.3799 37.6051 11.3799C37.9109 11.4139 38.1826 11.4818 38.4544 11.5158C38.7601 11.5837 39.0319 11.6516 39.3376 11.7196C39.3376 11.7196 39.4056 11.7196 39.4395 11.7196C39.7113 11.7875 39.9831 11.8894 40.2548 11.9914C40.5266 12.0933 40.7983 12.1952 41.0701 12.2971H41.138C41.4098 12.4669 41.6816 12.6028 41.9533 12.7387C42.2251 12.8746 42.4629 13.0444 42.7346 13.1803C43.0064 13.3502 43.2782 13.554 43.5499 13.7238C43.8217 13.9277 44.0935 14.1315 44.3313 14.3693C44.2633 13.6559 44.1614 12.9765 43.9576 12.2971C43.4141 10.3268 42.3949 8.45844 40.8663 6.89581L34.7177 0.747189L34.0043 0.0338135C34.0043 0.0338135 33.8344 0.0338135 33.7665 0.0677838C32.3737 0.305576 31.0828 0.78116 29.8939 1.46057C29.4183 1.73233 28.9767 2.03806 28.569 2.34379L28.637 2.51364Z" fill="#001A4D"/>
<path d="M13.656 5.91075C13.5202 6.11457 13.3843 6.35236 13.2824 6.59015C13.0106 7.09971 12.8068 7.60926 12.6369 8.15279C12.569 8.35661 12.5011 8.5944 12.4331 8.79822C12.3652 9.00204 12.2972 9.23984 12.2633 9.47763C12.1953 9.81733 12.1274 10.157 12.0934 10.4967C12.0934 10.7006 12.0594 10.8704 12.0255 11.0403C12.0255 11.346 11.9915 11.6517 11.9915 11.9914C11.9915 13.9617 11.5159 15.8301 10.6667 17.4606C10.5987 17.5965 10.5308 17.7324 10.4289 17.8683C10.3609 18.0042 10.293 18.1401 10.1911 18.2759C10.1911 18.2759 10.1571 18.3778 10.1231 18.4118C10.0212 18.5817 9.91931 18.7515 9.78343 18.9214C9.40976 19.4649 9.00211 19.9405 8.52653 20.4161C8.32271 20.6199 8.11889 20.7897 7.91507 20.9936C7.50742 21.3672 7.09978 21.673 6.65817 21.9787C6.45434 22.1146 6.21655 22.2844 5.97876 22.4203C6.21655 22.5562 6.45434 22.6921 6.69214 22.794C6.76008 22.8279 6.86199 22.8619 6.9639 22.9299C7.20169 23.0657 7.47345 23.1677 7.74521 23.2356C7.91507 23.3035 8.05095 23.3715 8.2208 23.4054C8.73035 23.5753 9.27388 23.7112 9.78343 23.8131C9.98725 23.8471 10.1571 23.881 10.3609 23.915C10.6327 23.949 10.9044 23.9829 11.1762 23.9829C11.448 23.9829 11.7197 23.9829 11.9915 23.9829C12.9766 23.9829 13.9618 23.8471 14.9129 23.6093C16 23.3375 17.0531 22.9299 18.0042 22.3863C18.31 22.2165 18.5478 22.0466 18.8195 21.8428C20.0085 21.0275 21.0276 20.0084 21.8429 18.8195C22.0467 18.5477 22.2166 18.2759 22.3864 17.9702C22.9299 17.019 23.3715 15.9999 23.6093 14.8789C23.3715 13.9277 23.2696 12.9426 23.2696 11.9575C23.2696 10.3948 23.5414 8.90013 24.0849 7.43941C24.2548 6.96383 24.4926 6.45427 24.7643 5.94472C24.7643 5.94472 24.7643 5.87678 24.7983 5.84281C24.7983 5.84281 24.8323 5.77487 24.8323 5.7409C24.8323 5.67296 24.9002 5.60502 24.9342 5.57105C25.138 5.23134 25.3418 4.89164 25.5796 4.55194C26.6327 3.05725 27.9915 1.83432 29.5541 0.917119C29.724 0.815208 29.8938 0.713297 30.0637 0.611386C30.6072 0.339624 31.1507 0.101832 31.6943 -0.10199H23.8811C21.707 -0.10199 19.6688 0.475505 17.9023 1.49461C17.2909 1.83432 16.7134 2.24196 16.2038 2.68357C15.9321 2.88739 15.6603 3.15916 15.4225 3.39695C15.2187 3.60077 15.0488 3.80459 14.879 4.00841C14.7431 4.17826 14.5732 4.34812 14.4713 4.51797C14.3354 4.72179 14.1656 4.89164 14.0297 5.09546C13.8938 5.29928 13.724 5.53708 13.5881 5.77487L13.656 5.91075Z" fill="#6F6AD6"/>
<path d="M1.59692 18.0042C2.0725 18.8195 2.65 19.5668 3.29543 20.2462C3.43131 20.3821 3.56719 20.552 3.70308 20.6539C3.83896 20.7898 3.94087 20.8917 4.07675 20.9936C4.28057 21.1634 4.48439 21.3333 4.68821 21.5031C4.89203 21.673 5.09586 21.8089 5.29968 21.9448L5.63938 21.7409C5.63938 21.7409 5.87717 21.605 5.97908 21.5371C5.97908 21.5371 6.08099 21.4692 6.11496 21.4352C6.28482 21.3333 6.45467 21.2314 6.62452 21.0955C6.7604 20.9936 6.93025 20.8917 7.06613 20.7558C7.23598 20.6199 7.40584 20.484 7.57569 20.3142C7.71157 20.1783 7.88142 20.0424 8.0173 19.8726C8.08524 19.8046 8.18715 19.7027 8.25509 19.6348C8.357 19.5329 8.42494 19.4649 8.49288 19.363C8.73068 19.0912 8.96847 18.7855 9.20626 18.4798C9.30817 18.3439 9.41008 18.208 9.47802 18.0721L9.6139 17.8683C9.68184 17.7664 9.74978 17.6985 9.78376 17.5966L9.8517 17.4607C9.8517 17.4607 9.98758 17.2569 10.0215 17.1549C10.8368 15.5583 11.2784 13.8259 11.2784 11.9915C11.2784 11.6518 11.2784 11.3121 11.3124 10.9724C11.3124 10.8025 11.3124 10.5987 11.3804 10.3609C11.3804 10.0212 11.4823 9.64751 11.5502 9.30781C11.6181 9.03605 11.6521 8.79826 11.754 8.56046C11.822 8.35664 11.8899 8.08488 11.9579 7.88106C12.1617 7.30356 12.3655 6.76004 12.6373 6.25049C12.7392 6.01269 12.875 5.7749 13.0109 5.53711C13.1468 5.26535 13.3167 5.02756 13.4865 4.78976C13.6224 4.61991 13.7243 4.48403 13.8262 4.31418C13.8602 4.28021 13.8942 4.21227 13.9621 4.1783C14.098 4.00845 14.2678 3.80463 14.4377 3.63477C14.4377 3.63477 14.4717 3.6008 14.5056 3.56683C13.7922 3.63477 13.1128 3.73668 12.4334 3.94051C10.5651 4.45006 8.76465 5.40123 7.26995 6.82798L0.883542 13.1804L0.170166 13.8938C0.170166 13.8938 0.170166 14.0636 0.204136 14.1316C0.441928 15.5244 0.917512 16.8152 1.59692 17.9702V18.0042Z" fill="#001A4D"/>
<path d="M207.694 36.0087V12.0256H201.58V36.0087H207.694Z" fill="#001A4D"/>
<path d="M247.304 19.533C247.304 19.2613 247.372 19.0235 247.507 18.8196H247.406C247.168 18.8196 246.964 18.8196 246.726 18.8196C246.522 18.8196 246.285 18.8876 246.081 18.9216C245.911 18.9216 245.741 18.9895 245.571 19.0574C245.435 19.0914 245.265 19.1593 245.13 19.1933C244.994 19.2273 244.858 19.2952 244.722 19.3632C244.552 19.4311 244.416 19.499 244.246 19.567C244.212 19.567 244.178 19.601 244.11 19.6349C244.009 19.6689 243.907 19.7368 243.805 19.8048C243.669 19.8727 243.567 19.9407 243.431 20.0426C243.261 20.1445 243.125 20.2804 242.955 20.4162C242.82 20.5521 242.65 20.688 242.514 20.8239C242.378 20.9598 242.208 21.1296 242.106 21.2995C242.004 21.4014 241.936 21.5033 241.868 21.6392C241.834 21.6731 241.8 21.7411 241.733 21.809L241.155 22.6923V25.4778C241.155 25.4778 241.155 25.6137 241.155 25.6816C241.155 25.7496 241.155 25.8175 241.155 25.8855V36.0426H247.27V27.1084H261.062V20.9937H248.696C247.915 20.9937 247.304 20.3483 247.304 19.601V19.533Z" fill="#001A4D"/>
<path d="M241.189 11.9916V18.1062V21.3674C241.461 20.9937 241.732 20.62 242.072 20.3143C243.431 18.9555 245.333 18.1062 247.406 18.1062C247.711 18.1062 248.051 18.1062 248.357 18.1742C248.425 18.1742 248.493 18.1402 248.561 18.1402C248.561 18.1402 248.662 18.1402 248.73 18.1402H267.21V12.0255H241.189V11.9916Z" fill="#001A4D"/>
<path d="M108.161 25.9534C108.093 25.7496 108.026 25.5798 107.958 25.4099C107.584 26.2592 107.074 27.0065 106.395 27.652C105.036 29.0108 103.168 29.86 101.096 29.86H90.0892C89.3419 29.86 88.6964 29.2486 88.6964 28.4672H82.5818C82.5818 28.9428 82.6158 29.3844 82.7177 29.86C83.3631 33.325 86.4204 35.9747 90.0892 35.9747H101.062C104.73 35.9747 107.788 33.325 108.433 29.86C108.535 29.3844 108.569 28.9428 108.569 28.4672C108.569 27.9577 108.535 27.4821 108.433 27.0405C108.365 26.6668 108.263 26.2931 108.127 25.9195L108.161 25.9534Z" fill="#001A4D"/>
<path d="M107.72 24.9004C107.55 24.5947 107.346 24.2889 107.142 24.0172C105.783 22.1488 103.575 20.9598 101.096 20.9598H90.1232C89.3418 20.9598 88.7304 20.3144 88.7304 19.5671C88.7304 19.2274 88.8663 18.9216 89.0361 18.6838C88.8323 18.6838 88.6624 18.7178 88.4926 18.7857C88.1868 18.8537 87.8472 18.9556 87.5754 19.0915C87.4395 19.1255 87.3376 19.1934 87.2017 19.2274C87.0319 19.2953 86.862 19.3972 86.6922 19.4991C86.5223 19.601 86.3525 19.7029 86.2166 19.8049C86.0128 19.9407 85.8429 20.0766 85.673 20.2125C85.5032 20.3484 85.3333 20.5182 85.1635 20.6881C84.8578 20.9938 84.62 21.2656 84.3822 21.6053C84.2463 21.7751 84.1444 21.945 84.0425 22.1148C83.9406 22.2847 83.8387 22.4545 83.7707 22.6584C83.7707 22.6923 83.7028 22.7603 83.7028 22.8282L83.5669 23.1679C83.7367 23.5076 83.9406 23.8134 84.1444 24.0851C85.5032 25.9195 87.7113 27.1424 90.1911 27.1424H101.163C101.945 27.1424 102.556 27.7539 102.556 28.5352C102.556 28.9089 102.42 29.1807 102.217 29.4184C102.42 29.4184 102.59 29.3505 102.794 29.3165C102.896 29.3165 102.964 29.2826 103.066 29.2486C103.304 29.1807 103.541 29.1127 103.745 29.0108C103.847 28.9768 103.949 28.9429 104.085 28.8749C104.255 28.807 104.459 28.7051 104.628 28.6032C104.798 28.5012 104.968 28.3993 105.104 28.2974C105.308 28.1615 105.478 28.0257 105.648 27.8898C105.817 27.7539 105.987 27.584 106.157 27.4142C106.429 27.1424 106.667 26.8367 106.904 26.531C107.108 26.2592 107.278 25.9874 107.414 25.7157C107.448 25.6138 107.516 25.5458 107.55 25.4439C107.55 25.4439 107.618 25.308 107.618 25.2741L107.754 24.9344L107.72 24.9004Z" fill="#001A4D"/>
<path d="M83.0234 22.0469C83.0913 22.2507 83.1592 22.4205 83.2272 22.5904C83.6009 21.7411 84.1104 20.9938 84.7898 20.3484C86.1486 18.9895 88.017 18.1403 90.0892 18.1403H101.096C101.877 18.1403 102.488 18.7857 102.488 19.5331H108.603C108.603 19.0575 108.569 18.5819 108.467 18.1403C107.822 14.6753 104.764 12.0256 101.096 12.0256H90.1232C86.4544 12.0256 83.397 14.6753 82.7516 18.1403C82.6497 18.6159 82.6157 19.0575 82.6157 19.5331C82.6157 20.0087 82.6497 20.4842 82.7516 20.9258C82.8195 21.2995 82.9215 21.6732 83.0573 22.0129L83.0234 22.0469Z" fill="#001A4D"/>
<path d="M315.38 18.9555C315.006 19.0235 314.633 19.1254 314.293 19.2613C314.157 19.2952 314.055 19.3632 313.953 19.3971C313.817 19.4651 313.682 19.533 313.546 19.601C313.342 19.7029 313.172 19.8048 313.002 19.9407C312.832 20.0765 312.629 20.2124 312.459 20.3483C312.289 20.4842 312.119 20.654 311.949 20.7899C311.847 20.8918 311.745 20.9937 311.643 21.1296C311.541 21.2315 311.44 21.3334 311.372 21.4693C311.372 21.4693 311.27 21.6052 311.236 21.6392L310.658 22.4884V35.9746H316.773V18.8196C316.535 18.8196 316.297 18.8196 316.059 18.8196C315.856 18.8196 315.618 18.8876 315.414 18.9216L315.38 18.9555Z" fill="#001A4D"/>
<path d="M300.671 11.9916V18.1062H310.624V21.2655C310.862 20.9258 311.134 20.62 311.406 20.3143C312.764 18.9555 314.667 18.1062 316.739 18.1062H317.452H326.692V11.9916H300.637H300.671Z" fill="#001A4D"/>
<path d="M142.845 24.2548C142.845 24.2548 143.015 23.9491 143.117 23.8472C143.355 23.5075 143.66 23.1678 143.966 22.8621C144.136 22.6922 144.34 22.5224 144.51 22.3865C144.51 22.3525 144.578 22.3185 144.612 22.2846C144.747 22.1827 144.883 22.0807 145.019 21.9788C145.257 21.809 145.495 21.6731 145.733 21.5372C145.834 21.4693 145.936 21.4013 146.072 21.3674C146.14 21.3334 146.242 21.2994 146.31 21.2315C146.446 21.1636 146.582 21.1296 146.684 21.0616C146.922 20.9597 147.193 20.8918 147.431 20.8238C147.669 20.7559 147.907 20.688 148.144 20.654V11.9916H142.03V25.9194C142.166 25.5117 142.336 25.1041 142.505 24.7644C142.607 24.5945 142.675 24.4247 142.811 24.2548H142.845Z" fill="#001A4D"/>
<path d="M161.97 11.9916V20.9258H149.605C147.533 20.9258 145.665 21.775 144.272 23.1338C142.879 24.4926 142.064 26.361 142.064 28.4332V35.9746H148.178V27.0404H160.374C160.374 27.0404 160.51 27.0404 160.578 27.0404C160.645 27.0404 160.713 27.0404 160.747 27.0404H160.781C161.019 27.0404 161.257 27.0404 161.495 27.0064C161.563 27.0064 161.665 27.0064 161.733 26.9725C161.766 26.9725 161.834 26.9725 161.868 26.9725C162.004 26.9725 162.106 26.9385 162.242 26.9045C162.548 26.8366 162.82 26.7686 163.091 26.6667C163.227 26.6328 163.363 26.5648 163.499 26.4969C163.533 26.4969 163.601 26.4969 163.635 26.4629C163.839 26.361 164.042 26.2591 164.212 26.1572C164.45 26.0213 164.688 25.8854 164.892 25.7156C165.028 25.6476 165.13 25.5457 165.265 25.4438C165.299 25.4438 165.367 25.3759 165.401 25.3419C165.571 25.206 165.707 25.0701 165.877 24.9003C167.236 23.5415 168.085 21.6391 168.085 19.5669V12.0255H161.97V11.9916Z" fill="#001A4D"/>
<path d="M167.575 23.2697C167.473 23.4735 167.372 23.6433 167.236 23.8472C167.236 23.8811 167.168 23.9491 167.134 23.983C166.998 24.1869 166.862 24.3567 166.692 24.5605C166.522 24.7644 166.352 24.9682 166.149 25.138C165.945 25.3419 165.741 25.5457 165.503 25.7155C165.333 25.8514 165.197 25.9873 165.028 26.0892C164.79 26.2591 164.518 26.4289 164.246 26.5648C164.076 26.6667 163.941 26.7346 163.771 26.8026C163.499 26.9385 163.193 27.0404 162.887 27.1423C162.718 27.1763 162.582 27.2442 162.412 27.2782C162.242 27.3121 162.072 27.3461 161.936 27.3801V36.0085H168.051V22.1147C167.915 22.5223 167.745 22.93 167.541 23.3036L167.575 23.2697Z" fill="#001A4D"/>
<path d="M385.121 24.0172C385.121 24.0172 385.019 24.1531 384.985 24.2211C384.747 24.5268 384.476 24.8325 384.204 25.1043C384.136 25.1722 384.068 25.2402 384.034 25.2741C383.932 25.41 383.796 25.478 383.694 25.5799C383.66 25.5799 383.626 25.6478 383.592 25.6818C383.423 25.8177 383.253 25.9535 383.049 26.0554C383.049 26.0554 383.049 26.0554 383.015 26.0554C382.811 26.1913 382.607 26.3272 382.369 26.4291C382.369 26.4291 382.335 26.4291 382.302 26.4631C382.098 26.565 381.894 26.6669 381.69 26.7688C381.452 26.8707 381.214 26.9387 380.977 27.0066C380.977 27.0066 380.977 27.0066 380.943 27.0066C380.739 27.0746 380.535 27.1425 380.297 27.1765C380.263 27.1765 380.229 27.1765 380.161 27.1765C380.161 27.1765 380.093 27.1765 380.059 27.1765C379.89 27.1765 379.72 27.2104 379.55 27.2444L379.618 27.3123C379.856 27.5501 379.992 27.8898 379.992 28.2975C379.992 28.9769 379.516 29.5544 378.871 29.6903C378.871 29.6903 378.837 29.6903 378.803 29.6903C378.735 29.6903 378.667 29.6903 378.599 29.6903H367.626C366.845 29.6903 366.2 29.0448 366.2 28.2635H360.085C360.085 28.7391 360.119 29.2147 360.221 29.6903C360.866 33.1552 363.924 35.8049 367.592 35.8049H378.565C382.234 35.8049 385.291 33.1552 385.936 29.6903C386.038 29.2147 386.072 28.7391 386.072 28.2635V21.9111C385.936 22.2508 385.8 22.5905 385.631 22.9302C385.461 23.2359 385.291 23.5416 385.087 23.8474L385.121 24.0172Z" fill="#001A4D"/>
<path d="M360.527 22.0469C360.594 22.2507 360.662 22.4206 360.73 22.5904C361.104 21.7412 361.648 20.9938 362.293 20.3484C363.652 18.9896 365.554 18.1403 367.626 18.1403H378.599C379.38 18.1403 379.992 18.7518 379.992 19.5331C379.992 19.635 379.992 19.7369 379.992 19.8049C379.992 19.9068 379.958 20.0087 379.89 20.1106C379.89 20.1785 379.822 20.2465 379.788 20.3144C379.788 20.3484 379.72 20.4163 379.686 20.4503C379.89 20.4503 380.059 20.3823 380.263 20.3484C380.671 20.2465 381.045 20.1446 381.418 19.9747C381.554 19.9407 381.69 19.8728 381.792 19.8049C381.894 19.7709 381.996 19.7029 382.064 19.669C382.234 19.5671 382.403 19.4652 382.573 19.3632C382.743 19.2274 382.913 19.1254 383.083 18.9896C383.253 18.8537 383.422 18.6838 383.592 18.514C383.83 18.3102 384.034 18.0384 384.272 17.6987C384.374 17.5628 384.476 17.4269 384.544 17.2911C384.577 17.2231 384.645 17.1552 384.679 17.0533C384.747 16.9174 384.815 16.8155 384.883 16.6796L384.917 16.6116C384.917 16.6116 384.917 16.5777 384.951 16.5437C384.951 16.5097 384.985 16.4418 385.019 16.4078L385.155 16.0681C385.155 16.0681 385.053 15.8983 385.019 15.7964C385.019 15.7624 384.985 15.6945 384.951 15.6605C384.883 15.5246 384.781 15.3887 384.713 15.2868C384.679 15.2189 384.611 15.1509 384.544 15.083C384.442 14.9811 384.374 14.8792 384.272 14.7433C384.272 14.7433 384.272 14.7093 384.238 14.6753C384.238 14.6753 384 14.4036 383.864 14.2677C383.864 14.2677 383.558 13.962 383.423 13.8261C383.253 13.6902 383.083 13.5543 382.879 13.4184C382.879 13.4184 382.539 13.1807 382.369 13.0787C382.166 12.9429 381.996 12.8749 381.826 12.773C381.622 12.6711 381.418 12.6032 381.214 12.5352C381.011 12.4673 380.807 12.3993 380.603 12.3314C380.399 12.2635 380.161 12.2295 379.958 12.1955C379.754 12.1615 379.516 12.1276 379.312 12.0936C379.074 12.0936 378.837 12.0596 378.633 12.0596C378.565 12.0596 378.497 12.0596 378.429 12.0596H367.626C363.958 12.0596 360.9 14.6753 360.255 18.1743C360.153 18.6159 360.119 19.0915 360.119 19.5671C360.119 20.0426 360.153 20.5182 360.255 20.9598C360.323 21.3335 360.425 21.7072 360.561 22.0809L360.527 22.0469Z" fill="#001A4D"/>
<path d="M385.189 17.0192C385.019 17.3249 384.849 17.5967 384.646 17.9024C384.442 18.2081 384.17 18.4799 383.932 18.7517C382.573 20.1105 380.705 20.9597 378.633 20.9597H367.626C366.845 20.9597 366.2 20.3143 366.2 19.567C366.2 19.2272 366.336 18.9215 366.505 18.6837C366.302 18.6837 366.132 18.7517 365.928 18.7856C365.928 18.7856 365.758 18.7856 365.656 18.8536C365.554 18.8536 365.486 18.8875 365.384 18.9555C365.215 18.9895 365.011 19.0574 364.841 19.1593C364.671 19.2272 364.467 19.2952 364.297 19.3971C364.06 19.533 363.788 19.6689 363.584 19.8387C363.414 19.9746 363.244 20.0765 363.074 20.2124C362.905 20.3483 362.735 20.5181 362.565 20.688C362.191 21.0616 361.885 21.4353 361.614 21.8769C361.546 22.0128 361.478 22.1147 361.41 22.2506C361.41 22.2506 361.41 22.2846 361.41 22.3185C361.342 22.4205 361.274 22.5563 361.206 22.6582C361.206 22.6582 361.138 22.7941 361.104 22.8281L360.968 23.1338C361.138 23.4735 361.342 23.7793 361.546 24.085C362.905 25.9194 365.113 27.1423 367.592 27.1423H378.395C378.395 27.1423 378.531 27.1423 378.599 27.1423H378.667C378.667 27.1423 378.803 27.1423 378.871 27.1423C378.939 27.1423 379.006 27.1423 379.074 27.1423H379.108C379.108 27.1423 379.244 27.1423 379.312 27.1423C379.346 27.1423 379.414 27.1423 379.482 27.1423C379.686 27.1423 379.924 27.0744 380.127 27.0404C380.331 27.0064 380.535 26.9385 380.739 26.8706C380.943 26.8366 381.113 26.7686 381.282 26.7007C381.418 26.6328 381.588 26.5648 381.724 26.5309C381.826 26.4969 381.928 26.4289 382.03 26.395C382.336 26.2591 382.607 26.0892 382.879 25.8854C382.981 25.8175 383.049 25.7495 383.151 25.6816C383.287 25.5797 383.423 25.4778 383.558 25.3419C383.694 25.24 383.83 25.1041 383.932 25.0022C384.985 23.9491 385.733 22.5903 386.004 21.0956C386.072 20.62 386.14 20.1444 386.14 19.6689C386.14 19.4311 386.14 19.1933 386.106 18.9555C386.106 18.7177 386.038 18.4799 386.004 18.2761C385.97 18.0723 385.936 17.9024 385.868 17.7326C385.834 17.5627 385.767 17.3589 385.699 17.189C385.699 17.1551 385.699 17.1211 385.665 17.0871L385.733 17.0192H385.665C385.631 16.8833 385.563 16.7474 385.529 16.6455C385.529 16.6455 385.359 16.9852 385.291 17.1551L385.189 17.0192Z" fill="#001A4D"/>
</g>
<defs>
<clipPath id="clip0_148_809">
<rect width="386.106" height="48" fill="white"/>
</clipPath>
</defs>
</svg>
